<?xml version="1.0" encoding="UTF-8"?>
<!DOCTYPE svg PUBLIC "-//W3C//DTD SVG 1.1//EN" "http://www.w3.org/Graphics/SVG/1.1/DTD/svg11.dtd">
<svg xmlns="http://www.w3.org/2000/svg" version="1.1" width="1000px" height="689px" style="shape-rendering:geometricPrecision; text-rendering:geometricPrecision; image-rendering:optimizeQuality; fill-rule:evenodd; clip-rule:evenodd" xmlns:xlink="http://www.w3.org/1999/xlink">
<g><path style="opacity:0.94" fill="#8216e9" d="M 503.5,41.5 C 395.833,41.5 288.167,41.5 180.5,41.5C 180.021,37.0887 180.688,32.922 182.5,29C 183.5,28.6667 184.5,28.3333 185.5,28C 289.833,27.3333 394.167,27.3333 498.5,28C 500.848,28.1102 502.348,29.2769 503,31.5C 503.498,34.8168 503.665,38.1501 503.5,41.5 Z"/></g>
<g><path style="opacity:1" fill="#e4e4fd" d="M 458.5,32.5 C 460.912,32.6941 461.912,34.0274 461.5,36.5C 460.167,36.5 458.833,36.5 457.5,36.5C 457.433,35.0413 457.766,33.7079 458.5,32.5 Z"/></g>
<g><path style="opacity:1" fill="#e7eafd" d="M 472.5,32.5 C 473.995,32.4148 474.995,33.0815 475.5,34.5C 474.68,36.1112 473.346,36.7778 471.5,36.5C 471.433,35.0413 471.766,33.7079 472.5,32.5 Z"/></g>
<g><path style="opacity:1" fill="#e6e9fd" d="M 486.5,32.5 C 487.995,32.4148 488.995,33.0815 489.5,34.5C 488.68,36.1112 487.346,36.7778 485.5,36.5C 485.433,35.0413 485.766,33.7079 486.5,32.5 Z"/></g>
<g><path style="opacity:0.857" fill="#00aeef" d="M 180.5,41.5 C 288.167,41.5 395.833,41.5 503.5,41.5C 503.667,106.834 503.5,172.168 503,237.5C 501.786,239.049 500.286,240.215 498.5,241C 465.835,241.5 433.168,241.667 400.5,241.5C 400.5,231.167 400.5,220.833 400.5,210.5C 365.996,210.168 331.663,210.502 297.5,211.5C 292.91,212.921 289.744,215.921 288,220.5C 287.5,227.158 287.334,233.825 287.5,240.5C 252.79,240.826 218.123,240.493 183.5,239.5C 182.416,238.335 181.583,237.002 181,235.5C 180.5,219.17 180.333,202.837 180.5,186.5C 180.5,186.167 180.5,185.833 180.5,185.5C 180.5,137.5 180.5,89.5 180.5,41.5 Z"/></g>
<g><path style="opacity:0.234" fill="#dcb2f5" d="M 573.5,42.5 C 588.167,42.5 602.833,42.5 617.5,42.5C 617.5,48.1667 617.5,53.8333 617.5,59.5C 602.833,59.5 588.167,59.5 573.5,59.5C 573.5,53.8333 573.5,48.1667 573.5,42.5 Z"/></g>
<g><path style="opacity:0.234" fill="#dcb2f5" d="M 621.5,42.5 C 636.167,42.5 650.833,42.5 665.5,42.5C 665.5,48.1667 665.5,53.8333 665.5,59.5C 650.833,59.5 636.167,59.5 621.5,59.5C 621.5,53.8333 621.5,48.1667 621.5,42.5 Z"/></g>
<g><path style="opacity:1" fill="#e7e4f2" d="M 400.5,56.5 C 430.169,56.3334 459.835,56.5 489.5,57C 491.848,57.3459 493.681,58.5125 495,60.5C 496.651,90.7474 496.984,121.081 496,151.5C 495.654,153.848 494.487,155.681 492.5,157C 461.895,158.643 431.228,158.977 400.5,158C 398.714,157.215 397.214,156.049 396,154.5C 394.357,123.895 394.023,93.2278 395,62.5C 396.36,59.9774 398.193,57.9774 400.5,56.5 Z"/></g>
<g><path style="opacity:1" fill="#f8f3fd" d="M 211.5,59.5 C 267.834,59.3333 324.168,59.5 380.5,60C 381.935,62.2672 381.602,64.2672 379.5,66C 323.5,66.6667 267.5,66.6667 211.5,66C 208.939,63.8441 208.939,61.6774 211.5,59.5 Z"/></g>
<g><path style="opacity:0.859" fill="#7517da" d="M 400.5,61.5 C 430.74,61.1712 460.907,61.5045 491,62.5C 491.828,92.7385 491.662,122.905 490.5,153C 460.262,153.828 430.095,153.662 400,152.5C 399.175,122.095 399.342,91.7616 400.5,61.5 Z"/></g>
<g><path style="opacity:1" fill="#fefefe" d="M 211.5,80.5 C 267.834,80.3333 324.168,80.5 380.5,81C 381.833,82.6667 381.833,84.3333 380.5,86C 323.83,86.8333 267.164,86.6666 210.5,85.5C 209.288,83.5716 209.621,81.9049 211.5,80.5 Z"/></g>
<g><path style="opacity:1" fill="#e7e8f9" d="M 440.5,79.5 C 462.662,79.4941 473.495,90.4941 473,112.5C 468.032,129.123 456.865,136.623 439.5,135C 422.145,128.793 415.312,116.627 419,98.5C 422.948,88.3775 430.115,82.0441 440.5,79.5 Z"/></g>
<g><path style="opacity:0.859" fill="#781dda" d="M 439.5,84.5 C 462.837,84.6605 471.671,95.9939 466,118.5C 458.108,130.191 447.608,133.357 434.5,128C 423.07,120.041 419.904,109.541 425,96.5C 428.541,90.78 433.374,86.78 439.5,84.5 Z"/></g>
<g><path style="opacity:0.984" fill="#8b3bde" d="M 773.5,284.5 C 771.167,284.5 768.833,284.5 766.5,284.5C 762.952,273.381 755.285,268.881 743.5,271C 733.24,275.757 729.574,283.59 732.5,294.5C 708.537,296.774 686.204,291.774 665.5,279.5C 665.5,278.833 665.167,278.5 664.5,278.5C 656.243,272.913 648.91,266.246 642.5,258.5C 642.262,256.596 641.262,255.262 639.5,254.5C 639.218,253.222 638.551,252.222 637.5,251.5C 632.142,242.764 628.142,233.431 625.5,223.5C 625.5,222.167 625.5,220.833 625.5,219.5C 624.779,213.85 624.112,208.183 623.5,202.5C 624.096,183.085 629.763,165.418 640.5,149.5C 640.027,176.231 640.527,202.898 642,229.5C 643.214,231.049 644.714,232.215 646.5,233C 668.497,233.5 690.497,233.667 712.5,233.5C 739.231,233.973 765.898,233.473 792.5,232C 794.333,231.5 795.5,230.333 796,228.5C 796.5,218.839 796.666,209.172 796.5,199.5C 796.667,177.831 796.5,156.164 796,134.5C 794.833,133.333 793.667,132.167 792.5,131C 747.585,129.51 702.585,129.01 657.5,129.5C 673.698,113.562 693.031,103.062 715.5,98C 749.816,90.9931 780.816,97.9931 808.5,119C 836.21,144.992 845.377,176.492 836,213.5C 824.904,245.761 804.071,269.428 773.5,284.5 Z"/></g>
<g><path style="opacity:1" fill="#e3def7" d="M 433.5,100.5 C 437.138,99.7366 438.638,101.07 438,104.5C 433.415,106.413 431.915,105.079 433.5,100.5 Z"/></g>
<g><path style="opacity:1" fill="#e3def8" d="M 453.5,100.5 C 457.138,99.7366 458.638,101.07 458,104.5C 453.415,106.413 451.915,105.079 453.5,100.5 Z"/></g>
<g><path style="opacity:1" fill="#e7e7f9" d="M 211.5,100.5 C 237.835,100.333 264.169,100.5 290.5,101C 293.033,103.084 293.033,105.084 290.5,107C 264.167,107.667 237.833,107.667 211.5,107C 208.939,104.844 208.939,102.677 211.5,100.5 Z"/></g>
<g><path style="opacity:0.924" fill="#b2cee7" d="M 584.5,105.5 C 587.187,105.336 589.854,105.503 592.5,106C 593.282,108.74 593.782,111.574 594,114.5C 598.349,117.611 601.849,116.778 604.5,112C 608.814,111.632 611.481,113.632 612.5,118C 610.833,120.333 609.167,122.667 607.5,125C 608,126.5 608.5,128 609,129.5C 612,130.167 615,130.833 618,131.5C 618.667,134.167 618.667,136.833 618,139.5C 615,140.167 612,140.833 609,141.5C 608.5,143 608,144.5 607.5,146C 609.167,148.333 610.833,150.667 612.5,153C 608.406,160.121 604.073,160.287 599.5,153.5C 597.677,154.747 595.677,155.414 593.5,155.5C 593.665,158.518 593.498,161.518 593,164.5C 584.974,166.979 581.808,163.979 583.5,155.5C 581.418,155.528 579.584,154.861 578,153.5C 575.838,157.368 572.672,158.868 568.5,158C 564.221,153.374 564.887,149.374 570.5,146C 569.139,144.416 568.472,142.582 568.5,140.5C 560.021,142.192 557.021,139.026 559.5,131C 562.482,130.502 565.482,130.335 568.5,130.5C 568.586,128.323 569.253,126.323 570.5,124.5C 563.713,119.927 563.879,115.594 571,111.5C 573.333,113.167 575.667,114.833 578,116.5C 579.5,116 581,115.5 582.5,115C 583.207,111.839 583.874,108.672 584.5,105.5 Z M 585.5,124.5 C 598.114,124.941 601.947,130.941 597,142.5C 587.441,148.813 580.941,146.48 577.5,135.5C 578.003,130.126 580.67,126.459 585.5,124.5 Z"/></g>
<g><path style="opacity:1" fill="#e7e8f9" d="M 431.5,113.5 C 435.683,116.246 440.35,117.913 445.5,118.5C 450.65,117.913 455.317,116.246 459.5,113.5C 459.703,115.39 459.037,116.89 457.5,118C 449.472,122.611 441.472,122.611 433.5,118C 431.963,116.89 431.297,115.39 431.5,113.5 Z"/></g>
<g><path style="opacity:1" fill="#f9f4fd" d="M 341.5,115.5 C 343.199,115.34 344.866,115.506 346.5,116C 347.113,118.147 347.779,120.314 348.5,122.5C 350.589,123.803 352.256,123.303 353.5,121C 356.259,120.023 358.259,120.856 359.5,123.5C 354.501,129.595 355.834,132.595 363.5,132.5C 363.5,134.5 363.5,136.5 363.5,138.5C 355.859,138.194 354.526,141.027 359.5,147C 357.485,150.873 355.151,151.206 352.5,148C 348.221,147.084 346.388,148.917 347,153.5C 345,156.167 343,156.167 341,153.5C 340.879,151.273 340.046,149.44 338.5,148C 335.833,148.667 333.167,149.333 330.5,150C 327.7,147.581 327.867,145.414 331,143.5C 331.667,142.167 331.667,140.833 331,139.5C 328.959,138.577 326.792,138.244 324.5,138.5C 324.5,136.5 324.5,134.5 324.5,132.5C 328.455,133.137 331.122,131.637 332.5,128C 326.871,123.611 327.538,121.278 334.5,121C 335.333,121.833 336.167,122.667 337,123.5C 338.011,122.663 339.178,122.33 340.5,122.5C 340.298,120.05 340.631,117.717 341.5,115.5 Z"/></g>
<g><path style="opacity:0.859" fill="#7a22db" d="M 341.5,127.5 C 348.368,127.53 351.535,130.864 351,137.5C 346.833,143.759 342.167,144.092 337,138.5C 335.393,133.438 336.893,129.772 341.5,127.5 Z"/></g>
<g><path style="opacity:0.999" fill="#00aeef" d="M 657.5,129.5 C 702.585,129.01 747.585,129.51 792.5,131C 793.667,132.167 794.833,133.333 796,134.5C 796.5,156.164 796.667,177.831 796.5,199.5C 768.349,210.657 740.349,221.99 712.5,233.5C 690.497,233.667 668.497,233.5 646.5,233C 644.714,232.215 643.214,231.049 642,229.5C 640.527,202.898 640.027,176.231 640.5,149.5C 636.439,134.221 642.106,127.554 657.5,129.5 Z"/></g>
<g><path style="opacity:1" fill="#faf6fd" d="M 261.5,134.5 C 262.873,134.343 264.207,134.51 265.5,135C 270.806,139.462 275.139,144.629 278.5,150.5C 275.891,154.284 273.057,157.951 270,161.5C 268.281,163.557 266.281,165.224 264,166.5C 261.681,165.591 261.014,163.925 262,161.5C 265.768,158.109 268.935,154.276 271.5,150C 268.716,146.213 265.549,142.713 262,139.5C 261.506,137.866 261.34,136.199 261.5,134.5 Z"/></g>
<g><path style="opacity:1" fill="#f2ecfa" d="M 248.5,132.5 C 250.948,132.01 252.615,132.843 253.5,135C 248.862,146.419 244.528,157.919 240.5,169.5C 237.739,170.085 236.073,169.085 235.5,166.5C 239.84,155.144 244.173,143.81 248.5,132.5 Z"/></g>
<g><path style="opacity:1" fill="#f2ecf8" d="M 222.5,134.5 C 224.167,134.5 225.833,134.5 227.5,134.5C 227.66,136.199 227.494,137.866 227,139.5C 223.5,143 220,146.5 216.5,150C 219.631,154.133 223.131,157.966 227,161.5C 227.986,163.925 227.319,165.591 225,166.5C 218.992,161.992 213.826,156.659 209.5,150.5C 213.88,145.129 218.213,139.795 222.5,134.5 Z"/></g>
<g><path style="opacity:1" fill="#d09af0" d="M 684.5,149.5 C 685.568,148.566 686.901,148.232 688.5,148.5C 688.923,150.781 688.256,152.448 686.5,153.5C 687.234,152.292 687.567,150.959 687.5,149.5C 686.5,149.5 685.5,149.5 684.5,149.5 Z"/></g>
<g><path style="opacity:1" fill="#e8e5fc" d="M 684.5,149.5 C 685.5,149.5 686.5,149.5 687.5,149.5C 687.567,150.959 687.234,152.292 686.5,153.5C 685.883,153.611 685.383,153.944 685,154.5C 684.667,160.5 684.333,166.5 684,172.5C 683.184,176.135 681.35,179.135 678.5,181.5C 680.848,184.199 682.682,187.199 684,190.5C 684.333,196.5 684.667,202.5 685,208.5C 686.669,210.169 687.502,212.169 687.5,214.5C 684.737,214.256 682.571,212.923 681,210.5C 679.775,203.245 679.108,195.911 679,188.5C 673,183.833 673,179.167 679,174.5C 679.333,167.5 679.667,160.5 680,153.5C 681.371,151.959 682.871,150.625 684.5,149.5 Z"/></g>
<g><path style="opacity:1" fill="#ebf3fe" d="M 749.5,149.5 C 752.923,149.128 755.423,150.461 757,153.5C 757.333,160.167 757.667,166.833 758,173.5C 760.063,176.054 761.897,178.72 763.5,181.5C 762.678,184.829 760.845,187.495 758,189.5C 757.892,196.911 757.225,204.245 756,211.5C 754.13,213.219 751.963,214.219 749.5,214.5C 749.373,211.755 750.54,209.755 753,208.5C 753.333,201.5 753.667,194.5 754,187.5C 756.018,185.65 757.851,183.65 759.5,181.5C 757.851,179.35 756.018,177.35 754,175.5C 753.667,168.5 753.333,161.5 753,154.5C 750.828,153.491 749.662,151.824 749.5,149.5 Z"/></g>
<g><path style="opacity:1" fill="#ecf4fe" d="M 702.5,166.5 C 709.246,166.897 714.579,169.897 718.5,175.5C 721.317,173.183 723.984,170.683 726.5,168C 736.534,165.369 741.034,169.202 740,179.5C 732.986,186.681 725.819,193.681 718.5,200.5C 710.444,193.613 703.278,185.946 697,177.5C 696.71,172.746 698.544,169.08 702.5,166.5 Z"/></g>
<g><path style="opacity:1" fill="#edf3fa" d="M 210.5,183.5 C 267.168,183.333 323.834,183.5 380.5,184C 381.833,185.667 381.833,187.333 380.5,189C 324.167,189.667 267.833,189.667 211.5,189C 209.365,187.444 209.032,185.611 210.5,183.5 Z"/></g>
<g><path style="opacity:0.951" fill="#282728" d="M 623.5,202.5 C 624.112,208.183 624.779,213.85 625.5,219.5C 624.017,217.906 622.517,216.24 621,214.5C 620.667,217.167 620.333,219.833 620,222.5C 616.813,211.317 610.98,209.65 602.5,217.5C 600.115,215.096 597.949,212.429 596,209.5C 595.461,212.529 594.794,215.529 594,218.5C 592.742,216.236 591.575,213.902 590.5,211.5C 589.611,215.462 587.611,218.629 584.5,221C 576.753,222.316 569.087,223.816 561.5,225.5C 561.155,216.214 563.322,207.547 568,199.5C 570.205,196.96 572.705,194.793 575.5,193C 572.929,192.099 570.596,190.766 568.5,189C 576.37,188.093 584.203,186.926 592,185.5C 595.637,185.487 598.637,186.82 601,189.5C 605.441,186.669 610.274,185.836 615.5,187C 607.565,189.219 607.565,191.553 615.5,194C 618.399,196.729 621.066,199.562 623.5,202.5 Z"/></g>
<g><path style="opacity:1" fill="#ab33e2" d="M 796.5,199.5 C 796.666,209.172 796.5,218.839 796,228.5C 795.5,230.333 794.333,231.5 792.5,232C 765.898,233.473 739.231,233.973 712.5,233.5C 740.349,221.99 768.349,210.657 796.5,199.5 Z"/></g>
<g><path style="opacity:1" fill="#e7e8f9" d="M 211.5,203.5 C 237.835,203.333 264.169,203.5 290.5,204C 293.167,206 293.167,208 290.5,210C 264.167,210.667 237.833,210.667 211.5,210C 208.939,207.844 208.939,205.677 211.5,203.5 Z"/></g>
<g><path style="opacity:0.995" fill="#ecf7fe" d="M 297.5,211.5 C 329.502,211.333 361.502,211.5 393.5,212C 390.96,214.205 388.793,216.705 387,219.5C 386.333,258.833 386.333,298.167 387,337.5C 389.221,343.865 393.721,347.198 400.5,347.5C 383.341,348.497 366.008,348.83 348.5,348.5C 349.947,339.771 352.947,331.604 357.5,324C 357.167,323.5 356.833,323 356.5,322.5C 351.162,330.496 347.162,339.163 344.5,348.5C 340.5,348.5 336.5,348.5 332.5,348.5C 335.966,334.372 337.466,320.039 337,305.5C 336.37,299.563 333.703,294.896 329,291.5C 327.108,291.777 325.775,292.777 325,294.5C 320.6,312.356 315.767,330.022 310.5,347.5C 309.5,347.5 308.5,347.5 307.5,347.5C 308.001,340.163 308.168,332.83 308,325.5C 306.156,328.533 305.156,331.866 305,335.5C 304.501,339.486 304.334,343.486 304.5,347.5C 296.378,348.553 290.878,345.22 288,337.5C 287.5,329.173 287.334,320.84 287.5,312.5C 287.5,305.5 287.5,298.5 287.5,291.5C 287.5,274.833 287.5,258.167 287.5,241.5C 287.5,241.167 287.5,240.833 287.5,240.5C 287.334,233.825 287.5,227.158 288,220.5C 289.744,215.921 292.91,212.921 297.5,211.5 Z"/></g>
<g><path style="opacity:1" fill="#c7d0fe" d="M 297.5,211.5 C 331.663,210.502 365.996,210.168 400.5,210.5C 400.5,220.833 400.5,231.167 400.5,241.5C 400.5,276.833 400.5,312.167 400.5,347.5C 393.721,347.198 389.221,343.865 387,337.5C 386.333,298.167 386.333,258.833 387,219.5C 388.793,216.705 390.96,214.205 393.5,212C 361.502,211.5 329.502,211.333 297.5,211.5 Z"/></g>
<g><path style="opacity:1" fill="#622ae4" d="M 180.5,186.5 C 180.333,202.837 180.5,219.17 181,235.5C 181.583,237.002 182.416,238.335 183.5,239.5C 218.123,240.493 252.79,240.826 287.5,240.5C 287.5,240.833 287.5,241.167 287.5,241.5C 281.5,241.5 275.5,241.5 269.5,241.5C 269.5,245.5 269.5,249.5 269.5,253.5C 241.833,253.5 214.167,253.5 186.5,253.5C 188.062,251.099 187.729,249.099 185.5,247.5C 180.025,246.511 174.358,246.178 168.5,246.5C 168.5,226.5 168.5,206.5 168.5,186.5C 172.5,186.5 176.5,186.5 180.5,186.5 Z"/></g>
<g><path style="opacity:0.995" fill="#171616" d="M 625.5,219.5 C 625.5,220.833 625.5,222.167 625.5,223.5C 623.773,229.64 621.439,235.64 618.5,241.5C 614.705,242.041 612.705,240.375 612.5,236.5C 613.496,233.203 613.663,229.869 613,226.5C 611.959,224.689 610.793,224.355 609.5,225.5C 607.581,228.042 605.748,230.709 604,233.5C 602,230.833 600,228.167 598,225.5C 594.109,232.9 588.276,237.9 580.5,240.5C 579.761,240.631 579.094,240.464 578.5,240C 582.814,238.354 585.648,235.52 587,231.5C 584.099,235.025 580.599,237.692 576.5,239.5C 570.268,243.293 565.768,241.96 563,235.5C 562.174,232.207 561.674,228.874 561.5,225.5C 569.087,223.816 576.753,222.316 584.5,221C 587.611,218.629 589.611,215.462 590.5,211.5C 591.575,213.902 592.742,216.236 594,218.5C 594.794,215.529 595.461,212.529 596,209.5C 597.949,212.429 600.115,215.096 602.5,217.5C 610.98,209.65 616.813,211.317 620,222.5C 620.333,219.833 620.667,217.167 621,214.5C 622.517,216.24 624.017,217.906 625.5,219.5 Z"/></g>
<g><path style="opacity:1" fill="#00aeef" d="M 180.5,185.5 C 180.5,185.833 180.5,186.167 180.5,186.5C 176.5,186.5 172.5,186.5 168.5,186.5C 168.5,206.5 168.5,226.5 168.5,246.5C 174.358,246.178 180.025,246.511 185.5,247.5C 156.831,247.333 128.165,247.5 99.5,248C 98.1667,249.667 98.1667,251.333 99.5,253C 128.498,253.5 157.498,253.667 186.5,253.5C 214.167,253.5 241.833,253.5 269.5,253.5C 269.5,267.833 269.5,282.167 269.5,296.5C 264.979,296.502 260.479,296.836 256,297.5C 250.964,295.83 245.798,295.33 240.5,296C 236.674,298.178 232.674,299.845 228.5,301C 209.167,303.333 189.833,305.667 170.5,308C 175.684,308.174 180.684,308.674 185.5,309.5C 156.831,309.333 128.165,309.5 99.5,310C 98.1667,311.667 98.1667,313.333 99.5,315C 128.165,315.5 156.831,315.667 185.5,315.5C 156.003,316.332 126.336,316.832 96.5,317C 92.8086,317.42 89.1419,317.92 85.5,318.5C 85.0109,275.415 85.5109,232.415 87,189.5C 88.5793,187.959 90.4127,186.792 92.5,186C 121.831,185.5 151.165,185.333 180.5,185.5 Z"/></g>
<g><path style="opacity:1" fill="#e6ebfd" d="M 99.5,224.5 C 121.169,224.333 142.836,224.5 164.5,225C 167.167,227 167.167,229 164.5,231C 142.833,231.667 121.167,231.667 99.5,231C 98.232,228.837 98.232,226.67 99.5,224.5 Z"/></g>
<g><path style="opacity:1" fill="#d0d5ed" d="M 99.5,202.5 C 121.503,202.333 143.503,202.5 165.5,203C 166.935,205.267 166.602,207.267 164.5,209C 142.833,209.667 121.167,209.667 99.5,209C 98.232,206.837 98.232,204.67 99.5,202.5 Z"/></g>
<g><path style="opacity:1" fill="#ef7362" d="M 609.5,225.5 C 609.938,225.435 610.272,225.601 610.5,226C 608.796,228.949 607.462,232.115 606.5,235.5C 603.253,236.966 600.92,235.966 599.5,232.5C 596.339,235.491 593.005,238.325 589.5,241C 586.304,241.805 583.304,241.638 580.5,240.5C 588.276,237.9 594.109,232.9 598,225.5C 600,228.167 602,230.833 604,233.5C 605.748,230.709 607.581,228.042 609.5,225.5 Z"/></g>
<g><path style="opacity:0.985" fill="#f99d8e" d="M 609.5,225.5 C 610.793,224.355 611.959,224.689 613,226.5C 613.663,229.869 613.496,233.203 612.5,236.5C 612.705,240.375 614.705,242.041 618.5,241.5C 618.342,244.902 618.676,248.236 619.5,251.5C 619.907,254.7 619.407,258.033 618,261.5C 615.65,267.729 611.817,268.895 606.5,265C 604.561,263.568 603.228,261.735 602.5,259.5C 606.485,257.84 609.151,254.84 610.5,250.5C 600.226,248.177 589.892,246.177 579.5,244.5C 577.75,243.341 576.75,241.674 576.5,239.5C 580.599,237.692 584.099,235.025 587,231.5C 585.648,235.52 582.814,238.354 578.5,240C 579.094,240.464 579.761,240.631 580.5,240.5C 583.304,241.638 586.304,241.805 589.5,241C 593.005,238.325 596.339,235.491 599.5,232.5C 600.92,235.966 603.253,236.966 606.5,235.5C 607.462,232.115 608.796,228.949 610.5,226C 610.272,225.601 609.938,225.435 609.5,225.5 Z"/></g>
<g><path style="opacity:1" fill="#6f45fe" d="M 287.5,241.5 C 287.5,258.167 287.5,274.833 287.5,291.5C 286.18,286.577 284.68,281.577 283,276.5C 278.946,268.366 274.446,260.699 269.5,253.5C 269.5,249.5 269.5,245.5 269.5,241.5C 275.5,241.5 281.5,241.5 287.5,241.5 Z"/></g>
<g><path style="opacity:1" fill="#fcab9e" d="M 579.5,244.5 C 589.892,246.177 600.226,248.177 610.5,250.5C 609.151,254.84 606.485,257.84 602.5,259.5C 601.5,259.5 600.5,259.5 599.5,259.5C 598.5,259.5 597.5,259.5 596.5,259.5C 596.167,259.5 595.833,259.5 595.5,259.5C 588.888,255.889 583.554,250.889 579.5,244.5 Z"/></g>
<g><path style="opacity:1" fill="#cddef5" d="M 185.5,247.5 C 187.729,249.099 188.062,251.099 186.5,253.5C 157.498,253.667 128.498,253.5 99.5,253C 98.1667,251.333 98.1667,249.667 99.5,248C 128.165,247.5 156.831,247.333 185.5,247.5 Z"/></g>
<g><path style="opacity:1" fill="#1c4bb4" d="M 619.5,251.5 C 620.833,251.5 622.167,251.5 623.5,251.5C 624.316,257.691 622.983,263.358 619.5,268.5C 608.977,274.24 602.311,271.24 599.5,259.5C 600.5,259.5 601.5,259.5 602.5,259.5C 603.228,261.735 604.561,263.568 606.5,265C 611.817,268.895 615.65,267.729 618,261.5C 619.407,258.033 619.907,254.7 619.5,251.5 Z"/></g>
<g><path style="opacity:1" fill="#3755f9" d="M 623.5,251.5 C 628.167,251.5 632.833,251.5 637.5,251.5C 638.551,252.222 639.218,253.222 639.5,254.5C 632.671,272.73 620.004,278.563 601.5,272C 596.56,268.978 594.894,264.811 596.5,259.5C 597.5,259.5 598.5,259.5 599.5,259.5C 602.311,271.24 608.977,274.24 619.5,268.5C 622.983,263.358 624.316,257.691 623.5,251.5 Z"/></g>
<g><path style="opacity:1" fill="#6b42fe" d="M 642.5,258.5 C 648.91,266.246 656.243,272.913 664.5,278.5C 665.167,278.5 665.5,278.833 665.5,279.5C 666.834,284.501 668.167,289.501 669.5,294.5C 667.754,296.252 665.754,297.585 663.5,298.5C 662.642,292.983 661.809,287.317 661,281.5C 660.612,280.572 659.945,279.905 659,279.5C 652.984,282.925 646.817,285.925 640.5,288.5C 640.073,285.99 639.407,283.657 638.5,281.5C 637.479,275.87 637.313,270.204 638,264.5C 638.792,261.894 640.292,259.894 642.5,258.5 Z"/></g>
<g><path style="opacity:1" fill="#684ffe" d="M 269.5,253.5 C 274.446,260.699 278.946,268.366 283,276.5C 284.68,281.577 286.18,286.577 287.5,291.5C 287.5,298.5 287.5,305.5 287.5,312.5C 284.342,327.646 277.342,340.813 266.5,352C 262.451,355.352 258.118,358.185 253.5,360.5C 251.379,355.375 247.712,352.041 242.5,350.5C 242.5,350.167 242.5,349.833 242.5,349.5C 249.383,345.949 255.383,341.282 260.5,335.5C 264.749,335.308 267.583,333.308 269,329.5C 269.5,318.505 269.667,307.505 269.5,296.5C 269.5,282.167 269.5,267.833 269.5,253.5 Z"/></g>
<g><path style="opacity:1" fill="#fefdfe" d="M 142.5,267.5 C 143.5,267.5 144.5,267.5 145.5,267.5C 145.5,271.5 145.5,275.5 145.5,279.5C 148.167,279.5 150.833,279.5 153.5,279.5C 153.5,275.5 153.5,271.5 153.5,267.5C 154.5,267.5 155.5,267.5 156.5,267.5C 156.5,276.833 156.5,286.167 156.5,295.5C 155.5,295.5 154.5,295.5 153.5,295.5C 153.5,291.167 153.5,286.833 153.5,282.5C 150.833,282.5 148.167,282.5 145.5,282.5C 145.5,286.833 145.5,291.167 145.5,295.5C 144.5,295.5 143.5,295.5 142.5,295.5C 142.5,286.167 142.5,276.833 142.5,267.5 Z"/></g>
<g><path style="opacity:1" fill="#fcfafe" d="M 160.5,267.5 C 164.884,267.174 169.217,267.508 173.5,268.5C 172.332,270.217 170.665,270.884 168.5,270.5C 168.5,278.833 168.5,287.167 168.5,295.5C 167.5,295.5 166.5,295.5 165.5,295.5C 165.5,287.167 165.5,278.833 165.5,270.5C 163.833,270.5 162.167,270.5 160.5,270.5C 160.5,269.5 160.5,268.5 160.5,267.5 Z"/></g>
<g><path style="opacity:1" fill="#f2eafd" d="M 177.5,267.5 C 179.451,267.227 180.951,267.893 182,269.5C 183.511,275.877 185.177,282.21 187,288.5C 188.662,281.519 190.162,274.519 191.5,267.5C 193.167,267.5 194.833,267.5 196.5,267.5C 196.745,276.837 197.078,286.171 197.5,295.5C 196.5,295.5 195.5,295.5 194.5,295.5C 194.332,288.148 193.832,280.815 193,273.5C 191.446,281.059 189.279,288.392 186.5,295.5C 183.755,288.007 181.589,280.34 180,272.5C 179.667,279.833 179.333,287.167 179,294.5C 178.586,294.957 178.086,295.291 177.5,295.5C 176.349,286.166 176.349,276.833 177.5,267.5 Z"/></g>
<g><path style="opacity:1" fill="#eee3fc" d="M 201.5,267.5 C 202.833,267.5 204.167,267.5 205.5,267.5C 205.334,275.84 205.5,284.173 206,292.5C 208.147,293.113 210.314,293.779 212.5,294.5C 208.893,295.489 205.226,295.823 201.5,295.5C 201.5,286.167 201.5,276.833 201.5,267.5 Z"/></g>
<g><path style="opacity:1" fill="#6261ff" d="M 327.5,255.5 C 332.133,254.458 335.299,256.125 337,260.5C 339.368,267.057 338.202,272.89 333.5,278C 327.133,278.984 323.633,276.15 323,269.5C 322.2,264.068 323.7,259.401 327.5,255.5 Z"/></g>
<g><path style="opacity:1" fill="#f54dfe" d="M 766.5,284.5 C 764.5,284.5 762.5,284.5 760.5,284.5C 759.883,282.32 758.883,280.32 757.5,278.5C 743.841,274.637 737.841,279.637 739.5,293.5C 739.5,293.833 739.5,294.167 739.5,294.5C 737.167,294.5 734.833,294.5 732.5,294.5C 729.574,283.59 733.24,275.757 743.5,271C 755.285,268.881 762.952,273.381 766.5,284.5 Z"/></g>
<g><path style="opacity:1" fill="#5069fb" d="M 639.5,254.5 C 641.262,255.262 642.262,256.596 642.5,258.5C 640.292,259.894 638.792,261.894 638,264.5C 637.313,270.204 637.479,275.87 638.5,281.5C 638.5,282.833 638.5,284.167 638.5,285.5C 620.958,288.608 603.625,292.608 586.5,297.5C 584.479,290.729 582.479,284.062 580.5,277.5C 580.491,275.692 580.991,274.025 582,272.5C 586.369,267.963 590.869,263.63 595.5,259.5C 595.833,259.5 596.167,259.5 596.5,259.5C 594.894,264.811 596.56,268.978 601.5,272C 620.004,278.563 632.671,272.73 639.5,254.5 Z"/></g>
<g><path style="opacity:1" fill="#ff79fe" d="M 760.5,284.5 C 757.833,284.5 755.167,284.5 752.5,284.5C 752.03,283.307 751.03,282.64 749.5,282.5C 744.229,284.511 743.229,287.845 746.5,292.5C 744.784,292.629 743.117,292.962 741.5,293.5C 740.833,293.5 740.167,293.5 739.5,293.5C 737.841,279.637 743.841,274.637 757.5,278.5C 758.883,280.32 759.883,282.32 760.5,284.5 Z"/></g>
<g><path style="opacity:0.882" fill="#fefdfe" d="M 752.5,284.5 C 755.167,284.5 757.833,284.5 760.5,284.5C 762.5,284.5 764.5,284.5 766.5,284.5C 768.833,284.5 771.167,284.5 773.5,284.5C 787.504,284.333 801.504,284.5 815.5,285C 816.576,286.726 816.743,288.559 816,290.5C 799.577,291.492 783.077,291.825 766.5,291.5C 760.315,290.548 753.982,290.382 747.5,291C 745.789,289.867 745.289,288.367 746,286.5C 747.789,284.771 749.956,284.104 752.5,284.5 Z"/></g>
<g><path style="opacity:1" fill="#6154fd" d="M 663.5,298.5 C 659.507,301.163 655.173,303.33 650.5,305C 649.748,305.671 649.414,306.504 649.5,307.5C 648.215,306.215 646.881,304.881 645.5,303.5C 644.583,304.127 643.583,304.461 642.5,304.5C 641.942,299.115 641.275,293.782 640.5,288.5C 646.817,285.925 652.984,282.925 659,279.5C 659.945,279.905 660.612,280.572 661,281.5C 661.809,287.317 662.642,292.983 663.5,298.5 Z"/></g>
<g><path style="opacity:1" fill="#5860fc" d="M 638.5,281.5 C 639.407,283.657 640.073,285.99 640.5,288.5C 641.275,293.782 641.942,299.115 642.5,304.5C 626.386,309.052 610.052,312.719 593.5,315.5C 592.289,309.076 589.956,303.076 586.5,297.5C 603.625,292.608 620.958,288.608 638.5,285.5C 638.5,284.167 638.5,282.833 638.5,281.5 Z"/></g>
<g><path style="opacity:0.991" fill="#9cacf1" d="M 332.5,348.5 C 330.567,357.295 328.234,365.962 325.5,374.5C 319.355,375.49 313.022,375.823 306.5,375.5C 306.143,367.313 306.143,359.313 306.5,351.5C 306.337,353.857 306.503,356.19 307,358.5C 308.674,354.979 309.84,351.313 310.5,347.5C 315.767,330.022 320.6,312.356 325,294.5C 325.775,292.777 327.108,291.777 329,291.5C 333.703,294.896 336.37,299.563 337,305.5C 337.466,320.039 335.966,334.372 332.5,348.5 Z"/></g>
<g><path style="opacity:1" fill="#d7b3f4" d="M 752.5,284.5 C 749.956,284.104 747.789,284.771 746,286.5C 745.289,288.367 745.789,289.867 747.5,291C 753.982,290.382 760.315,290.548 766.5,291.5C 764.5,291.5 762.5,291.5 760.5,291.5C 759.833,291.5 759.167,291.5 758.5,291.5C 755.841,292.485 753.174,293.485 750.5,294.5C 748.645,294.66 747.312,293.993 746.5,292.5C 743.229,287.845 744.229,284.511 749.5,282.5C 751.03,282.64 752.03,283.307 752.5,284.5 Z"/></g>
<g><path style="opacity:0.998" fill="#7f3aef" d="M 269.5,296.5 C 269.667,307.505 269.5,318.505 269,329.5C 267.583,333.308 264.749,335.308 260.5,335.5C 257.167,335.5 253.833,335.5 250.5,335.5C 229.833,335.5 209.167,335.5 188.5,335.5C 185.167,335.5 181.833,335.5 178.5,335.5C 172.5,335.5 166.5,335.5 160.5,335.5C 144.833,335.5 129.167,335.5 113.5,335.5C 105.057,335.938 96.7233,335.438 88.5,334C 87.2986,333.097 86.4652,331.931 86,330.5C 85.5012,326.514 85.3345,322.514 85.5,318.5C 89.1419,317.92 92.8086,317.42 96.5,317C 126.336,316.832 156.003,316.332 185.5,315.5C 188.167,313.5 188.167,311.5 185.5,309.5C 180.684,308.674 175.684,308.174 170.5,308C 189.833,305.667 209.167,303.333 228.5,301C 232.674,299.845 236.674,298.178 240.5,296C 245.798,295.33 250.964,295.83 256,297.5C 260.479,296.836 264.979,296.502 269.5,296.5 Z"/></g>
<g><path style="opacity:1" fill="#ab86ea" d="M 758.5,291.5 C 755.34,298.048 750.34,299.881 743.5,297C 742.177,296.184 741.511,295.017 741.5,293.5C 743.117,292.962 744.784,292.629 746.5,292.5C 747.312,293.993 748.645,294.66 750.5,294.5C 753.174,293.485 755.841,292.485 758.5,291.5 Z"/></g>
<g><path style="opacity:1" fill="#7e45e2" d="M 760.5,291.5 C 762.5,291.5 764.5,291.5 766.5,291.5C 765.891,295.385 764.224,298.718 761.5,301.5C 761.167,301.5 760.833,301.5 760.5,301.5C 758.801,301.66 757.134,301.494 755.5,301C 758.33,298.365 759.996,295.199 760.5,291.5 Z"/></g>
<g><path style="opacity:1" fill="#7436e0" d="M 732.5,294.5 C 734.833,294.5 737.167,294.5 739.5,294.5C 740.148,296.086 740.648,297.753 741,299.5C 743.463,300.032 745.297,301.366 746.5,303.5C 746.672,304.492 746.338,305.158 745.5,305.5C 739.039,304.374 734.706,300.707 732.5,294.5 Z"/></g>
<g><path style="opacity:1" fill="#f37e70" d="M 669.5,294.5 C 669.833,296.5 670.167,298.5 670.5,300.5C 669.455,303.385 667.455,305.552 664.5,307C 659.937,308.475 655.27,309.308 650.5,309.5C 650.167,308.833 649.833,308.167 649.5,307.5C 649.414,306.504 649.748,305.671 650.5,305C 655.173,303.33 659.507,301.163 663.5,298.5C 665.754,297.585 667.754,296.252 669.5,294.5 Z"/></g>
<g><path style="opacity:1" fill="#9160e5" d="M 758.5,291.5 C 759.167,291.5 759.833,291.5 760.5,291.5C 759.996,295.199 758.33,298.365 755.5,301C 757.134,301.494 758.801,301.66 760.5,301.5C 755.936,302.216 751.269,302.883 746.5,303.5C 745.297,301.366 743.463,300.032 741,299.5C 740.648,297.753 740.148,296.086 739.5,294.5C 739.5,294.167 739.5,293.833 739.5,293.5C 740.167,293.5 740.833,293.5 741.5,293.5C 741.511,295.017 742.177,296.184 743.5,297C 750.34,299.881 755.34,298.048 758.5,291.5 Z"/></g>
<g><path style="opacity:0.83" fill="#fefefe" d="M 760.5,301.5 C 760.833,301.5 761.167,301.5 761.5,301.5C 779.17,301.333 796.836,301.5 814.5,302C 816.698,303.67 817.032,305.67 815.5,308C 792.493,308.833 769.493,308.666 746.5,307.5C 746.137,306.817 745.804,306.15 745.5,305.5C 746.338,305.158 746.672,304.492 746.5,303.5C 751.269,302.883 755.936,302.216 760.5,301.5 Z"/></g>
<g><path style="opacity:0.009" fill="#000000" d="M 890.5,304.5 C 891.573,305.251 891.74,306.251 891,307.5C 890.517,306.552 890.351,305.552 890.5,304.5 Z"/></g>
<g><path style="opacity:1" fill="#4e42fc" d="M 649.5,307.5 C 649.833,308.167 650.167,308.833 650.5,309.5C 651.578,312.402 652.244,315.402 652.5,318.5C 652.53,319.497 652.03,320.164 651,320.5C 648.273,321.063 645.607,321.73 643,322.5C 642.501,316.509 642.334,310.509 642.5,304.5C 643.583,304.461 644.583,304.127 645.5,303.5C 646.881,304.881 648.215,306.215 649.5,307.5 Z"/></g>
<g><path style="opacity:0.955" fill="#5b60fd" d="M 576.5,302.5 C 580.033,302.505 583.2,303.505 586,305.5C 586.499,311.157 586.666,316.824 586.5,322.5C 589.992,322.446 592.992,323.446 595.5,325.5C 588.709,324.887 582.376,322.887 576.5,319.5C 575.883,319.389 575.383,319.056 575,318.5C 574.518,313.049 575.018,307.716 576.5,302.5 Z"/></g>
<g><path style="opacity:0.034" fill="#000000" d="M 889.5,311.5 C 889.351,310.448 889.517,309.448 890,308.5C 890.74,309.749 890.573,310.749 889.5,311.5 Z"/></g>
<g><path style="opacity:1" fill="#cfdff5" d="M 185.5,309.5 C 188.167,311.5 188.167,313.5 185.5,315.5C 156.831,315.667 128.165,315.5 99.5,315C 98.1667,313.333 98.1667,311.667 99.5,310C 128.165,309.5 156.831,309.333 185.5,309.5 Z"/></g>
<g><path style="opacity:1" fill="#f2f8fe" d="M 239.5,308.5 C 242.187,308.336 244.854,308.503 247.5,309C 250.167,311.667 250.167,314.333 247.5,317C 244.843,317.175 242.176,317.008 239.5,316.5C 238.5,316.5 237.5,316.5 236.5,316.5C 224.884,315.542 213.217,315.209 201.5,315.5C 199.353,314.068 199.02,312.235 200.5,310C 210.494,309.5 220.494,309.334 230.5,309.5C 233.545,309.492 236.545,309.159 239.5,308.5 Z"/></g>
<g><path style="opacity:0.995" fill="#ecf7ff" d="M 561.5,312.5 C 566.675,335.868 572.175,359.201 578,382.5C 578.711,384.899 578.544,387.232 577.5,389.5C 538.839,390.5 500.172,390.833 461.5,390.5C 458.812,389.976 457.312,388.309 457,385.5C 451.333,362.167 445.667,338.833 440,315.5C 439.257,313.559 439.424,311.726 440.5,310C 480.504,309.167 520.504,309.333 560.5,310.5C 560.863,311.183 561.196,311.85 561.5,312.5 Z"/></g>
<g><path style="opacity:1" fill="#b457fe" d="M 201.5,315.5 C 213.217,315.209 224.884,315.542 236.5,316.5C 238.958,322.207 243.291,324.041 249.5,322C 255.413,317.029 256.079,311.362 251.5,305C 248.852,301.887 245.519,300.887 241.5,302C 238.589,304.731 235.256,306.898 231.5,308.5C 234.473,299.986 240.473,296.82 249.5,299C 259.198,303.746 262.031,311.246 258,321.5C 250.017,329.129 241.684,329.462 233,322.5C 231.872,320.655 231.372,318.655 231.5,316.5C 221.319,316.827 211.319,316.494 201.5,315.5 Z"/></g>
<g><path style="opacity:0.043" fill="#000000" d="M 889.5,311.5 C 889.768,313.099 889.434,314.432 888.5,315.5C 888.232,313.901 888.566,312.568 889.5,311.5 Z"/></g>
<g><path style="opacity:0.953" fill="#c7cffd" d="M 561.5,312.5 C 562.496,312.414 563.329,312.748 564,313.5C 566.37,322.662 568.87,331.662 571.5,340.5C 572.866,349.966 574.866,359.299 577.5,368.5C 578.015,370.894 578.681,373.228 579.5,375.5C 579.433,376.959 579.766,378.292 580.5,379.5C 580.629,381.216 580.962,382.883 581.5,384.5C 581.945,387.28 581.945,389.947 581.5,392.5C 541.839,393.5 502.172,393.833 462.5,393.5C 461.89,392.609 461.557,391.609 461.5,390.5C 500.172,390.833 538.839,390.5 577.5,389.5C 578.544,387.232 578.711,384.899 578,382.5C 572.175,359.201 566.675,335.868 561.5,312.5 Z"/></g>
<g><path style="opacity:1" fill="#5d53fb" d="M 580.5,277.5 C 582.479,284.062 584.479,290.729 586.5,297.5C 589.956,303.076 592.289,309.076 593.5,315.5C 610.052,312.719 626.386,309.052 642.5,304.5C 642.334,310.509 642.501,316.509 643,322.5C 645.607,321.73 648.273,321.063 651,320.5C 652.03,320.164 652.53,319.497 652.5,318.5C 653.345,319.671 654.011,321.005 654.5,322.5C 635.46,327.061 616.46,331.728 597.5,336.5C 597.5,336.167 597.5,335.833 597.5,335.5C 597.46,332.012 596.793,328.679 595.5,325.5C 592.992,323.446 589.992,322.446 586.5,322.5C 586.666,316.824 586.499,311.157 586,305.5C 583.2,303.505 580.033,302.505 576.5,302.5C 577.081,294.013 578.415,285.679 580.5,277.5 Z"/></g>
<g><path style="opacity:0.078" fill="#32094c" d="M 841.5,385.5 C 841.5,387.167 841.5,388.833 841.5,390.5C 840.833,390.5 840.5,390.833 840.5,391.5C 839.5,400.832 838.5,410.166 837.5,419.5C 836.662,419.842 836.328,420.508 836.5,421.5C 836.5,422.167 836.5,422.833 836.5,423.5C 823.397,470.397 805.23,515.397 782,558.5C 771.142,578.221 760.309,597.888 749.5,617.5C 749.167,617.5 748.833,617.5 748.5,617.5C 745.5,617.5 742.5,617.5 739.5,617.5C 739.811,589.919 737.477,562.586 732.5,535.5C 730.677,524.054 728.344,512.72 725.5,501.5C 723.79,494.642 721.79,487.975 719.5,481.5C 716.662,469.978 712.662,458.978 707.5,448.5C 702.252,434.005 695.919,420.005 688.5,406.5C 710.503,406.667 732.503,406.5 754.5,406C 759.342,402.306 759.675,398.306 755.5,394C 729.502,393.5 703.502,393.333 677.5,393.5C 676.167,393.5 674.833,393.5 673.5,393.5C 672.662,384.795 671.495,376.128 670,367.5C 669.722,368.416 669.222,369.082 668.5,369.5C 668.825,362.38 668.159,355.38 666.5,348.5C 691.12,336.014 716.787,326.181 743.5,319C 761.043,314.222 778.709,313.556 796.5,317C 818.89,322.39 833.057,336.223 839,358.5C 840.874,367.403 841.707,376.403 841.5,385.5 Z"/></g>
<g><path style="opacity:0.148" fill="#000000" d="M 888.5,315.5 C 877.9,357.567 868.4,399.901 860,442.5C 859.025,449.491 858.192,456.491 857.5,463.5C 856.5,463.5 855.5,463.5 854.5,463.5C 856.773,443.301 860.273,423.301 865,403.5C 871.926,373.789 879.759,344.455 888.5,315.5 Z"/></g>
<g><path style="opacity:1" fill="#ffa4ff" d="M 239.5,316.5 C 242.176,317.008 244.843,317.175 247.5,317C 250.167,314.333 250.167,311.667 247.5,309C 244.854,308.503 242.187,308.336 239.5,308.5C 239.574,306.589 240.574,305.422 242.5,305C 244.81,304.503 247.143,304.337 249.5,304.5C 253.445,311.78 251.778,317.113 244.5,320.5C 241.623,320.619 239.956,319.286 239.5,316.5 Z"/></g>
<g><path style="opacity:1" fill="#f376ff" d="M 236.5,316.5 C 237.5,316.5 238.5,316.5 239.5,316.5C 239.956,319.286 241.623,320.619 244.5,320.5C 251.778,317.113 253.445,311.78 249.5,304.5C 247.143,304.337 244.81,304.503 242.5,305C 240.574,305.422 239.574,306.589 239.5,308.5C 236.545,309.159 233.545,309.492 230.5,309.5C 230.5,308.833 230.833,308.5 231.5,308.5C 235.256,306.898 238.589,304.731 241.5,302C 245.519,300.887 248.852,301.887 251.5,305C 256.079,311.362 255.413,317.029 249.5,322C 243.291,324.041 238.958,322.207 236.5,316.5 Z"/></g>
<g><path style="opacity:0.879" fill="#1695fb" d="M 348.5,348.5 C 345.56,356.926 343.56,365.593 342.5,374.5C 340.764,380.589 339.764,386.922 339.5,393.5C 339.5,397.833 339.5,402.167 339.5,406.5C 338.747,433.142 342.413,459.142 350.5,484.5C 350.604,486.703 351.27,488.703 352.5,490.5C 352.5,491.167 352.833,491.5 353.5,491.5C 353.433,492.959 353.766,494.292 354.5,495.5C 355.772,501.371 358.106,506.704 361.5,511.5C 370.992,529.994 384.659,544.661 402.5,555.5C 402.973,556.906 403.973,557.573 405.5,557.5C 405.5,557.833 405.5,558.167 405.5,558.5C 404.508,558.328 403.842,558.662 403.5,559.5C 402.609,558.89 401.609,558.557 400.5,558.5C 384.167,548.167 370.833,534.833 360.5,518.5C 358.403,513.311 356.07,508.311 353.5,503.5C 351.498,497.828 349.498,492.162 347.5,486.5C 347.606,483.921 346.939,481.588 345.5,479.5C 338.646,455.669 335.313,431.336 335.5,406.5C 336.485,402.366 336.818,398.032 336.5,393.5C 337.085,387.157 337.751,380.824 338.5,374.5C 340.185,365.761 342.185,357.095 344.5,348.5C 347.162,339.163 351.162,330.496 356.5,322.5C 356.833,323 357.167,323.5 357.5,324C 352.947,331.604 349.947,339.771 348.5,348.5 Z"/></g>
<g><path style="opacity:0.885" fill="#6bd3fe" d="M 307.5,347.5 C 306.566,348.568 306.232,349.901 306.5,351.5C 306.143,359.313 306.143,367.313 306.5,375.5C 306.701,381.509 307.034,387.509 307.5,393.5C 308.645,402.062 310.312,410.395 312.5,418.5C 317.531,442.239 328.531,462.573 345.5,479.5C 346.939,481.588 347.606,483.921 347.5,486.5C 336.575,476.623 327.575,465.29 320.5,452.5C 319.892,449.673 318.892,447.007 317.5,444.5C 314.417,437.575 311.751,430.575 309.5,423.5C 309.42,417.875 308.42,412.542 306.5,407.5C 306.5,407.167 306.5,406.833 306.5,406.5C 306.574,402.016 305.907,397.683 304.5,393.5C 304.72,386.457 304.386,379.457 303.5,372.5C 303.5,369.833 303.5,367.167 303.5,364.5C 304.407,358.894 304.74,353.227 304.5,347.5C 304.334,343.486 304.501,339.486 305,335.5C 305.156,331.866 306.156,328.533 308,325.5C 308.168,332.83 308.001,340.163 307.5,347.5 Z"/></g>
<g><path style="opacity:1" fill="#f57e6c" d="M 576.5,319.5 C 582.376,322.887 588.709,324.887 595.5,325.5C 596.793,328.679 597.46,332.012 597.5,335.5C 596.13,338.619 595.13,341.952 594.5,345.5C 586.551,339.914 580.217,332.914 575.5,324.5C 575.366,322.708 575.699,321.042 576.5,319.5 Z"/></g>
<g><path style="opacity:0.98" fill="#faa497" d="M 670.5,300.5 C 674.902,312.354 677.069,324.687 677,337.5C 673.342,340.066 669.842,342.732 666.5,345.5C 656.746,350.211 647.079,355.211 637.5,360.5C 633.374,358.603 629.374,356.436 625.5,354C 627.057,351.045 628.724,348.212 630.5,345.5C 638.935,338.909 647.268,332.076 655.5,325C 654.748,324.329 654.414,323.496 654.5,322.5C 654.011,321.005 653.345,319.671 652.5,318.5C 652.244,315.402 651.578,312.402 650.5,309.5C 655.27,309.308 659.937,308.475 664.5,307C 667.455,305.552 669.455,303.385 670.5,300.5 Z"/></g>
<g><path style="opacity:0.981" fill="#7341ff" d="M 287.5,312.5 C 287.334,320.84 287.5,329.173 288,337.5C 290.878,345.22 296.378,348.553 304.5,347.5C 304.74,353.227 304.407,358.894 303.5,364.5C 299.5,367.833 295.833,371.5 292.5,375.5C 291.833,375.5 291.5,375.833 291.5,376.5C 290.167,377.167 289.167,378.167 288.5,379.5C 287.833,379.5 287.5,379.833 287.5,380.5C 280.828,384.841 274.162,389.174 267.5,393.5C 262.156,393.334 256.823,393.501 251.5,394C 248.461,395.577 247.128,398.077 247.5,401.5C 212.031,412.567 178.698,408.067 147.5,388C 129.75,374.67 118.417,357.17 113.5,335.5C 129.167,335.5 144.833,335.5 160.5,335.5C 162.904,340.628 166.071,345.295 170,349.5C 175.966,354.552 182.133,359.218 188.5,363.5C 170.83,363.333 153.164,363.5 135.5,364C 134.02,366.235 134.353,368.068 136.5,369.5C 164.328,370.498 192.328,370.831 220.5,370.5C 223.674,381.595 231.007,385.762 242.5,383C 252.19,378.423 255.857,370.923 253.5,360.5C 258.118,358.185 262.451,355.352 266.5,352C 277.342,340.813 284.342,327.646 287.5,312.5 Z"/></g>
<g><path style="opacity:1" fill="#6552ff" d="M 160.5,335.5 C 166.5,335.5 172.5,335.5 178.5,335.5C 190.279,349.217 205.279,355.55 223.5,354.5C 221.356,357.122 220.023,360.122 219.5,363.5C 209.167,363.5 198.833,363.5 188.5,363.5C 182.133,359.218 175.966,354.552 170,349.5C 166.071,345.295 162.904,340.628 160.5,335.5 Z"/></g>
<g><path style="opacity:1" fill="#5f5aff" d="M 178.5,335.5 C 181.833,335.5 185.167,335.5 188.5,335.5C 202.255,347.349 217.921,350.516 235.5,345C 241.209,342.76 246.209,339.593 250.5,335.5C 253.833,335.5 257.167,335.5 260.5,335.5C 255.383,341.282 249.383,345.949 242.5,349.5C 235.277,348.276 228.943,349.943 223.5,354.5C 205.279,355.55 190.279,349.217 178.5,335.5 Z"/></g>
<g><path style="opacity:1" fill="#5961ff" d="M 188.5,335.5 C 209.167,335.5 229.833,335.5 250.5,335.5C 246.209,339.593 241.209,342.76 235.5,345C 217.921,350.516 202.255,347.349 188.5,335.5 Z"/></g>
<g><path style="opacity:0.987" fill="#6a4afb" d="M 654.5,322.5 C 654.414,323.496 654.748,324.329 655.5,325C 647.268,332.076 638.935,338.909 630.5,345.5C 623.375,350.786 616.375,356.286 609.5,362C 605.553,363.154 601.553,363.987 597.5,364.5C 597.5,355.167 597.5,345.833 597.5,336.5C 616.46,331.728 635.46,327.061 654.5,322.5 Z"/></g>
<g><path style="opacity:0.972" fill="#fba395" d="M 575.5,324.5 C 580.217,332.914 586.551,339.914 594.5,345.5C 592.202,355.78 586.535,363.446 577.5,368.5C 574.866,359.299 572.866,349.966 571.5,340.5C 572.469,334.961 573.802,329.628 575.5,324.5 Z"/></g>
<g><path style="opacity:0.973" fill="#784bfd" d="M 307.5,347.5 C 308.5,347.5 309.5,347.5 310.5,347.5C 309.84,351.313 308.674,354.979 307,358.5C 306.503,356.19 306.337,353.857 306.5,351.5C 306.232,349.901 306.566,348.568 307.5,347.5 Z"/></g>
<g><path style="opacity:1" fill="#b66cff" d="M 242.5,349.5 C 242.5,349.833 242.5,350.167 242.5,350.5C 245.874,352.874 248.541,355.874 250.5,359.5C 248.095,358.602 246.095,357.102 244.5,355C 239.5,354.333 234.5,354.333 229.5,355C 226.909,357.357 225.242,360.191 224.5,363.5C 222.833,363.5 221.167,363.5 219.5,363.5C 220.023,360.122 221.356,357.122 223.5,354.5C 228.943,349.943 235.277,348.276 242.5,349.5 Z"/></g>
<g><path style="opacity:1" fill="#6565ff" d="M 504.5,345.5 C 513.225,346.453 515.892,350.953 512.5,359C 503.941,361.111 500.441,357.611 502,348.5C 503.045,347.627 503.878,346.627 504.5,345.5 Z"/></g>
<g><path style="opacity:1" fill="#fe9dff" d="M 230.5,370.5 C 230.833,370.5 231.167,370.5 231.5,370.5C 231.414,371.496 231.748,372.329 232.5,373C 235.5,373.667 238.5,373.667 241.5,373C 242.701,372.097 243.535,370.931 244,369.5C 244.498,366.183 244.665,362.85 244.5,359.5C 240.737,357.696 236.737,357.196 232.5,358C 230.536,359.451 229.203,361.284 228.5,363.5C 228.167,363.5 227.833,363.5 227.5,363.5C 229.398,356.139 234.065,353.639 241.5,356C 243.667,356.833 245.167,358.333 246,360.5C 248.053,371.447 243.553,376.28 232.5,375C 230.963,373.89 230.297,372.39 230.5,370.5 Z"/></g>
<g><path style="opacity:1" fill="#f9f6ff" d="M 231.5,370.5 C 231.167,370.5 230.833,370.5 230.5,370.5C 199.191,369.53 167.858,369.197 136.5,369.5C 134.353,368.068 134.02,366.235 135.5,364C 153.164,363.5 170.83,363.333 188.5,363.5C 198.833,363.5 209.167,363.5 219.5,363.5C 221.167,363.5 222.833,363.5 224.5,363.5C 225.5,363.5 226.5,363.5 227.5,363.5C 227.833,363.5 228.167,363.5 228.5,363.5C 231.159,362.515 233.826,361.515 236.5,360.5C 242.095,361.578 243.928,364.912 242,370.5C 238.502,373.12 235.002,373.12 231.5,370.5 Z"/></g>
<g><path style="opacity:1" fill="#ffc2ff" d="M 231.5,370.5 C 235.002,373.12 238.502,373.12 242,370.5C 243.928,364.912 242.095,361.578 236.5,360.5C 233.826,361.515 231.159,362.515 228.5,363.5C 229.203,361.284 230.536,359.451 232.5,358C 236.737,357.196 240.737,357.696 244.5,359.5C 244.665,362.85 244.498,366.183 244,369.5C 243.535,370.931 242.701,372.097 241.5,373C 238.5,373.667 235.5,373.667 232.5,373C 231.748,372.329 231.414,371.496 231.5,370.5 Z"/></g>
<g><path style="opacity:1" fill="#5730fb" d="M 666.5,345.5 C 666.5,346.5 666.5,347.5 666.5,348.5C 668.159,355.38 668.825,362.38 668.5,369.5C 667.358,371.433 665.692,372.933 663.5,374C 651.303,380.466 638.303,383.633 624.5,383.5C 631.731,378.706 633.398,372.373 629.5,364.5C 632.167,363.167 634.833,361.833 637.5,360.5C 647.079,355.211 656.746,350.211 666.5,345.5 Z"/></g>
<g><path style="opacity:0.972" fill="#fcb7ad" d="M 630.5,345.5 C 628.724,348.212 627.057,351.045 625.5,354C 629.374,356.436 633.374,358.603 637.5,360.5C 634.833,361.833 632.167,363.167 629.5,364.5C 626.86,365.82 624.193,367.153 621.5,368.5C 616.956,375.271 610.623,378.605 602.5,378.5C 600.958,377.699 599.292,377.366 597.5,377.5C 596.088,376.467 594.422,375.801 592.5,375.5C 588.474,376.851 584.474,378.185 580.5,379.5C 579.766,378.292 579.433,376.959 579.5,375.5C 584.241,369.795 590.241,366.128 597.5,364.5C 601.553,363.987 605.553,363.154 609.5,362C 616.375,356.286 623.375,350.786 630.5,345.5 Z"/></g>
<g><path style="opacity:1" fill="#7340f9" d="M 629.5,364.5 C 633.398,372.373 631.731,378.706 624.5,383.5C 616.478,384.325 609.145,382.659 602.5,378.5C 610.623,378.605 616.956,375.271 621.5,368.5C 624.193,367.153 626.86,365.82 629.5,364.5 Z"/></g>
<g><path style="opacity:0.999" fill="#1f1e21" d="M 673.5,393.5 C 669.5,393.5 665.5,393.5 661.5,393.5C 659.529,389.893 657.862,386.226 656.5,382.5C 655.411,386.478 656.077,390.145 658.5,393.5C 647.833,393.5 637.167,393.5 626.5,393.5C 626.5,391.167 626.5,388.833 626.5,386.5C 616.301,386.572 606.301,385.905 596.5,384.5C 597.219,382.236 597.552,379.903 597.5,377.5C 599.292,377.366 600.958,377.699 602.5,378.5C 609.145,382.659 616.478,384.325 624.5,383.5C 638.303,383.633 651.303,380.466 663.5,374C 665.692,372.933 667.358,371.433 668.5,369.5C 669.222,369.082 669.722,368.416 670,367.5C 671.495,376.128 672.662,384.795 673.5,393.5 Z"/></g>
<g><path style="opacity:0.945" fill="#7088e1" d="M 303.5,372.5 C 304.386,379.457 304.72,386.457 304.5,393.5C 300.833,393.5 297.167,393.5 293.5,393.5C 288.589,390.672 286.589,386.338 287.5,380.5C 288.167,380.5 288.5,380.167 288.5,379.5C 289.167,378.167 290.167,377.167 291.5,376.5C 292.167,376.5 292.5,376.167 292.5,375.5C 296.469,375.226 300.135,374.226 303.5,372.5 Z"/></g>
<g><path style="opacity:0.985" fill="#6f88e1" d="M 325.5,374.5 C 329.833,374.5 334.167,374.5 338.5,374.5C 337.751,380.824 337.085,387.157 336.5,393.5C 326.833,393.5 317.167,393.5 307.5,393.5C 307.034,387.509 306.701,381.509 306.5,375.5C 313.022,375.823 319.355,375.49 325.5,374.5 Z"/></g>
<g><path style="opacity:0.917" fill="#6f88e1" d="M 342.5,374.5 C 350.04,375.566 353.207,379.899 352,387.5C 350.64,390.023 348.807,392.023 346.5,393.5C 344.167,393.5 341.833,393.5 339.5,393.5C 339.764,386.922 340.764,380.589 342.5,374.5 Z"/></g>
<g><path style="opacity:1" fill="#e374ff" d="M 250.5,359.5 C 251.783,375.052 244.783,381.885 229.5,380C 226.274,376.944 223.274,373.777 220.5,370.5C 192.328,370.831 164.328,370.498 136.5,369.5C 167.858,369.197 199.191,369.53 230.5,370.5C 230.297,372.39 230.963,373.89 232.5,375C 243.553,376.28 248.053,371.447 246,360.5C 245.167,358.333 243.667,356.833 241.5,356C 234.065,353.639 229.398,356.139 227.5,363.5C 226.5,363.5 225.5,363.5 224.5,363.5C 225.242,360.191 226.909,357.357 229.5,355C 234.5,354.333 239.5,354.333 244.5,355C 246.095,357.102 248.095,358.602 250.5,359.5 Z"/></g>
<g><path style="opacity:1" fill="#ca52ff" d="M 242.5,350.5 C 247.712,352.041 251.379,355.375 253.5,360.5C 255.857,370.923 252.19,378.423 242.5,383C 231.007,385.762 223.674,381.595 220.5,370.5C 223.274,373.777 226.274,376.944 229.5,380C 244.783,381.885 251.783,375.052 250.5,359.5C 248.541,355.874 245.874,352.874 242.5,350.5 Z"/></g>
<g><path style="opacity:1" fill="#d6d6d6" d="M 661.5,393.5 C 660.5,393.5 659.5,393.5 658.5,393.5C 656.077,390.145 655.411,386.478 656.5,382.5C 657.862,386.226 659.529,389.893 661.5,393.5 Z"/></g>
<g><path style="opacity:0.974" fill="#9cabf0" d="M 581.5,384.5 C 586.5,384.5 591.5,384.5 596.5,384.5C 606.301,385.905 616.301,386.572 626.5,386.5C 626.5,388.833 626.5,391.167 626.5,393.5C 637.167,393.5 647.833,393.5 658.5,393.5C 659.5,393.5 660.5,393.5 661.5,393.5C 665.5,393.5 669.5,393.5 673.5,393.5C 674.833,393.5 676.167,393.5 677.5,393.5C 684.008,395.867 685.008,399.7 680.5,405C 682.708,405.191 684.708,405.691 686.5,406.5C 683.167,406.5 679.833,406.5 676.5,406.5C 676.167,406.5 675.833,406.5 675.5,406.5C 671.351,405.92 667.684,406.586 664.5,408.5C 663.9,407.1 662.9,406.1 661.5,405.5C 645.167,405.5 628.833,405.5 612.5,405.5C 611.927,400.153 611.26,394.82 610.5,389.5C 609.5,389.5 608.5,389.5 607.5,389.5C 608.54,395.116 609.207,400.783 609.5,406.5C 607.396,406.201 605.396,406.534 603.5,407.5C 606.194,412.229 608.86,416.896 611.5,421.5C 613.162,430.4 613.828,439.4 613.5,448.5C 608.989,439.66 604.655,430.66 600.5,421.5C 603.924,410.141 603.091,399.141 598,388.5C 596.844,387.007 596.01,387.174 595.5,389C 599.095,397.131 600.262,405.631 599,414.5C 598.722,415.416 598.222,416.082 597.5,416.5C 596.32,413.46 594.653,410.794 592.5,408.5C 592.389,407.883 592.056,407.383 591.5,407C 581.839,406.5 572.172,406.334 562.5,406.5C 509.5,406.5 456.5,406.5 403.5,406.5C 399.267,405.206 394.934,405.206 390.5,406.5C 373.5,406.5 356.5,406.5 339.5,406.5C 339.5,402.167 339.5,397.833 339.5,393.5C 341.833,393.5 344.167,393.5 346.5,393.5C 385.167,393.5 423.833,393.5 462.5,393.5C 502.172,393.833 541.839,393.5 581.5,392.5C 581.945,389.947 581.945,387.28 581.5,384.5 Z"/></g>
<g><path style="opacity:0.149" fill="#000000" d="M 841.5,385.5 C 842.156,386.622 842.489,387.955 842.5,389.5C 836.941,424.659 835.274,459.992 837.5,495.5C 836.5,495.5 835.5,495.5 834.5,495.5C 832.933,471.441 833.6,447.441 836.5,423.5C 836.5,422.833 836.5,422.167 836.5,421.5C 837.338,421.158 837.672,420.492 837.5,419.5C 838.5,410.166 839.5,400.832 840.5,391.5C 841.167,391.5 841.5,391.167 841.5,390.5C 841.5,388.833 841.5,387.167 841.5,385.5 Z"/></g>
<g><path style="opacity:1" fill="#158dea" d="M 612.5,405.5 C 612.263,406.791 612.596,407.791 613.5,408.5C 613.837,415.884 614.504,423.218 615.5,430.5C 615.5,438.833 615.5,447.167 615.5,455.5C 614.968,461.152 614.635,466.819 614.5,472.5C 612.86,487.392 609.194,501.726 603.5,515.5C 595.975,533.361 584.641,548.361 569.5,560.5C 568.167,559.5 568.167,558.5 569.5,557.5C 569.833,556.833 570.167,556.167 570.5,555.5C 585.476,543.259 596.309,527.926 603,509.5C 606.605,499.414 609.105,489.081 610.5,478.5C 612.377,468.606 613.377,458.606 613.5,448.5C 613.828,439.4 613.162,430.4 611.5,421.5C 611.811,416.234 611.145,411.234 609.5,406.5C 609.207,400.783 608.54,395.116 607.5,389.5C 608.5,389.5 609.5,389.5 610.5,389.5C 611.26,394.82 611.927,400.153 612.5,405.5 Z"/></g>
<g><path style="opacity:0.96" fill="#9babf1" d="M 267.5,393.5 C 276.167,393.5 284.833,393.5 293.5,393.5C 297.167,393.5 300.833,393.5 304.5,393.5C 305.907,397.683 306.574,402.016 306.5,406.5C 288.164,406.667 269.83,406.5 251.5,406C 249.959,404.629 248.625,403.129 247.5,401.5C 247.128,398.077 248.461,395.577 251.5,394C 256.823,393.501 262.156,393.334 267.5,393.5 Z"/></g>
<g><path style="opacity:0.977" fill="#9caaf0" d="M 307.5,393.5 C 317.167,393.5 326.833,393.5 336.5,393.5C 336.818,398.032 336.485,402.366 335.5,406.5C 329.794,406.171 324.128,406.505 318.5,407.5C 316.221,411.061 314.221,414.727 312.5,418.5C 310.312,410.395 308.645,402.062 307.5,393.5 Z"/></g>
<g><path style="opacity:1" fill="#c5cefe" d="M 677.5,393.5 C 703.502,393.333 729.502,393.5 755.5,394C 759.675,398.306 759.342,402.306 754.5,406C 732.503,406.5 710.503,406.667 688.5,406.5C 687.833,406.5 687.167,406.5 686.5,406.5C 684.708,405.691 682.708,405.191 680.5,405C 685.008,399.7 684.008,395.867 677.5,393.5 Z"/></g>
<g><path style="opacity:1" fill="#5e6789" d="M 612.5,405.5 C 628.833,405.5 645.167,405.5 661.5,405.5C 661.5,405.833 661.5,406.167 661.5,406.5C 645.132,405.849 629.132,406.515 613.5,408.5C 612.596,407.791 612.263,406.791 612.5,405.5 Z"/></g>
<g><path style="opacity:0.077" fill="#32094c" d="M 562.5,406.5 C 572.172,406.334 581.839,406.5 591.5,407C 592.056,407.383 592.389,407.883 592.5,408.5C 590.397,419.45 588.397,430.45 586.5,441.5C 581.481,448.183 575.815,454.183 569.5,459.5C 559.115,452.089 549.615,453.089 541,462.5C 537.902,468.788 537.736,475.122 540.5,481.5C 498.86,505.578 454.193,514.745 406.5,509C 398.989,507.789 391.656,505.956 384.5,503.5C 409.048,493.395 433.048,481.895 456.5,469C 492.524,449.1 527.857,428.267 562.5,406.5 Z"/></g>
<g><path style="opacity:1" fill="#25272c" d="M 609.5,406.5 C 611.145,411.234 611.811,416.234 611.5,421.5C 608.86,416.896 606.194,412.229 603.5,407.5C 605.396,406.534 607.396,406.201 609.5,406.5 Z"/></g>
<g><path style="opacity:1" fill="#d7d7d7" d="M 661.5,405.5 C 662.9,406.1 663.9,407.1 664.5,408.5C 667.301,433.375 670.634,458.041 674.5,482.5C 677.551,509.193 680.885,535.859 684.5,562.5C 684.167,563.833 683.833,565.167 683.5,566.5C 682.914,566.291 682.414,565.957 682,565.5C 678.434,538.167 674.934,510.834 671.5,483.5C 667.969,457.86 664.636,432.193 661.5,406.5C 661.5,406.167 661.5,405.833 661.5,405.5 Z"/></g>
<g><path style="opacity:0.078" fill="#32094c" d="M 675.5,406.5 C 675.833,406.5 676.167,406.5 676.5,406.5C 684.987,421.806 692.653,437.473 699.5,453.5C 703.524,465.24 707.524,476.907 711.5,488.5C 712.798,494.709 714.464,500.709 716.5,506.5C 718.6,518.005 720.934,529.339 723.5,540.5C 727.211,566.027 729.211,591.694 729.5,617.5C 728.5,617.5 727.5,617.5 726.5,617.5C 725.76,604.404 719.094,598.737 706.5,600.5C 708.292,599.691 710.292,599.191 712.5,599C 709.118,595.769 705.118,594.269 700.5,594.5C 701.609,593.71 702.942,593.21 704.5,593C 699.623,589.624 695.623,585.457 692.5,580.5C 695.144,578.484 695.977,575.817 695,572.5C 694.184,571.177 693.017,570.511 691.5,570.5C 689.313,542.779 686.647,515.112 683.5,487.5C 680.833,460.498 678.166,433.498 675.5,406.5 Z"/></g>
<g><path style="opacity:1" fill="#e3e3e3" d="M 623.5,447.5 C 622.596,446.791 622.263,445.791 622.5,444.5C 623.995,438.519 625.495,432.519 627,426.5C 628.156,425.007 628.99,425.174 629.5,427C 627.553,433.974 625.553,440.807 623.5,447.5 Z"/></g>
<g><path style="opacity:0.991" fill="#222225" d="M 592.5,408.5 C 594.653,410.794 596.32,413.46 597.5,416.5C 596.298,425.905 592.632,434.238 586.5,441.5C 588.397,430.45 590.397,419.45 592.5,408.5 Z"/></g>
<g><path style="opacity:0.997" fill="#1c1c1d" d="M 600.5,421.5 C 604.655,430.66 608.989,439.66 613.5,448.5C 613.377,458.606 612.377,468.606 610.5,478.5C 602.707,477.689 594.874,477.023 587,476.5C 584.705,476.453 582.871,475.787 581.5,474.5C 582.402,465.757 583.735,457.09 585.5,448.5C 591.279,439.944 596.279,430.944 600.5,421.5 Z"/></g>
<g><path style="opacity:0.997" fill="#1e1e1e" d="M 661.5,406.5 C 664.636,432.193 667.969,457.86 671.5,483.5C 662.813,481.135 653.813,480.135 644.5,480.5C 641.216,463.922 637.716,447.255 634,430.5C 630.876,438.337 628.376,446.337 626.5,454.5C 624.707,452.574 623.707,450.241 623.5,447.5C 625.553,440.807 627.553,433.974 629.5,427C 628.99,425.174 628.156,425.007 627,426.5C 625.495,432.519 623.995,438.519 622.5,444.5C 620.167,439.833 617.833,435.167 615.5,430.5C 614.504,423.218 613.837,415.884 613.5,408.5C 629.132,406.515 645.132,405.849 661.5,406.5 Z"/></g>
<g><path style="opacity:0.991" fill="#1e1e1e" d="M 675.5,406.5 C 678.166,433.498 680.833,460.498 683.5,487.5C 682.549,486.081 682.216,484.415 682.5,482.5C 679.833,482.5 677.167,482.5 674.5,482.5C 670.634,458.041 667.301,433.375 664.5,408.5C 667.684,406.586 671.351,405.92 675.5,406.5 Z"/></g>
<g><path style="opacity:0.078" fill="#32094c" d="M 644.5,480.5 C 649.393,511.753 653.727,543.086 657.5,574.5C 656.05,579.084 657.717,582.084 662.5,583.5C 661.873,588.141 661.54,592.807 661.5,597.5C 661.5,598.167 661.5,598.833 661.5,599.5C 660.523,602.287 660.19,605.287 660.5,608.5C 659.523,611.287 659.19,614.287 659.5,617.5C 658.167,617.5 656.833,617.5 655.5,617.5C 655.431,561.419 645.765,507.085 626.5,454.5C 628.376,446.337 630.876,438.337 634,430.5C 637.716,447.255 641.216,463.922 644.5,480.5 Z"/></g>
<g><path style="opacity:0.897" fill="#938ce8" d="M 403.5,406.5 C 394.779,421.276 387.112,436.609 380.5,452.5C 377.428,451.15 374.428,449.817 371.5,448.5C 376.748,434.005 383.081,420.005 390.5,406.5C 394.934,405.206 399.267,405.206 403.5,406.5 Z"/></g>
<g><path style="opacity:0.076" fill="#31094b" d="M 265.5,514.5 C 260.116,541.239 256.783,568.239 255.5,595.5C 248.247,590.917 241.914,585.25 236.5,578.5C 236.268,570.968 233.768,564.302 229,558.5C 220.064,548.288 209.23,540.955 196.5,536.5C 196.5,535.833 196.167,535.5 195.5,535.5C 185.691,522.695 176.691,509.362 168.5,495.5C 180.707,507.207 192.04,519.707 202.5,533C 203.725,533.563 204.725,533.23 205.5,532C 191.329,516.33 176.995,500.83 162.5,485.5C 162.5,484.833 162.167,484.5 161.5,484.5C 161.5,483.833 161.167,483.5 160.5,483.5C 155.071,472.307 149.905,460.974 145,449.5C 143.555,445.85 142.555,442.183 142,438.5C 176.172,475.166 217.339,500.5 265.5,514.5 Z"/></g>
<g><path style="opacity:0.998" fill="#8c83e3" d="M 676.5,406.5 C 679.833,406.5 683.167,406.5 686.5,406.5C 687.167,406.5 687.833,406.5 688.5,406.5C 695.919,420.005 702.252,434.005 707.5,448.5C 705.141,449.176 702.808,450.009 700.5,451C 699.748,451.671 699.414,452.504 699.5,453.5C 692.653,437.473 684.987,421.806 676.5,406.5 Z"/></g>
<g><path style="opacity:0.876" fill="#b1b3f5" d="M 306.5,407.5 C 308.42,412.542 309.42,417.875 309.5,423.5C 305.894,430.379 302.561,437.379 299.5,444.5C 298.486,446.574 297.486,448.574 296.5,450.5C 296.5,449.5 296.5,448.5 296.5,447.5C 293.5,447.5 290.5,447.5 287.5,447.5C 287.5,446.5 287.5,445.5 287.5,444.5C 293.037,431.76 299.37,419.426 306.5,407.5 Z"/></g>
<g><path style="opacity:0.997" fill="#63c4ee" d="M 600.5,421.5 C 596.279,430.944 591.279,439.944 585.5,448.5C 581.167,453.5 576.5,458.167 571.5,462.5C 571.167,462.5 570.833,462.5 570.5,462.5C 570.158,461.662 569.492,461.328 568.5,461.5C 568.833,460.833 569.167,460.167 569.5,459.5C 575.815,454.183 581.481,448.183 586.5,441.5C 592.632,434.238 596.298,425.905 597.5,416.5C 598.222,416.082 598.722,415.416 599,414.5C 600.262,405.631 599.095,397.131 595.5,389C 596.01,387.174 596.844,387.007 598,388.5C 603.091,399.141 603.924,410.141 600.5,421.5 Z"/></g>
<g><path style="opacity:0.229" fill="#daa1f7" d="M 227.5,444.5 C 242.5,444.5 257.5,444.5 272.5,444.5C 272.5,450.167 272.5,455.833 272.5,461.5C 257.5,461.5 242.5,461.5 227.5,461.5C 227.5,455.833 227.5,450.167 227.5,444.5 Z"/></g>
<g><path style="opacity:0.233" fill="#daa1f7" d="M 287.5,444.5 C 287.5,445.5 287.5,446.5 287.5,447.5C 284.986,451.871 282.986,456.537 281.5,461.5C 279.833,461.5 278.167,461.5 276.5,461.5C 276.5,455.833 276.5,450.167 276.5,444.5C 280.167,444.5 283.833,444.5 287.5,444.5 Z"/></g>
<g><path style="opacity:0.235" fill="#daa1f7" d="M 299.5,444.5 C 305.5,444.5 311.5,444.5 317.5,444.5C 318.892,447.007 319.892,449.673 320.5,452.5C 320.5,455.5 320.5,458.5 320.5,461.5C 311.167,461.5 301.833,461.5 292.5,461.5C 293.833,457.833 295.167,454.167 296.5,450.5C 297.486,448.574 298.486,446.574 299.5,444.5 Z"/></g>
<g><path style="opacity:0.078" fill="#32094c" d="M 585.5,448.5 C 583.735,457.09 582.402,465.757 581.5,474.5C 576.455,501.179 572.789,528.179 570.5,555.5C 570.167,556.167 569.833,556.833 569.5,557.5C 551.089,570.92 530.422,578.753 507.5,581C 482.395,583.358 458.061,580.191 434.5,571.5C 436.446,554.279 428.779,546.446 411.5,548C 407.206,549.121 404.206,551.621 402.5,555.5C 384.659,544.661 370.992,529.994 361.5,511.5C 361.5,510.833 361.833,510.5 362.5,510.5C 368.108,508.631 373.775,506.964 379.5,505.5C 422.276,518.565 464.61,517.065 506.5,501C 518.911,496.293 530.911,490.793 542.5,484.5C 552.253,492.697 561.753,492.363 571,483.5C 575.414,476.554 575.581,469.554 571.5,462.5C 576.5,458.167 581.167,453.5 585.5,448.5 Z"/></g>
<g><path style="opacity:0.008" fill="#000000" d="M 130.5,456.5 C 129.833,455.167 129.833,455.167 130.5,456.5 Z"/></g>
<g><path style="opacity:0.02" fill="#000000" d="M 130.5,456.5 C 131.167,456.5 131.5,456.833 131.5,457.5C 131.167,457.167 130.833,456.833 130.5,456.5 Z"/></g>
<g><path style="opacity:0.035" fill="#000000" d="M 131.5,457.5 C 132.167,457.5 132.5,457.833 132.5,458.5C 132.167,458.167 131.833,457.833 131.5,457.5 Z"/></g>
<g><path style="opacity:1" fill="#212831" d="M 615.5,455.5 C 616.924,457.515 617.59,459.848 617.5,462.5C 616.79,466.025 615.79,469.358 614.5,472.5C 614.635,466.819 614.968,461.152 615.5,455.5 Z"/></g>
<g><path style="opacity:1" fill="#9b69eb" d="M 565.5,463.5 C 564.738,465.262 563.404,466.262 561.5,466.5C 552.532,463.821 548.199,467.155 548.5,476.5C 547.609,477.11 546.609,477.443 545.5,477.5C 544.508,474.221 544.341,470.888 545,467.5C 549.47,460.815 555.636,458.648 563.5,461C 564.066,461.995 564.733,462.828 565.5,463.5 Z"/></g>
<g><path style="opacity:0.995" fill="#9b96e9" d="M 707.5,448.5 C 712.662,458.978 716.662,469.978 719.5,481.5C 717.114,482.298 714.78,483.298 712.5,484.5C 711.571,485.689 711.238,487.022 711.5,488.5C 707.524,476.907 703.524,465.24 699.5,453.5C 699.414,452.504 699.748,451.671 700.5,451C 702.808,450.009 705.141,449.176 707.5,448.5 Z"/></g>
<g><path style="opacity:1" fill="#8046e6" d="M 567.5,461.5 C 567.167,462.5 566.5,463.167 565.5,463.5C 564.733,462.828 564.066,461.995 563.5,461C 555.636,458.648 549.47,460.815 545,467.5C 544.341,470.888 544.508,474.221 545.5,477.5C 544.833,478.833 543.833,479.833 542.5,480.5C 542.334,476.486 542.501,472.486 543,468.5C 548.98,458.048 557.146,455.715 567.5,461.5 Z"/></g>
<g><path style="opacity:1" fill="#c2c9fa" d="M 615.5,430.5 C 617.833,435.167 620.167,439.833 622.5,444.5C 622.263,445.791 622.596,446.791 623.5,447.5C 623.707,450.241 624.707,452.574 626.5,454.5C 645.765,507.085 655.431,561.419 655.5,617.5C 652.167,617.5 648.833,617.5 645.5,617.5C 645.078,568.634 637.411,520.968 622.5,474.5C 621.869,471.298 620.869,468.298 619.5,465.5C 619.715,463.821 619.048,462.821 617.5,462.5C 617.59,459.848 616.924,457.515 615.5,455.5C 615.5,447.167 615.5,438.833 615.5,430.5 Z"/></g>
<g><path style="opacity:1" fill="#e9f1fd" d="M 567.5,461.5 C 567.833,461.5 568.167,461.5 568.5,461.5C 569.492,461.328 570.158,461.662 570.5,462.5C 570.167,463.167 569.833,463.833 569.5,464.5C 568.5,464.833 567.833,465.5 567.5,466.5C 565.973,466.427 564.973,467.094 564.5,468.5C 563.5,469.167 562.5,469.833 561.5,470.5C 558.642,473.086 555.642,475.42 552.5,477.5C 551.833,477.5 551.5,477.833 551.5,478.5C 549.847,478.66 548.514,479.326 547.5,480.5C 545.95,481.441 544.284,482.107 542.5,482.5C 542.5,481.833 542.5,481.167 542.5,480.5C 543.833,479.833 544.833,478.833 545.5,477.5C 546.609,477.443 547.609,477.11 548.5,476.5C 552.857,473.136 557.191,469.802 561.5,466.5C 563.404,466.262 564.738,465.262 565.5,463.5C 566.5,463.167 567.167,462.5 567.5,461.5 Z"/></g>
<g><path style="opacity:0.234" fill="#fefffe" d="M 203.5,467.5 C 218.167,467.5 232.833,467.5 247.5,467.5C 247.5,473.167 247.5,478.833 247.5,484.5C 232.833,484.5 218.167,484.5 203.5,484.5C 203.5,478.833 203.5,473.167 203.5,467.5 Z"/></g>
<g><path style="opacity:0.241" fill="#fefeff" d="M 279.5,467.5 C 277.503,473.156 275.503,478.822 273.5,484.5C 266.5,484.5 259.5,484.5 252.5,484.5C 252.5,478.833 252.5,473.167 252.5,467.5C 261.5,467.5 270.5,467.5 279.5,467.5 Z"/></g>
<g><path style="opacity:0.969" fill="#c5ccfc" d="M 287.5,447.5 C 290.5,447.5 293.5,447.5 296.5,447.5C 296.5,448.5 296.5,449.5 296.5,450.5C 295.167,454.167 293.833,457.833 292.5,461.5C 292.029,463.579 291.363,465.579 290.5,467.5C 288.229,472.98 286.563,478.647 285.5,484.5C 281.587,494.806 278.587,505.473 276.5,516.5C 269.142,549.747 265.142,583.413 264.5,617.5C 261.167,617.5 257.833,617.5 254.5,617.5C 254.723,610.16 255.056,602.827 255.5,595.5C 256.783,568.239 260.116,541.239 265.5,514.5C 268.143,504.603 270.809,494.603 273.5,484.5C 275.503,478.822 277.503,473.156 279.5,467.5C 279.971,465.421 280.637,463.421 281.5,461.5C 282.986,456.537 284.986,451.871 287.5,447.5 Z"/></g>
<g><path style="opacity:0.217" fill="#fefeff" d="M 290.5,467.5 C 292.5,467.5 294.5,467.5 296.5,467.5C 296.5,473.167 296.5,478.833 296.5,484.5C 292.833,484.5 289.167,484.5 285.5,484.5C 286.563,478.647 288.229,472.98 290.5,467.5 Z"/></g>
<g><path style="opacity:0.915" fill="#a29fef" d="M 371.5,448.5 C 374.428,449.817 377.428,451.15 380.5,452.5C 374.839,466.149 370.173,480.149 366.5,494.5C 362.207,494.023 358.873,492.023 356.5,488.5C 360.711,474.868 365.711,461.534 371.5,448.5 Z"/></g>
<g><path style="opacity:1" fill="#631fdd" d="M 569.5,459.5 C 569.167,460.167 568.833,460.833 568.5,461.5C 568.167,461.5 567.833,461.5 567.5,461.5C 557.146,455.715 548.98,458.048 543,468.5C 542.501,472.486 542.334,476.486 542.5,480.5C 541.833,480.833 541.167,481.167 540.5,481.5C 537.736,475.122 537.902,468.788 541,462.5C 549.615,453.089 559.115,452.089 569.5,459.5 Z"/></g>
<g><path style="opacity:1" fill="#c8a3f3" d="M 561.5,466.5 C 557.191,469.802 552.857,473.136 548.5,476.5C 548.199,467.155 552.532,463.821 561.5,466.5 Z"/></g>
<g><path style="opacity:1" fill="#6624db" d="M 570.5,462.5 C 570.833,462.5 571.167,462.5 571.5,462.5C 575.581,469.554 575.414,476.554 571,483.5C 561.753,492.363 552.253,492.697 542.5,484.5C 542.5,484.167 542.5,483.833 542.5,483.5C 545.274,484.723 547.941,486.223 550.5,488C 566.421,489.743 573.255,482.576 571,466.5C 570.283,465.956 569.783,465.289 569.5,464.5C 569.833,463.833 570.167,463.167 570.5,462.5 Z"/></g>
<g><path style="opacity:0.078" fill="#32094c" d="M 622.5,474.5 C 637.411,520.968 645.078,568.634 645.5,617.5C 630.5,617.5 615.5,617.5 600.5,617.5C 600.81,614.287 600.477,611.287 599.5,608.5C 599.81,605.287 599.477,602.287 598.5,599.5C 598.815,595.629 598.482,591.962 597.5,588.5C 597.5,586.833 597.5,585.167 597.5,583.5C 603.969,581.291 604.969,577.624 600.5,572.5C 606.96,539.519 614.293,506.852 622.5,474.5 Z"/></g>
<g><path style="opacity:1" fill="#e2c7f8" d="M 561.5,470.5 C 561.826,476.826 558.826,479.159 552.5,477.5C 555.642,475.42 558.642,473.086 561.5,470.5 Z"/></g>
<g><path style="opacity:1" fill="#c8a1f3" d="M 564.5,468.5 C 565.645,479.405 561.312,482.738 551.5,478.5C 551.5,477.833 551.833,477.5 552.5,477.5C 558.826,479.159 561.826,476.826 561.5,470.5C 562.5,469.833 563.5,469.167 564.5,468.5 Z"/></g>
<g><path style="opacity:0.998" fill="#141515" d="M 581.5,474.5 C 582.871,475.787 584.705,476.453 587,476.5C 594.874,477.023 602.707,477.689 610.5,478.5C 609.105,489.081 606.605,499.414 603,509.5C 596.309,527.926 585.476,543.259 570.5,555.5C 572.789,528.179 576.455,501.179 581.5,474.5 Z"/></g>
<g><path style="opacity:1" fill="#a373ed" d="M 567.5,466.5 C 570.978,479.738 565.978,485.571 552.5,484C 550.635,483.036 548.968,481.869 547.5,480.5C 548.514,479.326 549.847,478.66 551.5,478.5C 561.312,482.738 565.645,479.405 564.5,468.5C 564.973,467.094 565.973,466.427 567.5,466.5 Z"/></g>
<g><path style="opacity:0.963" fill="#63c8f4" d="M 542.5,480.5 C 542.5,481.167 542.5,481.833 542.5,482.5C 542.5,482.833 542.5,483.167 542.5,483.5C 542.5,483.833 542.5,484.167 542.5,484.5C 530.911,490.793 518.911,496.293 506.5,501C 464.61,517.065 422.276,518.565 379.5,505.5C 374.658,502.989 369.658,500.656 364.5,498.5C 361.709,496.265 358.709,494.265 355.5,492.5C 354.833,492.167 354.167,491.833 353.5,491.5C 352.833,491.5 352.5,491.167 352.5,490.5C 351.27,488.703 350.604,486.703 350.5,484.5C 352.228,486.226 354.228,487.559 356.5,488.5C 358.873,492.023 362.207,494.023 366.5,494.5C 372.035,498.246 378.035,501.246 384.5,503.5C 391.656,505.956 398.989,507.789 406.5,509C 454.193,514.745 498.86,505.578 540.5,481.5C 541.167,481.167 541.833,480.833 542.5,480.5 Z"/></g>
<g><path style="opacity:1" fill="#7b3fe5" d="M 569.5,464.5 C 569.783,465.289 570.283,465.956 571,466.5C 573.255,482.576 566.421,489.743 550.5,488C 547.941,486.223 545.274,484.723 542.5,483.5C 542.5,483.167 542.5,482.833 542.5,482.5C 544.284,482.107 545.95,481.441 547.5,480.5C 548.968,481.869 550.635,483.036 552.5,484C 565.978,485.571 570.978,479.738 567.5,466.5C 567.833,465.5 568.5,464.833 569.5,464.5 Z"/></g>
<g><path style="opacity:0.997" fill="#a6a5ee" d="M 719.5,481.5 C 721.79,487.975 723.79,494.642 725.5,501.5C 724.735,501.077 723.902,500.743 723,500.5C 720.953,501.609 718.787,502.276 716.5,502.5C 716.5,503.833 716.5,505.167 716.5,506.5C 714.464,500.709 712.798,494.709 711.5,488.5C 711.238,487.022 711.571,485.689 712.5,484.5C 714.78,483.298 717.114,482.298 719.5,481.5 Z"/></g>
<g><path style="opacity:0.946" fill="#acadf3" d="M 355.5,492.5 C 358.709,494.265 361.709,496.265 364.5,498.5C 363.833,502.5 363.167,506.5 362.5,510.5C 361.833,510.5 361.5,510.833 361.5,511.5C 358.106,506.704 355.772,501.371 354.5,495.5C 355.404,494.791 355.737,493.791 355.5,492.5 Z"/></g>
<g><path style="opacity:1" fill="#dadcde" d="M 617.5,462.5 C 619.048,462.821 619.715,463.821 619.5,465.5C 610.397,498.723 601.564,532.056 593,565.5C 591.844,566.993 591.01,566.826 590.5,565C 594.924,548.469 599.257,531.969 603.5,515.5C 609.194,501.726 612.86,487.392 614.5,472.5C 615.79,469.358 616.79,466.025 617.5,462.5 Z"/></g>
<g><path style="opacity:0.304" fill="#0a010f" d="M 132.5,458.5 C 141.813,466.811 151.147,475.144 160.5,483.5C 161.167,483.5 161.5,483.833 161.5,484.5C 162.167,484.5 162.5,484.833 162.5,485.5C 176.995,500.83 191.329,516.33 205.5,532C 204.725,533.23 203.725,533.563 202.5,533C 192.04,519.707 180.707,507.207 168.5,495.5C 156.527,483.193 144.527,470.86 132.5,458.5 Z"/></g>
<g><path style="opacity:0.078" fill="#32094c" d="M 350.5,514.5 C 346.011,533.59 343.011,552.924 341.5,572.5C 339.907,587.447 339.24,602.447 339.5,617.5C 314.5,617.5 289.5,617.5 264.5,617.5C 265.142,583.413 269.142,549.747 276.5,516.5C 301.307,522.015 325.973,521.348 350.5,514.5 Z"/></g>
<g><path style="opacity:0.078" fill="#31094c" d="M 360.5,518.5 C 370.833,534.833 384.167,548.167 400.5,558.5C 397.288,574.117 403.621,582.284 419.5,583C 425.228,582.146 429.561,579.313 432.5,574.5C 468.243,586.796 504.243,587.63 540.5,577C 550.825,572.841 560.491,567.674 569.5,561.5C 569.5,562.5 569.5,563.5 569.5,564.5C 564.226,566.529 563.226,569.862 566.5,574.5C 568.657,575.05 570.657,575.717 572.5,576.5C 568.901,577.953 566.401,580.619 565,584.5C 562.131,587.704 558.965,590.537 555.5,593C 556.737,593.232 557.737,593.732 558.5,594.5C 554.386,594.749 550.72,596.249 547.5,599C 549.382,599.198 551.048,599.698 552.5,600.5C 540.417,599.231 534.084,604.897 533.5,617.5C 472.167,617.5 410.833,617.5 349.5,617.5C 349.514,604.823 349.847,592.156 350.5,579.5C 352.519,559.05 355.852,538.716 360.5,518.5 Z"/></g>
<g><path style="opacity:0.997" fill="#b2b4f4" d="M 725.5,501.5 C 728.344,512.72 730.677,524.054 732.5,535.5C 731.842,534.602 731.176,533.602 730.5,532.5C 728.615,533.609 726.615,534.443 724.5,535C 723.594,536.699 723.261,538.533 723.5,540.5C 720.934,529.339 718.6,518.005 716.5,506.5C 716.5,505.167 716.5,503.833 716.5,502.5C 718.787,502.276 720.953,501.609 723,500.5C 723.902,500.743 724.735,501.077 725.5,501.5 Z"/></g>
<g><path style="opacity:0.998" fill="#151516" d="M 619.5,465.5 C 620.869,468.298 621.869,471.298 622.5,474.5C 614.293,506.852 606.96,539.519 600.5,572.5C 589.768,570.901 579.435,568.235 569.5,564.5C 569.5,563.5 569.5,562.5 569.5,561.5C 569.5,561.167 569.5,560.833 569.5,560.5C 584.641,548.361 595.975,533.361 603.5,515.5C 599.257,531.969 594.924,548.469 590.5,565C 591.01,566.826 591.844,566.993 593,565.5C 601.564,532.056 610.397,498.723 619.5,465.5 Z"/></g>
<g><path style="opacity:0.999" fill="#141314" d="M 644.5,480.5 C 653.813,480.135 662.813,481.135 671.5,483.5C 674.934,510.834 678.434,538.167 682,565.5C 682.414,565.957 682.914,566.291 683.5,566.5C 683.833,565.167 684.167,563.833 684.5,562.5C 680.885,535.859 677.551,509.193 674.5,482.5C 677.167,482.5 679.833,482.5 682.5,482.5C 682.216,484.415 682.549,486.081 683.5,487.5C 686.647,515.112 689.313,542.779 691.5,570.5C 680.808,570.942 670.141,571.775 659.5,573C 658.956,573.717 658.289,574.217 657.5,574.5C 653.727,543.086 649.393,511.753 644.5,480.5 Z"/></g>
<g><path style="opacity:0.072" fill="#31084b" d="M 200.5,540.5 C 214.515,546.412 225.015,556.078 232,569.5C 232.977,571.74 233.477,574.073 233.5,576.5C 227.869,571.37 222.369,566.036 217,560.5C 210.887,554.232 205.387,547.565 200.5,540.5 Z"/></g>
<g><path style="opacity:0.302" fill="#09010e" d="M 195.5,535.5 C 196.167,535.5 196.5,535.833 196.5,536.5C 209.23,540.955 220.064,548.288 229,558.5C 233.768,564.302 236.268,570.968 236.5,578.5C 234.821,578.715 233.821,578.048 233.5,576.5C 233.477,574.073 232.977,571.74 232,569.5C 225.015,556.078 214.515,546.412 200.5,540.5C 180.321,532.547 160.988,534.381 142.5,546C 135.323,551.023 128.323,556.19 121.5,561.5C 141.031,538.323 165.697,529.656 195.5,535.5 Z"/></g>
<g><path style="opacity:1" fill="#6624dc" d="M 434.5,571.5 C 433.391,571.443 432.391,571.11 431.5,570.5C 432.12,556.614 425.454,550.781 411.5,553C 409.886,555.127 407.886,556.627 405.5,557.5C 403.973,557.573 402.973,556.906 402.5,555.5C 404.206,551.621 407.206,549.121 411.5,548C 428.779,546.446 436.446,554.279 434.5,571.5 Z"/></g>
<g><path style="opacity:1" fill="#8e59e9" d="M 431.5,570.5 C 430.391,570.443 429.391,570.11 428.5,569.5C 428.81,558.978 423.81,554.811 413.5,557C 412.29,558.039 411.29,559.206 410.5,560.5C 408.95,559.559 407.284,558.893 405.5,558.5C 405.5,558.167 405.5,557.833 405.5,557.5C 407.886,556.627 409.886,555.127 411.5,553C 425.454,550.781 432.12,556.614 431.5,570.5 Z"/></g>
<g><path style="opacity:0.997" fill="#bbc0f7" d="M 353.5,503.5 C 356.07,508.311 358.403,513.311 360.5,518.5C 355.852,538.716 352.519,559.05 350.5,579.5C 350.5,577.5 350.5,575.5 350.5,573.5C 348.063,573.244 345.729,572.577 343.5,571.5C 342.817,571.863 342.15,572.196 341.5,572.5C 343.011,552.924 346.011,533.59 350.5,514.5C 351.134,510.627 352.134,506.961 353.5,503.5 Z"/></g>
<g><path style="opacity:1" fill="#b086ef" d="M 428.5,569.5 C 427.167,568.833 425.833,568.167 424.5,567.5C 425.042,562.373 422.709,559.706 417.5,559.5C 415.645,559.34 414.312,560.007 413.5,561.5C 412.391,561.443 411.391,561.11 410.5,560.5C 411.29,559.206 412.29,558.039 413.5,557C 423.81,554.811 428.81,558.978 428.5,569.5 Z"/></g>
<g><path style="opacity:1" fill="#3cebfd" d="M 403.5,559.5 C 403.842,558.662 404.508,558.328 405.5,558.5C 407.284,558.893 408.95,559.559 410.5,560.5C 411.391,561.11 412.391,561.443 413.5,561.5C 416.683,564.26 420.349,566.26 424.5,567.5C 425.833,568.167 427.167,568.833 428.5,569.5C 429.391,570.11 430.391,570.443 431.5,570.5C 431.672,571.492 431.338,572.158 430.5,572.5C 429.5,572.5 428.5,572.5 427.5,572.5C 427.158,571.662 426.492,571.328 425.5,571.5C 420.689,568.93 415.689,566.597 410.5,564.5C 409.205,563.512 407.872,562.512 406.5,561.5C 405.5,560.833 404.5,560.167 403.5,559.5 Z"/></g>
<g><path style="opacity:0.216" fill="#000000" d="M 121.5,561.5 C 120.833,562.167 120.833,562.167 121.5,561.5 Z"/></g>
<g><path style="opacity:1" fill="#d3b2f6" d="M 424.5,567.5 C 420.349,566.26 416.683,564.26 413.5,561.5C 414.312,560.007 415.645,559.34 417.5,559.5C 422.709,559.706 425.042,562.373 424.5,567.5 Z"/></g>
<g><path style="opacity:0.231" fill="#000000" d="M 120.5,562.5 C 119.833,563.167 119.833,563.167 120.5,562.5 Z"/></g>
<g><path style="opacity:1" fill="#c3cafb" d="M 732.5,535.5 C 737.477,562.586 739.811,589.919 739.5,617.5C 736.167,617.5 732.833,617.5 729.5,617.5C 729.211,591.694 727.211,566.027 723.5,540.5C 723.261,538.533 723.594,536.699 724.5,535C 726.615,534.443 728.615,533.609 730.5,532.5C 731.176,533.602 731.842,534.602 732.5,535.5 Z"/></g>
<g><path style="opacity:0.247" fill="#000000" d="M 119.5,563.5 C 118.833,564.167 118.833,564.167 119.5,563.5 Z"/></g>
<g><path style="opacity:1" fill="#8c56e9" d="M 403.5,559.5 C 404.5,560.167 405.5,560.833 406.5,561.5C 406.335,564.518 406.502,567.518 407,570.5C 413.259,577.61 420.093,578.277 427.5,572.5C 428.5,572.5 429.5,572.5 430.5,572.5C 430.5,572.833 430.5,573.167 430.5,573.5C 425.579,578.639 419.579,580.472 412.5,579C 405.964,574.261 402.964,567.761 403.5,559.5 Z"/></g>
<g><path style="opacity:0.251" fill="#000000" d="M 118.5,564.5 C 117.833,565.167 117.833,565.167 118.5,564.5 Z"/></g>
<g><path style="opacity:0.127" fill="#000000" d="M 117.5,565.5 C 114.202,570.132 110.536,574.466 106.5,578.5C 109.046,573.281 112.713,568.948 117.5,565.5 Z"/></g>
<g><path style="opacity:1" fill="#9ea0a8" d="M 569.5,564.5 C 579.435,568.235 589.768,570.901 600.5,572.5C 604.969,577.624 603.969,581.291 597.5,583.5C 591.408,581.054 585.074,579.054 578.5,577.5C 576.565,576.85 574.565,576.517 572.5,576.5C 570.657,575.717 568.657,575.05 566.5,574.5C 563.226,569.862 564.226,566.529 569.5,564.5 Z"/></g>
<g><path style="opacity:0.999" fill="#9d9fa7" d="M 691.5,570.5 C 693.017,570.511 694.184,571.177 695,572.5C 695.977,575.817 695.144,578.484 692.5,580.5C 688.629,580.185 684.962,580.518 681.5,581.5C 674.938,581.337 668.605,582.004 662.5,583.5C 657.717,582.084 656.05,579.084 657.5,574.5C 658.289,574.217 658.956,573.717 659.5,573C 670.141,571.775 680.808,570.942 691.5,570.5 Z"/></g>
<g><path style="opacity:1" fill="#c5cdfd" d="M 350.5,579.5 C 349.847,592.156 349.514,604.823 349.5,617.5C 346.167,617.5 342.833,617.5 339.5,617.5C 339.24,602.447 339.907,587.447 341.5,572.5C 342.15,572.196 342.817,571.863 343.5,571.5C 345.729,572.577 348.063,573.244 350.5,573.5C 350.5,575.5 350.5,577.5 350.5,579.5 Z"/></g>
<g><path style="opacity:1" fill="#cba7f4" d="M 410.5,564.5 C 415.689,566.597 420.689,568.93 425.5,571.5C 420.963,574.034 416.463,574.034 412,571.5C 411.023,569.26 410.523,566.927 410.5,564.5 Z"/></g>
<g><path style="opacity:0.995" fill="#058df3" d="M 569.5,557.5 C 568.167,558.5 568.167,559.5 569.5,560.5C 569.5,560.833 569.5,561.167 569.5,561.5C 560.491,567.674 550.825,572.841 540.5,577C 504.243,587.63 468.243,586.796 432.5,574.5C 432.158,573.662 431.492,573.328 430.5,573.5C 430.5,573.167 430.5,572.833 430.5,572.5C 431.338,572.158 431.672,571.492 431.5,570.5C 432.391,571.11 433.391,571.443 434.5,571.5C 458.061,580.191 482.395,583.358 507.5,581C 530.422,578.753 551.089,570.92 569.5,557.5 Z"/></g>
<g><path style="opacity:1" fill="#6827dd" d="M 400.5,558.5 C 401.609,558.557 402.609,558.89 403.5,559.5C 402.964,567.761 405.964,574.261 412.5,579C 419.579,580.472 425.579,578.639 430.5,573.5C 431.492,573.328 432.158,573.662 432.5,574.5C 429.561,579.313 425.228,582.146 419.5,583C 403.621,582.284 397.288,574.117 400.5,558.5 Z"/></g>
<g><path style="opacity:1" fill="#a779ed" d="M 406.5,561.5 C 407.872,562.512 409.205,563.512 410.5,564.5C 410.523,566.927 411.023,569.26 412,571.5C 416.463,574.034 420.963,574.034 425.5,571.5C 426.492,571.328 427.158,571.662 427.5,572.5C 420.093,578.277 413.259,577.61 407,570.5C 406.502,567.518 406.335,564.518 406.5,561.5 Z"/></g>
<g><path style="opacity:1" fill="#040e1b" d="M 572.5,576.5 C 574.565,576.517 576.565,576.85 578.5,577.5C 577.879,583.072 575.879,588.072 572.5,592.5C 570.495,594.334 568.328,596.001 566,597.5C 563.765,595.798 561.265,594.798 558.5,594.5C 557.737,593.732 556.737,593.232 555.5,593C 558.965,590.537 562.131,587.704 565,584.5C 566.401,580.619 568.901,577.953 572.5,576.5 Z"/></g>
<g><path style="opacity:0.033" fill="#000000" d="M 106.5,578.5 C 106.489,580.686 105.489,581.519 103.5,581C 104.373,579.955 105.373,579.122 106.5,578.5 Z"/></g>
<g><path style="opacity:1" fill="#050f1b" d="M 681.5,581.5 C 684.962,580.518 688.629,580.185 692.5,580.5C 695.623,585.457 699.623,589.624 704.5,593C 702.942,593.21 701.609,593.71 700.5,594.5C 697.901,594.549 695.734,595.549 694,597.5C 692.385,596.614 690.885,595.614 689.5,594.5C 686.054,590.599 683.387,586.266 681.5,581.5 Z"/></g>
<g><path style="opacity:1" fill="#664ffb" d="M 578.5,577.5 C 585.074,579.054 591.408,581.054 597.5,583.5C 597.5,585.167 597.5,586.833 597.5,588.5C 597.5,589.833 597.5,591.167 597.5,592.5C 589.018,593.72 580.685,593.72 572.5,592.5C 575.879,588.072 577.879,583.072 578.5,577.5 Z"/></g>
<g><path style="opacity:0.997" fill="#5e59fb" d="M 681.5,581.5 C 683.387,586.266 686.054,590.599 689.5,594.5C 688.737,595.268 687.737,595.768 686.5,596C 678.156,596.426 669.823,596.926 661.5,597.5C 661.54,592.807 661.873,588.141 662.5,583.5C 668.605,582.004 674.938,581.337 681.5,581.5 Z"/></g>
<g><path style="opacity:0.999" fill="#5267fb" d="M 689.5,594.5 C 690.885,595.614 692.385,596.614 694,597.5C 695.734,595.549 697.901,594.549 700.5,594.5C 705.118,594.269 709.118,595.769 712.5,599C 710.292,599.191 708.292,599.691 706.5,600.5C 704.566,601.11 702.899,602.11 701.5,603.5C 688.17,603.954 674.837,604.288 661.5,604.5C 661.5,602.833 661.5,601.167 661.5,599.5C 661.5,598.833 661.5,598.167 661.5,597.5C 669.823,596.926 678.156,596.426 686.5,596C 687.737,595.768 688.737,595.268 689.5,594.5 Z"/></g>
<g><path style="opacity:1" fill="#595ffc" d="M 597.5,588.5 C 598.482,591.962 598.815,595.629 598.5,599.5C 598.859,601.766 598.192,603.599 596.5,605C 584.497,605.5 572.497,606 560.5,606.5C 558.656,603.313 555.989,601.313 552.5,600.5C 551.048,599.698 549.382,599.198 547.5,599C 550.72,596.249 554.386,594.749 558.5,594.5C 561.265,594.798 563.765,595.798 566,597.5C 568.328,596.001 570.495,594.334 572.5,592.5C 580.685,593.72 589.018,593.72 597.5,592.5C 597.5,591.167 597.5,589.833 597.5,588.5 Z"/></g>
<g><path style="opacity:1" fill="#020d19" d="M 552.5,600.5 C 555.989,601.313 558.656,603.313 560.5,606.5C 560.539,607.583 560.873,608.583 561.5,609.5C 563.333,609.833 565.167,610.167 567,610.5C 577.998,609.967 588.831,609.3 599.5,608.5C 600.477,611.287 600.81,614.287 600.5,617.5C 578.167,617.5 555.833,617.5 533.5,617.5C 534.084,604.897 540.417,599.231 552.5,600.5 Z"/></g>
<g><path style="opacity:1" fill="#020d19" d="M 726.5,617.5 C 704.167,617.5 681.833,617.5 659.5,617.5C 659.19,614.287 659.523,611.287 660.5,608.5C 672.992,609.55 685.658,610.217 698.5,610.5C 698.15,607.547 699.15,605.213 701.5,603.5C 702.899,602.11 704.566,601.11 706.5,600.5C 719.094,598.737 725.76,604.404 726.5,617.5 Z"/></g>
<g><path style="opacity:1" fill="#4b69f3" d="M 598.5,599.5 C 599.477,602.287 599.81,605.287 599.5,608.5C 588.831,609.3 577.998,609.967 567,610.5C 565.167,610.167 563.333,609.833 561.5,609.5C 560.873,608.583 560.539,607.583 560.5,606.5C 572.497,606 584.497,605.5 596.5,605C 598.192,603.599 598.859,601.766 598.5,599.5 Z"/></g>
<g><path style="opacity:1" fill="#4872f9" d="M 661.5,599.5 C 661.5,601.167 661.5,602.833 661.5,604.5C 674.837,604.288 688.17,603.954 701.5,603.5C 699.15,605.213 698.15,607.547 698.5,610.5C 685.658,610.217 672.992,609.55 660.5,608.5C 660.19,605.287 660.523,602.287 661.5,599.5 Z"/></g>
<g><path style="opacity:0.331" fill="#00aeef" d="M 254.5,617.5 C 257.833,617.5 261.167,617.5 264.5,617.5C 289.5,617.5 314.5,617.5 339.5,617.5C 342.833,617.5 346.167,617.5 349.5,617.5C 410.833,617.5 472.167,617.5 533.5,617.5C 555.833,617.5 578.167,617.5 600.5,617.5C 615.5,617.5 630.5,617.5 645.5,617.5C 648.833,617.5 652.167,617.5 655.5,617.5C 656.833,617.5 658.167,617.5 659.5,617.5C 681.833,617.5 704.167,617.5 726.5,617.5C 727.5,617.5 728. 5,617.5 729.5,617.5C 732.833,617.5 736.167,617.5 739.5,617.5C 742.5,617.5 745.5,617.5 748.5,617.5C 741.167,629.167 733.833,640.833 726.5,652.5C 567.166,652.667 407.833,652.5 248.5,652C 236.22,646.179 233.053,637.012 239,624.5C 243.117,619.858 248.284,617.525 254.5,617.5 Z"/></g>
<g><path style="opacity:0.269" fill="#00aeef" d="M 748.5,617.5 C 748.833,617.5 749.167,617.5 749.5,617.5C 760.635,621.086 765.135,628.753 763,640.5C 760.414,646.088 756.247,649.921 750.5,652C 742.507,652.5 734.507,652.666 726.5,652.5C 733.833,640.833 741.167,629.167 748.5,617.5 Z"/></g>
</svg>
