<svg id="visual" viewBox="0 0 900 600" width="900" height="600" xmlns="http://www.w3.org/2000/svg" xmlns:xlink="http://www.w3.org/1999/xlink" version="1.1"><rect x="0" y="0" width="900" height="600" fill="#151024"></rect><path d="M0 70L13.7 71.8C27.3 73.7 54.7 77.3 82 81.7C109.3 86 136.7 91 163.8 100.7C191 110.3 218 124.7 245.2 125C272.3 125.3 299.7 111.7 327 102.5C354.3 93.3 381.7 88.7 409 87.8C436.3 87 463.7 90 491 99.5C518.3 109 545.7 125 573 131.7C600.3 138.3 627.7 135.7 654.8 131.5C682 127.3 709 121.7 736.2 114.3C763.3 107 790.7 98 818 101.3C845.3 104.7 872.7 120.3 886.3 128.2L900 136L900 0L886.3 0C872.7 0 845.3 0 818 0C790.7 0 763.3 0 736.2 0C709 0 682 0 654.8 0C627.7 0 600.3 0 573 0C545.7 0 518.3 0 491 0C463.7 0 436.3 0 409 0C381.7 0 354.3 0 327 0C299.7 0 272.3 0 245.2 0C218 0 191 0 163.8 0C136.7 0 109.3 0 82 0C54.7 0 27.3 0 13.7 0L0 0Z" fill="#c66ee7"></path><path d="M0 77L13.7 77C27.3 77 54.7 77 82 74.2C109.3 71.3 136.7 65.7 163.8 66C191 66.3 218 72.7 245.2 71.5C272.3 70.3 299.7 61.7 327 67.2C354.3 72.7 381.7 92.3 409 101.2C436.3 110 463.7 108 491 106.7C518.3 105.3 545.7 104.7 573 101.7C600.3 98.7 627.7 93.3 654.8 89.8C682 86.3 709 84.7 736.2 79.2C763.3 73.7 790.7 64.3 818 67.2C845.3 70 872.7 85 886.3 92.5L900 100L900 0L886.3 0C872.7 0 845.3 0 818 0C790.7 0 763.3 0 736.2 0C709 0 682 0 654.8 0C627.7 0 600.3 0 573 0C545.7 0 518.3 0 491 0C463.7 0 436.3 0 409 0C381.7 0 354.3 0 327 0C299.7 0 272.3 0 245.2 0C218 0 191 0 163.8 0C136.7 0 109.3 0 82 0C54.7 0 27.3 0 13.7 0L0 0Z" fill="#f05fbb"></path><path d="M0 58L13.7 54.7C27.3 51.3 54.7 44.7 82 46.3C109.3 48 136.7 58 163.8 62.3C191 66.7 218 65.3 245.2 64.5C272.3 63.7 299.7 63.3 327 65.3C354.3 67.3 381.7 71.7 409 71C436.3 70.3 463.7 64.7 491 62.2C518.3 59.7 545.7 60.3 573 62.8C600.3 65.3 627.7 69.7 654.8 68C682 66.3 709 58.7 736.2 52.2C763.3 45.7 790.7 40.3 818 43.7C845.3 47 872.7 59 886.3 65L900 71L900 0L886.3 0C872.7 0 845.3 0 818 0C790.7 0 763.3 0 736.2 0C709 0 682 0 654.8 0C627.7 0 600.3 0 573 0C545.7 0 518.3 0 491 0C463.7 0 436.3 0 409 0C381.7 0 354.3 0 327 0C299.7 0 272.3 0 245.2 0C218 0 191 0 163.8 0C136.7 0 109.3 0 82 0C54.7 0 27.3 0 13.7 0L0 0Z" fill="#ff618e"></path><path d="M0 25L13.7 29.3C27.3 33.7 54.7 42.3 82 42.7C109.3 43 136.7 35 163.8 33C191 31 218 35 245.2 35.5C272.3 36 299.7 33 327 35C354.3 37 381.7 44 409 46.7C436.3 49.3 463.7 47.7 491 42.3C518.3 37 545.7 28 573 23.8C600.3 19.7 627.7 20.3 654.8 23C682 25.7 709 30.3 736.2 31.7C763.3 33 790.7 31 818 29C845.3 27 872.7 25 886.3 24L900 23L900 0L886.3 0C872.7 0 845.3 0 818 0C790.7 0 763.3 0 736.2 0C709 0 682 0 654.8 0C627.7 0 600.3 0 573 0C545.7 0 518.3 0 491 0C463.7 0 436.3 0 409 0C381.7 0 354.3 0 327 0C299.7 0 272.3 0 245.2 0C218 0 191 0 163.8 0C136.7 0 109.3 0 82 0C54.7 0 27.3 0 13.7 0L0 0Z" fill="#fa7268"></path></svg>