<svg id="visual" viewBox="0 0 900 600" width="900" height="600" xmlns="http://www.w3.org/2000/svg" xmlns:xlink="http://www.w3.org/1999/xlink" version="1.1"><rect x="0" y="0" width="900" height="600" fill="#151024"></rect><path d="M0 481L13.7 477.8C27.3 474.7 54.7 468.3 82 461C109.3 453.7 136.7 445.3 163.8 429.3C191 413.3 218 389.7 245.2 389.2C272.3 388.7 299.7 411.3 327 426.5C354.3 441.7 381.7 449.3 409 450.8C436.3 452.3 463.7 447.7 491 432C518.3 416.3 545.7 389.7 573 378.5C600.3 367.3 627.7 371.7 654.8 378.5C682 385.3 709 394.7 736.2 407C763.3 419.3 790.7 434.7 818 429.2C845.3 423.7 872.7 397.3 886.3 384.2L900 371L900 601L886.3 601C872.7 601 845.3 601 818 601C790.7 601 763.3 601 736.2 601C709 601 682 601 654.8 601C627.7 601 600.3 601 573 601C545.7 601 518.3 601 491 601C463.7 601 436.3 601 409 601C381.7 601 354.3 601 327 601C299.7 601 272.3 601 245.2 601C218 601 191 601 163.8 601C136.7 601 109.3 601 82 601C54.7 601 27.3 601 13.7 601L0 601Z" fill="#c66ee7"></path><path d="M0 469L13.7 469.2C27.3 469.3 54.7 469.7 82 474.5C109.3 479.3 136.7 488.7 163.8 487.8C191 487 218 476 245.2 477.7C272.3 479.3 299.7 493.7 327 484.5C354.3 475.3 381.7 442.7 409 428.2C436.3 413.7 463.7 417.3 491 419.5C518.3 421.7 545.7 422.3 573 427.3C600.3 432.3 627.7 441.7 654.8 447.7C682 453.7 709 456.3 736.2 465.3C763.3 474.3 790.7 489.7 818 484.8C845.3 480 872.7 455 886.3 442.5L900 430L900 601L886.3 601C872.7 601 845.3 601 818 601C790.7 601 763.3 601 736.2 601C709 601 682 601 654.8 601C627.7 601 600.3 601 573 601C545.7 601 518.3 601 491 601C463.7 601 436.3 601 409 601C381.7 601 354.3 601 327 601C299.7 601 272.3 601 245.2 601C218 601 191 601 163.8 601C136.7 601 109.3 601 82 601C54.7 601 27.3 601 13.7 601L0 601Z" fill="#f05fbb"></path><path d="M0 501L13.7 506.5C27.3 512 54.7 523 82 520C109.3 517 136.7 500 163.8 492.8C191 485.7 218 488.3 245.2 489.8C272.3 491.3 299.7 491.7 327 488.3C354.3 485 381.7 478 409 479.2C436.3 480.3 463.7 489.7 491 493.8C518.3 498 545.7 497 573 492.8C600.3 488.7 627.7 481.3 654.8 484.2C682 487 709 500 736.2 510.8C763.3 521.7 790.7 530.3 818 524.7C845.3 519 872.7 499 886.3 489L900 479L900 601L886.3 601C872.7 601 845.3 601 818 601C790.7 601 763.3 601 736.2 601C709 601 682 601 654.8 601C627.7 601 600.3 601 573 601C545.7 601 518.3 601 491 601C463.7 601 436.3 601 409 601C381.7 601 354.3 601 327 601C299.7 601 272.3 601 245.2 601C218 601 191 601 163.8 601C136.7 601 109.3 601 82 601C54.7 601 27.3 601 13.7 601L0 601Z" fill="#ff618e"></path><path d="M0 555L13.7 548C27.3 541 54.7 527 82 526.5C109.3 526 136.7 539 163.8 542.2C191 545.3 218 538.7 245.2 538C272.3 537.3 299.7 542.7 327 539.5C354.3 536.3 381.7 524.7 409 520C436.3 515.3 463.7 517.7 491 526.5C518.3 535.3 545.7 550.7 573 557.8C600.3 565 627.7 564 654.8 559.5C682 555 709 547 736.2 544.5C763.3 542 790.7 545 818 548.2C845.3 551.3 872.7 554.7 886.3 556.3L900 558L900 601L886.3 601C872.7 601 845.3 601 818 601C790.7 601 763.3 601 736.2 601C709 601 682 601 654.8 601C627.7 601 600.3 601 573 601C545.7 601 518.3 601 491 601C463.7 601 436.3 601 409 601C381.7 601 354.3 601 327 601C299.7 601 272.3 601 245.2 601C218 601 191 601 163.8 601C136.7 601 109.3 601 82 601C54.7 601 27.3 601 13.7 601L0 601Z" fill="#fa7268"></path><path d="M0 70L13.7 71.8C27.3 73.7 54.7 77.3 82 81.7C109.3 86 136.7 91 163.8 100.7C191 110.3 218 124.7 245.2 125C272.3 125.3 299.7 111.7 327 102.5C354.3 93.3 381.7 88.7 409 87.8C436.3 87 463.7 90 491 99.5C518.3 109 545.7 125 573 131.7C600.3 138.3 627.7 135.7 654.8 131.5C682 127.3 709 121.7 736.2 114.3C763.3 107 790.7 98 818 101.3C845.3 104.7 872.7 120.3 886.3 128.2L900 136L900 0L886.3 0C872.7 0 845.3 0 818 0C790.7 0 763.3 0 736.2 0C709 0 682 0 654.8 0C627.7 0 600.3 0 573 0C545.7 0 518.3 0 491 0C463.7 0 436.3 0 409 0C381.7 0 354.3 0 327 0C299.7 0 272.3 0 245.2 0C218 0 191 0 163.8 0C136.7 0 109.3 0 82 0C54.7 0 27.3 0 13.7 0L0 0Z" fill="#c66ee7"></path><path d="M0 77L13.7 77C27.3 77 54.7 77 82 74.2C109.3 71.3 136.7 65.7 163.8 66C191 66.3 218 72.7 245.2 71.5C272.3 70.3 299.7 61.7 327 67.2C354.3 72.7 381.7 92.3 409 101.2C436.3 110 463.7 108 491 106.7C518.3 105.3 545.7 104.7 573 101.7C600.3 98.7 627.7 93.3 654.8 89.8C682 86.3 709 84.7 736.2 79.2C763.3 73.7 790.7 64.3 818 67.2C845.3 70 872.7 85 886.3 92.5L900 100L900 0L886.3 0C872.7 0 845.3 0 818 0C790.7 0 763.3 0 736.2 0C709 0 682 0 654.8 0C627.7 0 600.3 0 573 0C545.7 0 518.3 0 491 0C463.7 0 436.3 0 409 0C381.7 0 354.3 0 327 0C299.7 0 272.3 0 245.2 0C218 0 191 0 163.8 0C136.7 0 109.3 0 82 0C54.7 0 27.3 0 13.7 0L0 0Z" fill="#f05fbb"></path><path d="M0 58L13.7 54.7C27.3 51.3 54.7 44.7 82 46.3C109.3 48 136.7 58 163.8 62.3C191 66.7 218 65.3 245.2 64.5C272.3 63.7 299.7 63.3 327 65.3C354.3 67.3 381.7 71.7 409 71C436.3 70.3 463.7 64.7 491 62.2C518.3 59.7 545.7 60.3 573 62.8C600.3 65.3 627.7 69.7 654.8 68C682 66.3 709 58.7 736.2 52.2C763.3 45.7 790.7 40.3 818 43.7C845.3 47 872.7 59 886.3 65L900 71L900 0L886.3 0C872.7 0 845.3 0 818 0C790.7 0 763.3 0 736.2 0C709 0 682 0 654.8 0C627.7 0 600.3 0 573 0C545.7 0 518.3 0 491 0C463.7 0 436.3 0 409 0C381.7 0 354.3 0 327 0C299.7 0 272.3 0 245.2 0C218 0 191 0 163.8 0C136.7 0 109.3 0 82 0C54.7 0 27.3 0 13.7 0L0 0Z" fill="#ff618e"></path><path d="M0 25L13.7 29.3C27.3 33.7 54.7 42.3 82 42.7C109.3 43 136.7 35 163.8 33C191 31 218 35 245.2 35.5C272.3 36 299.7 33 327 35C354.3 37 381.7 44 409 46.7C436.3 49.3 463.7 47.7 491 42.3C518.3 37 545.7 28 573 23.8C600.3 19.7 627.7 20.3 654.8 23C682 25.7 709 30.3 736.2 31.7C763.3 33 790.7 31 818 29C845.3 27 872.7 25 886.3 24L900 23L900 0L886.3 0C872.7 0 845.3 0 818 0C790.7 0 763.3 0 736.2 0C709 0 682 0 654.8 0C627.7 0 600.3 0 573 0C545.7 0 518.3 0 491 0C463.7 0 436.3 0 409 0C381.7 0 354.3 0 327 0C299.7 0 272.3 0 245.2 0C218 0 191 0 163.8 0C136.7 0 109.3 0 82 0C54.7 0 27.3 0 13.7 0L0 0Z" fill="#fa7268"></path></svg>