<?xml version="1.0" encoding="UTF-8"?>
<!DOCTYPE svg PUBLIC "-//W3C//DTD SVG 1.1//EN" "http://www.w3.org/Graphics/SVG/1.1/DTD/svg11.dtd">
<svg xmlns="http://www.w3.org/2000/svg" version="1.1" width="2435px" height="1812px" style="shape-rendering:geometricPrecision; text-rendering:geometricPrecision; image-rendering:optimizeQuality; fill-rule:evenodd; clip-rule:evenodd" xmlns:xlink="http://www.w3.org/1999/xlink">
<g><path style="opacity:1" fill="#00aeef" d="M -0.5,-0.5 C 732.5,-0.5 1465.5,-0.5 2198.5,-0.5C 2198.5,19.5 2198.5,39.5 2198.5,59.5C 2197.51,70.3206 2197.17,81.3206 2197.5,92.5C 1464.76,92.167 732.097,92.5003 -0.5,93.5C -0.5,62.1667 -0.5,30.8333 -0.5,-0.5 Z"/></g>
<g><path style="opacity:1" fill="#fefcfe" d="M 63.5,37.5 C 74.5986,35.7944 82.0986,40.1277 86,50.5C 86.9948,60.008 83.1614,66.8413 74.5,71C 64.9629,73.1473 57.7962,69.9806 53,61.5C 49.7278,50.3887 53.2278,42.3887 63.5,37.5 Z"/></g>
<g><path style="opacity:1" fill="#fefdfe" d="M 128.5,37.5 C 146.689,36.5151 153.856,44.8484 150,62.5C 142.888,72.0758 134.055,73.9091 123.5,68C 114.124,55.8576 115.791,45.6909 128.5,37.5 Z"/></g>
<g><path style="opacity:1" fill="#fefdfe" d="M 194.5,37.5 C 210.791,35.9588 218.291,43.2921 217,59.5C 212.654,69.2573 205.154,73.0907 194.5,71C 183.465,64.893 180.632,56.0597 186,44.5C 188.441,41.5464 191.275,39.2131 194.5,37.5 Z"/></g>
<g><path style="opacity:0.996" fill="#e5e5e6" d="M 2198.5,59.5 C 2199.5,285.999 2199.83,512.666 2199.5,739.5C 2197.26,735.407 2194.76,731.407 2192,727.5C 2175.12,711.318 2156.29,697.985 2135.5,687.5C 2136.5,508.001 2136.83,328.334 2136.5,148.5C 1445.33,148.167 754.333,148.5 63.5,149.5C 63.5,439.5 63.5,729.5 63.5,1019.5C 660.167,1019.5 1256.83,1019.5 1853.5,1019.5C 1857.46,1048.66 1865.46,1076.66 1877.5,1103.5C 1251.5,1103.5 625.5,1103.5 -0.5,1103.5C -0.5,766.833 -0.5,430.167 -0.5,93.5C 732.097,92.5003 1464.76,92.167 2197.5,92.5C 2197.17,81.3206 2197.51,70.3206 2198.5,59.5 Z"/></g>
<g><path style="opacity:1" fill="#ededed" d="M 63.5,149.5 C 754.333,148.5 1445.33,148.167 2136.5,148.5C 2136.83,328.334 2136.5,508.001 2135.5,687.5C 2134.51,687.672 2133.84,687.338 2133.5,686.5C 2135.5,507.836 2136.17,328.836 2135.5,149.5C 1444.83,149.5 754.167,149.5 63.5,149.5 Z"/></g>
<g><path style="opacity:1" fill="#fefefe" d="M 63.5,149.5 C 754.167,149.5 1444.83,149.5 2135.5,149.5C 2136.17,328.836 2135.5,507.836 2133.5,686.5C 2110.49,675.996 2086.83,667.163 2062.5,660C 2052.46,660.672 2042.46,662.006 2032.5,664C 2030.56,664.122 2029.23,664.955 2028.5,666.5C 2027.84,668.369 2027.17,670.369 2026.5,672.5C 2009.3,679.234 1991.96,685.567 1974.5,691.5C 1972.72,688.446 1970.05,687.279 1966.5,688C 1961.83,692 1957.17,696 1952.5,700C 1919.07,715.77 1889.24,736.604 1863,762.5C 1855.32,771.858 1850.32,782.525 1848,794.5C 1846.31,845.996 1844.81,897.496 1843.5,949C 1846.34,972.564 1849.68,996.064 1853.5,1019.5C 1256.83,1019.5 660.167,1019.5 63.5,1019.5C 63.5,729.5 63.5,439.5 63.5,149.5 Z"/></g>
<g><path style="opacity:1" fill="#e6e6e6" d="M 1124.5,274.5 C 1136.5,274.5 1148.5,274.5 1160.5,274.5C 1160.5,286.5 1160.5,298.5 1160.5,310.5C 1148.5,310.5 1136.5,310.5 1124.5,310.5C 1124.5,298.5 1124.5,286.5 1124.5,274.5 Z"/></g>
<g><path style="opacity:1" fill="#e6e6e6" d="M 1257.5,281.5 C 1354.83,281.5 1452.17,281.5 1549.5,281.5C 1549.5,288.833 1549.5,296.167 1549.5,303.5C 1452.17,303.5 1354.83,303.5 1257.5,303.5C 1257.5,296.167 1257.5,288.833 1257.5,281.5 Z"/></g>
<g><path style="opacity:1" fill="#3f3d56" d="M 458.5,311.5 C 539.776,307.217 601.942,339.217 645,407.5C 671.273,454.758 676.94,504.424 662,556.5C 635.421,632.737 582.255,677.57 502.5,691C 434.569,697.476 378.069,675.31 333,624.5C 291.648,572.078 279.314,513.411 296,448.5C 322.917,370.41 377.084,324.743 458.5,311.5 Z"/></g>
<g><path style="opacity:1" fill="#00aeef" d="M 1124.5,339.5 C 1136.17,339.5 1147.83,339.5 1159.5,339.5C 1159.5,351.167 1159.5,362.833 1159.5,374.5C 1159.5,362.833 1159.5,351.167 1159.5,339.5C 1147.83,339.5 1136.17,339.5 1124.5,339.5 Z"/></g>
<g><path style="opacity:1" fill="#dc9afa" d="M 1124.5,339.5 C 1136.32,338.505 1148.32,338.172 1160.5,338.5C 1160.83,350.678 1160.5,362.678 1159.5,374.5C 1159.5,362.833 1159.5,351.167 1159.5,339.5C 1147.83,339.5 1136.17,339.5 1124.5,339.5 Z"/></g>
<g><path style="opacity:1" fill="#00aeef" d="M 1257.5,345.5 C 1407.83,345.5 1558.17,345.5 1708.5,345.5C 1708.5,352.833 1708.5,360.167 1708.5,367.5C 1558.17,367.5 1407.83,367.5 1257.5,367.5C 1257.5,360.167 1257.5,352.833 1257.5,345.5 Z"/></g>
<g><path style="opacity:1" fill="#fefefe" d="M 468.5,389.5 C 496.716,386.021 516.883,397.021 529,422.5C 535.906,446.776 529.739,466.943 510.5,483C 483.772,498.678 459.939,495.178 439,472.5C 421.804,444.336 425.638,419.503 450.5,398C 456.208,394.31 462.208,391.477 468.5,389.5 Z"/></g>
<g><path style="opacity:1" fill="#e6e6e6" d="M 1124.5,400.5 C 1136.5,400.5 1148.5,400.5 1160.5,400.5C 1160.5,412.5 1160.5,424.5 1160.5,436.5C 1148.5,436.5 1136.5,436.5 1124.5,436.5C 1124.5,424.5 1124.5,412.5 1124.5,400.5 Z"/></g>
<g><path style="opacity:1" fill="#e6e6e6" d="M 1262.5,407.5 C 1384.83,407.5 1507.17,407.5 1629.5,407.5C 1629.5,414.833 1629.5,422.167 1629.5,429.5C 1507.17,429.5 1384.83,429.5 1262.5,429.5C 1262.5,422.167 1262.5,414.833 1262.5,407.5 Z"/></g>
<g><path style="opacity:1" fill="#e6e6e6" d="M 1124.5,467.5 C 1136.5,467.5 1148.5,467.5 1160.5,467.5C 1160.5,479.5 1160.5,491.5 1160.5,503.5C 1148.5,503.5 1136.5,503.5 1124.5,503.5C 1124.5,491.5 1124.5,479.5 1124.5,467.5 Z"/></g>
<g><path style="opacity:1" fill="#e6e6e6" d="M 1257.5,474.5 C 1329.17,474.5 1400.83,474.5 1472.5,474.5C 1472.5,481.833 1472.5,489.167 1472.5,496.5C 1400.83,496.5 1329.17,496.5 1257.5,496.5C 1257.5,489.167 1257.5,481.833 1257.5,474.5 Z"/></g>
<g><path style="opacity:1" fill="#302e41" d="M 2047.5,587.5 C 2044.2,585.991 2041.2,586.491 2038.5,589C 2034.96,592.582 2032.29,596.749 2030.5,601.5C 2020.4,582.305 2010.07,563.305 1999.5,544.5C 1985.05,550.424 1970.05,552.924 1954.5,552C 1950.5,550.667 1946.5,549.333 1942.5,548C 1936.47,546.595 1931.13,547.928 1926.5,552C 1923.58,555.737 1920.58,559.237 1917.5,562.5C 1916.25,552.603 1914.59,542.77 1912.5,533C 1915.54,530.304 1918.87,527.97 1922.5,526C 1919.83,524.333 1917.17,522.667 1914.5,521C 1918.83,519.333 1923.17,517.667 1927.5,516C 1925.33,513.833 1923.17,511.667 1921,509.5C 1920.31,508.668 1920.48,508.002 1921.5,507.5C 1929.34,502.914 1937.68,499.414 1946.5,497C 1958.99,494.129 1971.32,490.795 1983.5,487C 2003.95,484.703 2019.95,492.036 2031.5,509C 2036.52,511.173 2041.19,513.84 2045.5,517C 2044.5,518.798 2044,520.632 2044,522.5C 2057.15,532.287 2061.82,545.287 2058,561.5C 2055.95,570.845 2052.45,579.511 2047.5,587.5 Z"/></g>
<g><path style="opacity:1" fill="#fdfdfe" d="M 428.5,522.5 C 463.173,522.167 497.84,522.5 532.5,523.5C 544.667,548.826 556.5,574.159 568,599.5C 509.185,619.492 450.351,619.492 391.5,599.5C 390.417,598.635 390.251,597.635 391,596.5C 403.258,571.651 415.758,546.984 428.5,522.5 Z"/></g>
<g><path style="opacity:1" fill="#00aeef" d="M 1159.5,533.5 C 1159.5,545.167 1159.5,556.833 1159.5,568.5C 1147.83,568.5 1136.17,568.5 1124.5,568.5C 1124.5,556.833 1124.5,545.167 1124.5,533.5C 1136.17,533.5 1147.83,533.5 1159.5,533.5 Z"/></g>
<g><path style="opacity:1" fill="#00aeef" d="M 1580.5,540.5 C 1580.5,547.5 1580.5,554.5 1580.5,561.5C 1472.83,561.5 1365.17,561.5 1257.5,561.5C 1257.5,554.5 1257.5,547.5 1257.5,540.5C 1365.17,540.5 1472.83,540.5 1580.5,540.5 Z"/></g>
<g><path style="opacity:1" fill="#feb6b6" d="M 2047.5,587.5 C 2045.55,624.281 2026.55,646.448 1990.5,654C 1957.24,656.958 1933.41,643.458 1919,613.5C 1913.62,596.635 1913.12,579.635 1917.5,562.5C 1920.58,559.237 1923.58,555.737 1926.5,552C 1931.13,547.928 1936.47,546.595 1942.5,548C 1946.5,549.333 1950.5,550.667 1954.5,552C 1970.05,552.924 1985.05,550.424 1999.5,544.5C 2010.07,563.305 2020.4,582.305 2030.5,601.5C 2032.29,596.749 2034.96,592.582 2038.5,589C 2041.2,586.491 2044.2,585.991 2047.5,587.5 Z"/></g>
<g><path style="opacity:1" fill="#d78dfa" d="M 1580.5,540.5 C 1581.49,547.648 1581.82,554.981 1581.5,562.5C 1473.33,562.833 1365.33,562.499 1257.5,561.5C 1365.17,561.5 1472.83,561.5 1580.5,561.5C 1580.5,554.5 1580.5,547.5 1580.5,540.5 Z"/></g>
<g><path style="opacity:1" fill="#da96fa" d="M 1159.5,533.5 C 1160.5,545.322 1160.83,557.322 1160.5,569.5C 1148.32,569.828 1136.32,569.495 1124.5,568.5C 1136.17,568.5 1147.83,568.5 1159.5,568.5C 1159.5,556.833 1159.5,545.167 1159.5,533.5 Z"/></g>
<g><path style="opacity:1" fill="#e6e6e6" d="M 1124.5,599.5 C 1136.5,599.5 1148.5,599.5 1160.5,599.5C 1160.5,611.5 1160.5,623.5 1160.5,635.5C 1148.5,635.5 1136.5,635.5 1124.5,635.5C 1124.5,623.5 1124.5,611.5 1124.5,599.5 Z"/></g>
<g><path style="opacity:1" fill="#e6e6e6" d="M 1257.5,606.5 C 1354.83,606.5 1452.17,606.5 1549.5,606.5C 1549.5,613.833 1549.5,621.167 1549.5,628.5C 1452.17,628.5 1354.83,628.5 1257.5,628.5C 1257.5,621.167 1257.5,613.833 1257.5,606.5 Z"/></g>
<g><path style="opacity:0.996" fill="#2f2e41" d="M 2133.5,686.5 C 2133.84,687.338 2134.51,687.672 2135.5,687.5C 2156.29,697.985 2175.12,711.318 2192,727.5C 2194.76,731.407 2197.26,735.407 2199.5,739.5C 2205.87,759.825 2211.03,780.491 2215,801.5C 2221.76,835.42 2228.1,869.42 2234,903.5C 2234.2,911.882 2234.7,920.215 2235.5,928.5C 2234.67,962.458 2234.17,996.458 2234,1030.5C 2230.77,1046.5 2227.6,1062.5 2224.5,1078.5C 2220.16,1078.26 2215.82,1077.93 2211.5,1077.5C 2196.67,1075.22 2181.67,1073.22 2166.5,1071.5C 2165.75,1080.53 2164.75,1089.53 2163.5,1098.5C 2150.61,1101.56 2142.44,1109.56 2139,1122.5C 2138.22,1148.38 2150.72,1160.88 2176.5,1160C 2194.42,1154.3 2203.09,1142.14 2202.5,1123.5C 2212.05,1166.62 2217.55,1210.29 2219,1254.5C 2219.9,1273.16 2220.57,1291.82 2221,1310.5C 2220.63,1454.83 2220.13,1599.17 2219.5,1743.5C 2208.15,1743.59 2196.82,1743.26 2185.5,1742.5C 2171.35,1741.31 2157.01,1740.65 2142.5,1740.5C 2137.83,1740.5 2133.17,1740.5 2128.5,1740.5C 2128.67,1650.17 2128.5,1559.83 2128,1469.5C 2108.67,1396.83 2089.33,1324.17 2070,1251.5C 2065.67,1327.62 2062.17,1403.79 2059.5,1480C 2062.62,1568.84 2065.95,1657.68 2069.5,1746.5C 2062.84,1746.05 2056.17,1745.71 2049.5,1745.5C 2035.4,1743.24 2021.07,1741.91 2006.5,1741.5C 1998.83,1740.83 1991.17,1740.17 1983.5,1739.5C 1970.91,1576.36 1953.74,1413.69 1932,1251.5C 1927.6,1219.74 1922.76,1188.08 1917.5,1156.5C 1920.39,1156.81 1923.05,1156.47 1925.5,1155.5C 1945.35,1151.15 1954.51,1138.82 1953,1118.5C 1948.85,1104.52 1939.68,1095.85 1925.5,1092.5C 1923.63,1084.36 1921.47,1076.36 1919,1068.5C 1906.14,1079.83 1893.64,1091.5 1881.5,1103.5C 1880.17,1106.17 1878.83,1106.17 1877.5,1103.5C 1865.46,1076.66 1857.46,1048.66 1853.5,1019.5C 1849.68,996.064 1846.34,972.564 1843.5,949C 1844.81,897.496 1846.31,845.996 1848,794.5C 1850.32,782.525 1855.32,771.858 1863,762.5C 1889.24,736.604 1919.07,715.77 1952.5,700C 1957.17,696 1961.83,692 1966.5,688C 1970.05,687.279 1972.72,688.446 1974.5,691.5C 1979.1,700.298 1982.27,709.631 1984,719.5C 1990.59,765.599 1994.59,811.932 1996,858.5C 1997.47,885.488 1998.14,912.488 1998,939.5C 1990.99,993.381 1976.15,1045.05 1953.5,1094.5C 1977.51,1096.16 2000.51,1092 2022.5,1082C 2040.44,1072.08 2059.44,1065.24 2079.5,1061.5C 2065.01,994.214 2052.51,926.547 2042,858.5C 2039.75,842.228 2038.08,825.895 2037,809.5C 2037.19,781.502 2037.19,753.502 2037,725.5C 2034.89,709.41 2032.23,693.41 2029,677.5C 2028.5,673.848 2028.33,670.182 2028.5,666.5C 2029.23,664.955 2030.56,664.122 2032.5,664C 2042.46,662.006 2052.46,660.672 2062.5,660C 2086.83,667.163 2110.49,675.996 2133.5,686.5 Z"/></g>
<g><path style="opacity:1" fill="#00aeef" d="M 1124.5,664.5 C 1136.17,664.5 1147.83,664.5 1159.5,664.5C 1159.5,676.167 1159.5,687.833 1159.5,699.5C 1159.5,687.833 1159.5,676.167 1159.5,664.5C 1147.83,664.5 1136.17,664.5 1124.5,664.5 Z"/></g>
<g><path style="opacity:1" fill="#00aeef " d="M 1124.5,664.5 C 1136.32,663.505 1148.32,663.172 1160.5,663.5C 1160.83,675.678 1160.5,687.678 1159.5,699.5C 1159.5,687.833 1159.5,676.167 1159.5,664.5C 1147.83,664.5 1136.17,664.5 1124.5,664.5 Z"/></g>
<g><path style="opacity:1" fill="#00aeef" d="M 1257.5,670.5 C 1407.83,670.5 1558.17,670.5 1708.5,670.5C 1708.5,677.833 1708.5,685.167 1708.5,692.5C 1558.17,692.5 1407.83,692.5 1257.5,692.5C 1257.5,685.167 1257.5,677.833 1257.5,670.5 Z"/></g>
<g><path style="opacity:1" fill="#00aeef" d="M 2028.5,666.5 C 2028.33,670.182 2028.5,673.848 2029,677.5C 2032.23,693.41 2034.89,709.41 2037,725.5C 2037.19,753.502 2037.19,781.502 2037,809.5C 2038.08,825.895 2039.75,842.228 2042,858.5C 2052.51,926.547 2065.01,994.214 2079.5,1061.5C 2059.44,1065.24 2040.44,1072.08 2022.5,1082C 2000.51,1092 1977.51,1096.16 1953.5,1094.5C 1976.15,1045.05 1990.99,993.381 1998,939.5C 1998.14,912.488 1997.47,885.488 1996,858.5C 1994.59,811.932 1990.59,765.599 1984,719.5C 1982.27,709.631 1979.1,700.298 1974.5,691.5C 1991.96,685.567 2009.3,679.234 2026.5,672.5C 2027.17,670.369 2027.84,668.369 2028.5,666.5 Z"/></g>
<g><path style="opacity:1" fill="#e6e6e6" d="M 1124.5,725.5 C 1136.5,725.5 1148.5,725.5 1160.5,725.5C 1160.5,737.5 1160.5,749.5 1160.5,761.5C 1148.5,761.5 1136.5,761.5 1124.5,761.5C 1124.5,749.5 1124.5,737.5 1124.5,725.5 Z"/></g>
<g><path style="opacity:1" fill="#e6e6e6" d="M 1262.5,732.5 C 1384.83,732.5 1507.17,732.5 1629.5,732.5C 1629.5,739.833 1629.5,747.167 1629.5,754.5C 1507.17,754.5 1384.83,754.5 1262.5,754.5C 1262.5,747.167 1262.5,739.833 1262.5,732.5 Z"/></g>
<g><path style="opacity:1" fill="#00aeef" d="M 334.5,778.5 C 431.833,778.5 529.167,778.5 626.5,778.5C 626.5,785.833 626.5,793.167 626.5,800.5C 529.167,800.5 431.833,800.5 334.5,800.5C 334.5,793.167 334.5,785.833 334.5,778.5 Z"/></g>
<g><path style="opacity:1" fill="#e6e6e6" d="M 1124.5,792.5 C 1136.5,792.5 1148.5,792.5 1160.5,792.5C 1160.5,804.5 1160.5,816.5 1160.5,828.5C 1148.5,828.5 1136.5,828.5 1124.5,828.5C 1124.5,816.5 1124.5,804.5 1124.5,792.5 Z"/></g>
<g><path style="opacity:1" fill="#e6e6e6" d="M 1257.5,799.5 C 1329.17,799.5 1400.83,799.5 1472.5,799.5C 1472.5,806.833 1472.5,814.167 1472.5,821.5C 1400.83,821.5 1329.17,821.5 1257.5,821.5C 1257.5,814.167 1257.5,806.833 1257.5,799.5 Z"/></g>
<g><path style="opacity:1" fill="#00aeef" d="M 295.5,835.5 C 417.833,835.5 540.167,835.5 662.5,835.5C 662.5,842.833 662.5,850.167 662.5,857.5C 540.167,857.5 417.833,857.5 295.5,857.5C 295.5,850.167 295.5,842.833 295.5,835.5 Z"/></g>
<g><path style="opacity:1" fill="#00aeef" d="M 1124.5,858.5 C 1136.5,858.5 1148.5,858.5 1160.5,858.5C 1160.5,870.5 1160.5,882.5 1160.5,894.5C 1148.5,894.5 1136.5,894.5 1124.5,894.5C 1124.5,882.5 1124.5,870.5 1124.5,858.5 Z"/></g>
<g><path style="opacity:1" fill="#00aeef" d="M 1257.5,865.5 C 1365.5,865.5 1473.5,865.5 1581.5,865.5C 1581.5,872.833 1581.5,880.167 1581.5,887.5C 1473.5,887.5 1365.5,887.5 1257.5,887.5C 1257.5,880.167 1257.5,872.833 1257.5,865.5 Z"/></g>
<g><path style="opacity:1" fill="#d9d9db" d="M 2166.5,946.5 C 2165.83,955.833 2165.17,965.167 2164.5,974.5C 2159.8,938.109 2154.97,901.776 2150,865.5C 2155.46,886.327 2160.46,907.327 2165,928.5C 2166.24,934.435 2166.74,940.435 2166.5,946.5 Z"/></g>
<g><path style="opacity:1" fill="#f5f5f6" d="M 1919.5,949.5 C 1920.75,949.577 1921.58,950.244 1922,951.5C 1928.82,965.451 1931.15,980.118 1929,995.5C 1926.78,1000.38 1923.78,1004.72 1920,1008.5C 1919.21,992.995 1918.37,977.495 1917.5,962C 1918.09,957.811 1918.76,953.644 1919.5,949.5 Z"/></g>
<g><path style="opacity:1" fill="#7c7b86" d="M 2166.5,946.5 C 2166.83,956.522 2166.5,966.522 2165.5,976.5C 2164.7,976.043 2164.37,975.376 2164.5,974.5C 2165.17,965.167 2165.83,955.833 2166.5,946.5 Z"/></g>
<g><path style="opacity:0.996" fill="#fdb6b6" d="M 1925.5,1155.5 C 1911.06,1156.45 1900.06,1150.78 1892.5,1138.5C 1890.61,1128.4 1888.11,1118.4 1885,1108.5C 1884.78,1106.03 1883.61,1104.36 1881.5,1103.5C 1893.64,1091.5 1906.14,1079.83 1919,1068.5C 1921.47,1076.36 1923.63,1084.36 1925.5,1092.5C 1939.68,1095.85 1948.85,1104.52 1953,1118.5C 1954.51,1138.82 1945.35,1151.15 1925.5,1155.5 Z"/></g>
<g><path style="opacity:0.996" fill="#fdb6b6" d="M 2211.5,1077.5 C 2208.24,1092.78 2205.24,1108.11 2202.5,1123.5C 2203.09,1142.14 2194.42,1154.3 2176.5,1160C 2150.72,1160.88 2138.22,1148.38 2139,1122.5C 2142.44,1109.56 2150.61,1101.56 2163.5,1098.5C 2164.75,1089.53 2165.75,1080.53 2166.5,1071.5C 2181.67,1073.22 2196.67,1075.22 2211.5,1077.5 Z"/></g>
<g><path style="opacity:0.927" fill="#343144" d="M 1892.5,1138.5 C 1900.06,1150.78 1911.06,1156.45 1925.5,1155.5C 1923.05,1156.47 1920.39,1156.81 1917.5,1156.5C 1911.81,1162 1905.48,1162.84 1898.5,1159C 1894.44,1152.84 1892.44,1146 1892.5,1138.5 Z"/></g>
<g><path style="opacity:0.991" fill="#f2f2f2" d="M 761.5,1804.5 C 751.375,1804.61 741.375,1804.61 731.5,1804.5C 702.184,1692.18 737.85,1607.85 838.5,1551.5C 844.356,1568.62 847.856,1586.29 849,1604.5C 849.667,1618.17 849.667,1631.83 849,1645.5C 848.754,1648.89 848.254,1652.22 847.5,1655.5C 847.833,1655.83 848.167,1656.17 848.5,1656.5C 882.21,1643.1 917.21,1637.27 953.5,1639C 943.762,1677.31 926.262,1711.48 901,1741.5C 873.772,1770.54 840.605,1789.37 801.5,1798C 788.144,1800.95 774.811,1803.12 761.5,1804.5 Z"/></g>
<g><path style="opacity:0.977" fill="#fbb4b5" d="M 2142.5,1740.5 C 2157.01,1740.65 2171.35,1741.31 2185.5,1742.5C 2184.75,1748.16 2184.08,1753.82 2183.5,1759.5C 2169.83,1759.5 2156.17,1759.5 2142.5,1759.5C 2142.5,1753.17 2142.5,1746.83 2142.5,1740.5 Z"/></g>
<g><path style="opacity:0.988" fill="#fdb6b6" d="M 2006.5,1741.5 C 2021.07,1741.91 2035.4,1743.24 2049.5,1745.5C 2049.5,1750.17 2049.5,1754.83 2049.5,1759.5C 2035.83,1759.5 2022.17,1759.5 2008.5,1759.5C 2008.32,1753.43 2007.66,1747.43 2006.5,1741.5 Z"/></g>
<g><path style="opacity:0.99" fill="#302f42" d="M 2008.5,1759.5 C 2022.17,1759.5 2035.83,1759.5 2049.5,1759.5C 2052.83,1759.5 2056.17,1759.5 2059.5,1759.5C 2059.5,1774.5 2059.5,1789.5 2059.5,1804.5C 2018.17,1805.83 1976.83,1805.83 1935.5,1804.5C 1938.12,1780.05 1951.45,1765.22 1975.5,1760C 1986.49,1759.5 1997.49,1759.33 2008.5,1759.5 Z"/></g>
<g><path style="opacity:0.987" fill="#302f42" d="M 2142.5,1759.5 C 2156.17,1759.5 2169.83,1759.5 2183.5,1759.5C 2194.51,1759.33 2205.51,1759.5 2216.5,1760C 2240.42,1765.42 2254.09,1780.25 2257.5,1804.5C 2215.74,1805.83 2174.07,1805.83 2132.5,1804.5C 2132.5,1789.5 2132.5,1774.5 2132.5,1759.5C 2135.83,1759.5 2139.17,1759.5 2142.5,1759.5 Z"/></g>
<g><path style="opacity:0.896" fill="#cbcbcb" d="M 731.5,1804.5 C 741.375,1804.61 751.375,1804.61 761.5,1804.5C 833.167,1804.33 904.834,1804.5 976.5,1805C 978.25,1806.75 978.917,1808.92 978.5,1811.5C 852.5,1811.5 726.5,1811.5 600.5,1811.5C 599.086,1809.13 599.42,1806.96 601.5,1805C 644.832,1804.5 688.165,1804.33 731.5,1804.5 Z"/></g>
<g><path style="opacity:0.928" fill="#cbcbcb" d="M 1935.5,1804.5 C 1976.83,1805.83 2018.17,1805.83 2059.5,1804.5C 2083.83,1804.5 2108.17,1804.5 2132.5,1804.5C 2174.07,1805.83 2215.74,1805.83 2257.5,1804.5C 2316.54,1804.17 2375.54,1804.51 2434.5,1805.5C 2434.5,1807.5 2434.5,1809.5 2434.5,1811.5C 2199.17,1811.5 1963.83,1811.5 1728.5,1811.5C 1727.09,1809.13 1727.42,1806.96 1729.5,1805C 1798.17,1804.5 1866.83,1804.33 1935.5,1804.5 Z"/></g>
</svg>
