<?xml version="1.0" standalone="no"?>
<!DOCTYPE svg PUBLIC "-//W3C//DTD SVG 20010904//EN"
 "http://www.w3.org/TR/2001/REC-SVG-20010904/DTD/svg10.dtd">
<svg version="1.0" xmlns="http://www.w3.org/2000/svg"
 width="1080.000000pt" height="1080.000000pt" viewBox="0 0 1080.000000 1080.000000"
 preserveAspectRatio="xMidYMid meet">

<g transform="translate(0.000000,1080.000000) scale(0.100000,-0.100000)"
fill="#00aeef" stroke="none">
<path d="M7040 10386 c-144 -84 -1055 -600 -1275 -723 l-70 -39 -3 -1276 -2
-1276 -68 -40 c-37 -21 -240 -135 -452 -252 -212 -117 -416 -230 -453 -251
-38 -22 -71 -39 -73 -39 -2 0 -4 407 -4 904 0 809 -2 906 -16 920 -8 9 -19 16
-24 16 -5 0 -68 29 -142 64 -153 73 -407 194 -688 326 -107 51 -233 110 -280
133 -47 22 -136 64 -199 94 l-114 53 -136 -76 c-127 -72 -299 -168 -826 -464
-115 -65 -282 -159 -370 -208 l-160 -90 -2 -3384 -3 -3383 741 -340 c407 -187
749 -341 759 -343 11 -2 86 35 167 81 191 109 554 315 758 430 88 49 180 102
205 117 25 15 108 63 185 105 77 43 159 89 183 103 l42 24 0 741 0 742 273
158 c149 87 349 203 442 257 l170 99 5 -276 5 -276 110 -62 c61 -34 164 -93
230 -130 210 -118 417 -236 520 -295 55 -32 206 -117 335 -190 129 -73 258
-145 286 -161 l51 -29 289 134 c159 73 321 148 359 166 39 18 95 44 125 57 30
14 96 45 145 68 50 23 201 92 336 154 l246 113 7 3470 c4 1909 4 3474 -1 3478
-6 6 -700 324 -948 436 -16 7 -139 63 -273 123 -134 61 -249 111 -255 110 -7
0 -68 -33 -137 -73z m651 -683 c263 -120 474 -221 471 -225 -4 -3 -79 -46
-167 -95 -441 -247 -670 -375 -742 -417 -44 -25 -85 -46 -91 -46 -6 0 -69 33
-139 74 -71 40 -231 133 -358 206 -126 73 -258 148 -292 167 -35 19 -63 38
-63 41 0 4 17 16 38 28 20 11 123 69 227 128 105 60 255 146 335 191 80 45
177 101 215 123 39 23 74 41 80 41 5 1 224 -97 486 -216z m-1336 -883 c44 -26
127 -74 185 -107 58 -33 164 -95 235 -136 l130 -75 0 -378 0 -378 -245 -136
c-135 -75 -298 -166 -362 -202 -69 -39 -118 -61 -120 -54 -2 6 -2 361 0 788
l4 778 46 -27 c26 -14 83 -47 127 -73z m1815 -2782 l0 -2883 -383 -176 c-210
-97 -385 -174 -389 -172 -5 2 -8 835 -8 1850 0 1472 -3 1844 -12 1840 -7 -2
-290 -159 -628 -347 -338 -189 -770 -430 -960 -535 -190 -106 -363 -202 -385
-215 -128 -73 -756 -420 -760 -420 -3 0 -5 215 -5 478 l1 477 197 109 c303
168 1427 794 2057 1146 220 123 421 236 447 250 l48 25 0 512 0 513 38 24 c20
13 125 72 232 132 107 59 260 145 340 190 80 45 151 83 158 83 9 1 12 -582 12
-2881z m-4712 2303 c130 -60 273 -126 317 -147 44 -20 141 -65 214 -99 74 -34
136 -66 138 -71 2 -5 -19 -21 -45 -35 -45 -25 -191 -108 -547 -314 -244 -141
-357 -205 -362 -205 -7 0 -842 468 -856 480 -4 4 72 52 170 107 517 293 700
393 716 393 10 0 124 -49 255 -109z m-1207 -909 c35 -21 116 -67 179 -102 63
-34 202 -112 308 -172 l192 -110 0 -2844 c0 -1564 -4 -2844 -8 -2844 -4 0
-176 78 -382 173 l-375 173 -2 2859 c-2 1573 0 2870 3 2883 4 12 9 22 13 22 4
0 36 -17 72 -38z m1909 -1627 l0 -1654 158 88 c86 49 175 99 197 111 22 13
200 112 395 220 335 187 619 345 1345 749 171 95 385 215 476 267 91 52 169
94 173 94 3 0 6 -179 6 -398 l0 -398 -62 -35 c-35 -20 -403 -233 -818 -474
-799 -463 -1014 -588 -1200 -695 -63 -37 -160 -93 -215 -125 -55 -32 -140 -82
-190 -110 -49 -29 -112 -66 -140 -82 l-50 -29 -3 -740 -2 -740 -98 -56 c-357
-205 -700 -398 -710 -398 -9 0 -11 672 -10 2826 l3 2826 305 175 c414 238 423
243 432 237 4 -3 8 -749 8 -1659z m2750 -2226 l0 -741 -67 37 c-38 21 -88 50
-113 65 -25 15 -179 103 -342 196 l-298 169 0 272 0 272 58 34 c239 142 747
437 755 437 4 0 7 -333 7 -741z"/>
</g>
</svg>
