<?xml version="1.0" standalone="no"?>
<!DOCTYPE svg PUBLIC "-//W3C//DTD SVG 20010904//EN"
 "http://www.w3.org/TR/2001/REC-SVG-20010904/DTD/svg10.dtd">
<svg version="1.0" xmlns="http://www.w3.org/2000/svg"
 width="1080.000000pt" height="1080.000000pt" viewBox="0 0 1080.000000 1080.000000"
 preserveAspectRatio="xMidYMid meet">

<g transform="translate(0.000000,1080.000000) scale(0.100000,-0.100000)"
fill="#000000" stroke="none">
<path d="M5875 7530 l-710 -410 -3 -65 c-2 -36 -5 -65 -8 -65 -3 0 -16 7 -29
16 -51 33 -106 -15 -65 -56 11 -11 37 -28 60 -40 26 -13 40 -27 40 -40 0 -24
0 -24 -46 -3 -36 17 -36 17 -55 -6 -25 -31 -13 -52 51 -88 38 -21 50 -34 50
-52 0 -22 -1 -23 -25 -7 -48 31 -100 12 -88 -34 2 -9 28 -30 56 -46 31 -18 53
-38 55 -49 2 -14 57 -51 187 -125 l184 -105 1 -602 0 -603 -40 -25 c-50 -31
-52 -31 -48 3 3 23 7 27 31 24 23 -3 28 0 25 15 -2 10 -13 22 -26 28 -17 8
-22 18 -22 47 0 24 -5 38 -12 38 -7 1 -1 8 15 16 19 10 27 23 27 40 0 23 -3
25 -25 20 -21 -5 -25 -2 -36 34 -7 22 -17 40 -22 40 -5 0 -7 15 -4 33 4 28 1
35 -23 49 -15 8 -35 30 -44 49 -15 29 -15 34 -1 41 19 11 20 58 1 58 -8 0 -21
-9 -29 -20 -23 -33 -62 -18 -62 23 0 25 -4 32 -20 32 -20 0 -20 7 -21 323 l-1
324 -89 52 c-49 28 -193 111 -320 184 l-231 133 -292 -168 -291 -168 0 -477 0
-477 -75 -45 -75 -46 0 109 0 109 -149 86 -150 87 -3 42 c-3 42 -3 42 -43 42
-50 1 -65 10 -65 39 0 32 -33 39 -65 14 l-25 -19 -72 39 -73 40 -288 -166
-288 -167 1 -592 c0 -326 -2 -593 -4 -593 -2 0 -14 28 -25 63 -26 75 -70 157
-93 171 -23 14 -43 -5 -79 -76 -24 -47 -34 -58 -48 -53 -39 12 -83 -66 -134
-237 -47 -153 -60 -238 -47 -287 7 -26 7 -55 -1 -95 -5 -31 -7 -65 -4 -75 3
-11 -7 -64 -24 -118 -44 -151 -57 -242 -42 -294 17 -57 67 -105 125 -121 46
-12 47 -13 44 -53 -3 -57 3 -144 9 -121 4 15 8 14 24 -13 19 -32 84 -71 118
-71 19 0 21 -8 24 -93 l3 -92 2 91 2 92 35 6 c35 7 107 66 117 96 4 13 13 11
52 -10 56 -29 78 -51 58 -58 -28 -9 -44 -35 -39 -66 23 -136 34 -149 120 -144
64 3 77 -6 77 -54 0 -41 37 -61 106 -56 62 3 61 5 78 -74 8 -33 51 -48 111
-37 22 4 42 5 44 3 2 -2 9 -25 16 -51 10 -39 18 -50 44 -60 19 -8 31 -9 31 -3
0 5 -8 10 -19 10 -23 0 -36 16 -45 53 -6 26 -5 27 21 21 35 -9 81 -9 114 -1
l27 7 -13 -37 c-10 -29 -20 -39 -44 -46 -17 -4 -31 -10 -31 -12 0 -7 64 7 76
17 7 5 23 4 38 -2 35 -13 107 -13 142 0 15 6 29 9 31 6 11 -10 -47 -36 -85
-39 -23 -1 -42 -6 -42 -11 0 -7 50 -2 92 10 10 3 18 -2 21 -13 4 -14 5 -14 6
4 2 38 21 37 21 -1 0 -20 2 -36 4 -36 3 0 181 102 397 226 l392 226 31 -15
c17 -9 51 -28 76 -42 l45 -26 225 132 c124 72 267 156 319 186 l93 55 -62 37
c-35 20 -63 41 -63 46 0 6 153 98 339 205 424 243 414 237 414 248 0 6 -9 12
-20 15 -11 3 -20 10 -20 17 0 7 9 14 20 17 35 9 22 27 -45 63 l-64 35 28 30
c32 33 61 86 61 110 0 20 4 19 54 -10 l43 -25 47 26 c51 28 57 46 7 20 -40
-21 -51 -20 -51 5 0 20 4 21 54 17 l55 -5 273 158 c302 174 289 171 301 78 l6
-46 -169 -97 c-94 -54 -170 -101 -170 -104 0 -4 155 -96 344 -205 l343 -197
404 233 c222 129 414 239 426 245 18 10 28 8 57 -9 l36 -21 175 103 175 104 0
40 0 41 111 63 c88 51 108 66 97 76 -15 14 -673 385 -683 385 -3 0 -143 -79
-310 -175 l-303 -175 -36 22 c-26 17 -34 28 -29 43 11 42 33 60 144 125 110
64 114 68 117 103 3 37 4 37 40 31 20 -3 49 -1 65 5 25 10 27 14 27 69 0 32
-5 63 -11 69 -8 8 -8 13 0 17 16 10 14 109 -4 132 -8 10 -15 26 -15 36 0 9
-22 30 -50 47 -48 30 -50 33 -50 75 l0 45 -76 42 c-75 41 -76 42 -53 55 40 22
101 17 160 -14 60 -31 588 -328 688 -387 87 -52 129 -90 114 -106 -22 -22
-112 12 -341 128 -128 65 -233 113 -246 111 -27 -4 -32 -34 -10 -60 21 -22
245 -158 344 -208 240 -121 566 -194 639 -144 34 24 25 85 -22 155 l-36 54 32
8 c49 13 80 46 73 80 -10 51 -57 119 -92 133 -64 27 -174 6 -174 -32 0 -10 -8
-27 -19 -38 -34 -38 -35 -73 -3 -105 26 -26 99 -51 151 -51 31 0 101 -106 101
-153 0 -63 -94 -74 -265 -33 -206 50 -342 107 -542 227 -144 85 -193 123 -193
147 0 28 67 0 359 -153 171 -89 267 -108 259 -53 -4 32 -87 85 -433 278 -159
89 -294 166 -300 170 -5 4 -38 22 -71 39 -69 35 -136 41 -183 17 -26 -14 -31
-12 -117 38 l-89 52 0 614 0 614 160 92 c88 51 164 93 168 93 5 1 7 -9 5 -21
-2 -19 -9 -22 -31 -20 -17 2 -29 -3 -33 -13 -3 -8 -10 -13 -14 -10 -5 3 -15
-2 -23 -10 -9 -8 -22 -15 -30 -15 -8 0 -18 -7 -21 -16 -3 -8 -10 -13 -15 -9
-5 3 -13 0 -16 -5 -4 -6 -17 -16 -28 -21 -48 -22 -69 -38 -82 -63 -10 -18 -10
-26 -2 -26 6 0 3 -6 -7 -13 -17 -13 -18 -27 -13 -193 6 -184 19 -267 43 -262
7 2 81 41 164 88 l151 85 -6 35 c-21 122 -25 169 -25 288 0 91 -4 132 -11 132
-8 0 -8 4 0 14 8 9 11 102 9 321 l-3 308 -353 203 c-195 112 -354 204 -355
204 -1 -1 -321 -185 -712 -410z m1065 193 c187 -108 337 -200 333 -204 -9 -8
-1376 -797 -1390 -801 -16 -6 -703 396 -690 403 6 4 320 185 697 403 377 217
690 395 697 396 6 0 165 -88 353 -197z m350 -223 c0 -5 -5 -10 -11 -10 -5 0
-7 5 -4 10 3 6 8 10 11 10 2 0 4 -4 4 -10z m0 -50 c0 -18 -7 -20 -67 -20 l-68
0 30 20 c17 11 47 20 68 20 30 0 37 -4 37 -20z m0 -64 c0 -23 -1 -23 -125 -25
-69 0 -125 1 -125 4 0 2 17 13 38 24 28 16 57 20 125 21 85 0 87 -1 87 -24z
m-90 -196 l0 -159 -31 -16 c-17 -9 -29 -19 -26 -21 3 -3 19 2 36 10 16 9 49
16 71 16 37 0 41 -2 38 -22 -3 -20 -8 -21 -73 -19 -38 1 -73 5 -77 7 -5 3 -48
-17 -96 -45 -48 -27 -93 -51 -101 -53 -8 -2 -21 -9 -30 -16 -9 -7 -26 -21 -39
-30 l-22 -17 -3 -923 c-1 -693 1 -922 10 -922 6 0 55 26 110 58 54 32 128 76
166 96 l68 38 -3 -163 -3 -163 -55 -32 c-56 -33 -65 -33 -72 0 -1 10 -11 24
-20 30 -25 15 -37 -1 -52 -65 l-11 -54 -90 -52 c-50 -29 -95 -53 -101 -53 -6
0 -16 45 -23 108 -7 59 -16 111 -21 115 -4 5 -16 7 -26 5 -17 -3 -19 -14 -19
-96 0 -50 3 -92 8 -92 4 0 7 -13 7 -29 0 -23 -5 -30 -25 -33 l-25 -5 0 148 c0
81 -3 154 -6 163 -3 9 -16 16 -29 16 -13 0 -26 -7 -29 -16 -3 -9 -6 -87 -6
-174 l0 -158 -35 -35 c-19 -19 -35 -45 -35 -56 0 -12 -8 -25 -17 -29 -10 -4
-52 -27 -93 -51 -184 -110 -434 -251 -442 -251 -5 0 -8 71 -7 159 l1 159 51
28 c28 16 63 36 78 44 14 8 45 25 69 38 47 26 49 42 1 18 -19 -10 -56 -16
-103 -16 l-73 0 34 21 c28 17 48 20 120 18 79 -2 90 0 134 25 26 15 49 32 52
37 7 10 8 1840 1 1846 -2 3 -83 -41 -179 -96 -96 -56 -177 -101 -180 -101 -3
0 -6 71 -6 159 l-2 158 72 42 c39 22 78 41 85 41 8 0 14 4 14 8 0 4 50 36 110
71 61 35 109 66 106 68 -2 3 -18 -3 -35 -11 -19 -10 -56 -16 -103 -16 l-73 0
34 21 c28 17 48 20 120 18 l86 -3 153 89 c84 48 151 90 148 92 -2 3 -18 -3
-35 -11 -19 -10 -56 -16 -103 -16 l-73 0 34 21 c28 17 48 20 120 18 l87 -3
234 137 c129 75 238 136 243 137 4 0 7 -72 7 -160z m-88 130 c-25 -16 -50 -20
-110 -20 l-77 1 35 19 c25 14 55 19 110 20 l75 0 -33 -20z m178 0 c0 -16 -7
-20 -35 -20 -28 0 -35 4 -35 20 0 16 7 20 35 20 28 0 35 -4 35 -20z m-260 -45
c0 -2 -18 -14 -40 -25 -32 -16 -56 -20 -108 -18 l-67 3 35 22 c28 18 50 23
108 23 39 0 72 -2 72 -5z m260 -20 c0 -22 -4 -25 -35 -25 -31 0 -35 3 -35 25
0 22 4 25 35 25 31 0 35 -3 35 -25z m-380 -50 c0 -2 -14 -12 -30 -20 -22 -11
-52 -15 -103 -13 l-72 3 30 17 c20 12 53 17 103 18 39 0 72 -2 72 -5z m380
-15 c0 -16 -7 -20 -35 -20 -28 0 -35 4 -35 20 0 16 7 20 35 20 28 0 35 -4 35
-20z m-512 -63 c-31 -19 -48 -21 -110 -19 l-73 4 35 19 c25 13 57 18 110 19
l75 0 -37 -23z m512 0 c0 -20 -4 -23 -35 -19 -26 3 -35 9 -35 23 0 15 7 19 35
19 30 0 35 -3 35 -23z m-1761 -227 l340 -195 1 -63 0 -63 -42 25 c-34 20 -42
31 -40 50 2 18 -6 29 -32 44 -31 18 -36 19 -55 6 -20 -14 -35 -8 -221 98 -188
107 -199 114 -195 138 5 22 0 29 -30 43 -26 13 -41 14 -55 7 -29 -16 -30 -14
-30 51 0 33 4 59 9 57 6 -1 163 -91 350 -198z m1761 160 c0 -16 -7 -20 -35
-20 -28 0 -35 4 -35 20 0 16 7 20 35 20 28 0 35 -4 35 -20z m-710 -45 c0 -2
-17 -13 -37 -22 -29 -14 -53 -17 -103 -13 l-65 5 30 17 c20 12 53 17 103 18
39 0 72 -2 72 -5z m-1466 -18 c15 -11 16 -16 3 -39 -13 -25 -15 -26 -35 -12
-33 23 -28 58 9 63 3 1 13 -5 23 -12z m150 -36 c9 -14 -24 -22 -45 -11 -22 12
-25 26 -6 33 13 5 43 -8 51 -22z m-81 -3 c15 -12 14 -15 -3 -36 -16 -19 -23
-21 -40 -12 -23 12 -26 30 -8 48 15 15 30 15 51 0z m1250 -29 c-26 -16 -45
-19 -105 -17 l-73 3 30 17 c21 12 53 17 105 17 l75 1 -32 -21z m769 1 c-25
-15 -50 -20 -110 -20 l-77 0 30 19 c23 15 49 20 110 20 l80 1 -33 -20z m-1775
-111 c213 -121 214 -122 196 -143 -10 -11 -18 -22 -19 -24 -2 -3 -407 227
-417 237 -9 9 8 51 20 51 4 0 103 -55 220 -121z m1828 81 c-3 -5 -1 -10 5 -10
6 0 8 -4 5 -10 -3 -5 -11 -10 -16 -10 -6 0 -7 5 -4 10 3 6 1 10 -5 10 -6 0 -8
5 -5 10 3 6 11 10 16 10 6 0 7 -4 4 -10z m-135 -15 c0 -2 -17 -13 -37 -22 -29
-14 -53 -17 -103 -13 l-65 5 30 17 c20 12 53 17 103 18 39 0 72 -2 72 -5z
m-1915 -36 c-11 -17 -35 -9 -35 11 0 18 3 19 20 10 11 -6 18 -15 15 -21z
m2104 -358 c7 -23 11 -44 9 -46 -2 -1 -70 -41 -153 -88 -145 -83 -150 -85
-159 -64 -5 12 -12 109 -14 216 -3 168 -2 195 12 203 8 5 13 15 10 22 -3 7 2
16 12 20 15 6 15 4 3 -11 -12 -15 -12 -16 4 -10 21 8 22 -6 1 -27 -14 -15 -14
-16 1 -16 9 0 18 12 21 29 4 17 12 32 20 35 16 6 19 -10 4 -19 -5 -3 -10 -12
-10 -18 1 -17 40 32 40 49 0 8 7 14 17 14 14 0 14 -2 -2 -20 -10 -11 -14 -20
-9 -20 16 0 34 23 34 41 0 19 18 35 27 25 4 -4 1 -12 -5 -18 -17 -17 -15 -33
3 -18 8 7 15 21 15 31 0 19 17 35 27 25 3 -3 0 -12 -7 -21 -8 -9 -9 -15 -2
-15 6 0 15 6 19 14 4 8 17 15 28 17 12 3 22 14 25 29 2 14 7 -51 10 -145 4
-93 12 -190 19 -214z m-2191 360 c12 -7 12 -13 0 -35 -13 -25 -15 -25 -36 -10
-30 20 -29 54 1 54 12 0 28 -4 35 -9z m2049 -11 c1 -11 -3 -20 -8 -20 -6 0 -7
5 -4 10 3 6 1 10 -5 10 -6 0 -8 5 -5 10 10 16 21 11 22 -10z m48 10 c-3 -5
-11 -10 -16 -10 -6 0 -7 5 -4 10 3 6 11 10 16 10 6 0 7 -4 4 -10z m49 -5 c-6
-16 -24 -21 -24 -7 0 11 11 22 21 22 5 0 6 -7 3 -15z m-2010 -18 c18 -13 18
-14 2 -20 -10 -4 -26 -2 -36 3 -22 12 -31 13 -28 3 2 -5 -5 -19 -14 -31 -14
-20 -19 -22 -37 -13 -12 7 -21 18 -21 25 0 21 27 38 49 31 10 -3 22 -1 26 5 9
14 38 13 59 -3z m1861 -7 c-3 -5 -1 -10 5 -10 6 0 8 -4 5 -10 -10 -16 -21 -11
-22 10 -1 11 3 20 8 20 6 0 7 -4 4 -10z m-885 -5 c0 -17 -68 -35 -132 -35
l-73 0 30 20 c23 15 47 20 103 20 39 0 72 -2 72 -5z m745 -15 c-16 -11 -47
-20 -67 -20 -31 0 -38 4 -38 20 0 18 7 20 68 20 l67 0 -30 -20z m-1407 -145
c78 -44 142 -83 142 -86 0 -4 -7 -10 -16 -13 -11 -4 -85 32 -203 99 -231 131
-215 120 -207 140 5 14 15 12 74 -22 37 -21 132 -74 210 -118z m1512 151 c0
-3 -4 -8 -10 -11 -5 -3 -10 -1 -10 4 0 6 5 11 10 11 6 0 10 -2 10 -4z m-1633
-141 c175 -99 191 -110 178 -125 -8 -9 -15 -21 -15 -27 0 -10 -401 214 -423
236 -7 7 -5 17 8 31 16 17 21 18 39 7 12 -7 108 -62 213 -122z m1593 111 c0
-2 -7 -7 -16 -10 -8 -3 -12 -2 -9 4 6 10 25 14 25 6z m40 0 c0 -3 -4 -8 -10
-11 -5 -3 -10 -1 -10 4 0 6 5 11 10 11 6 0 10 -2 10 -4z m-978 -38 c-27 -17
-47 -21 -100 -19 -37 1 -68 4 -70 6 -2 2 9 10 25 19 18 10 55 15 103 15 l75 1
-33 -22z m838 -1 c0 -20 -4 -23 -35 -19 -26 3 -35 9 -35 23 0 15 7 19 35 19
30 0 35 -3 35 -23z m-1735 -16 c3 -6 -4 -15 -15 -21 -17 -9 -20 -8 -20 10 0
20 24 28 35 11z m-56 -28 l48 -28 -17 -28 c-17 -27 -17 -27 -40 -9 -19 16 -21
22 -11 40 8 14 8 22 1 22 -5 0 -10 -3 -10 -7 0 -5 -4 -14 -9 -22 -12 -18 -51
3 -51 28 0 40 24 41 89 4z m-288 -170 c170 -98 305 -181 301 -185 -15 -15
-547 -318 -558 -318 -7 0 -22 8 -34 18 l-23 19 241 139 c133 76 242 142 242
145 0 4 -107 68 -238 143 l-239 137 -244 -141 c-246 -143 -261 -148 -302 -118
-15 12 15 32 260 174 153 89 280 162 282 163 2 1 143 -79 312 -176z m389 164
c8 -7 16 -21 17 -32 1 -11 0 -14 -3 -7 -3 6 -12 12 -20 12 -9 0 -25 5 -36 11
-17 9 -18 13 -7 20 19 12 31 11 49 -4z m499 4 c8 -5 16 -20 17 -33 2 -13 0
-17 -2 -10 -3 6 -13 12 -22 12 -25 1 -56 27 -40 33 20 8 32 8 47 -2z m-73 -14
c20 -12 20 -13 4 -40 -17 -27 -17 -27 -40 -9 -19 16 -21 22 -11 40 13 25 18
26 47 9z m306 -7 c-18 -11 -48 -20 -67 -20 -28 0 -35 4 -35 20 0 18 7 20 68
20 l67 0 -33 -20z m958 0 c0 -16 -7 -20 -35 -20 -28 0 -35 4 -35 20 0 16 7 20
35 20 28 0 35 -4 35 -20z m-1445 -115 c216 -123 226 -130 197 -139 -15 -5 -74
23 -216 105 -108 61 -196 117 -196 124 0 14 10 26 19 21 3 -2 92 -52 196 -111z
m-64 -23 l206 -117 -16 -26 -16 -26 -210 120 c-116 66 -211 121 -213 122 -8 7
19 45 31 45 7 -1 105 -53 218 -118z m355 83 c65 -37 86 -56 66 -63 -6 -2 -8
-10 -5 -18 3 -8 0 -14 -7 -14 -9 0 -140 71 -158 86 -7 5 19 44 30 44 6 0 39
-16 74 -35z m174 -5 c0 -17 -7 -20 -40 -20 -33 0 -40 3 -40 20 0 17 7 20 40
20 33 0 40 -3 40 -20z m980 0 c0 -16 -7 -20 -35 -20 -28 0 -35 4 -35 20 0 16
7 20 35 20 28 0 35 -4 35 -20z m-2243 -89 c76 -43 156 -89 178 -101 90 -50
125 -72 125 -79 0 -7 -13 -16 -90 -58 -30 -17 -126 -72 -213 -122 -86 -50
-163 -91 -170 -91 -7 0 -56 25 -108 56 -51 31 -150 88 -217 126 -79 45 -120
74 -114 80 12 12 455 267 464 268 4 0 70 -35 145 -79z m810 -117 c275 -157
330 -185 345 -175 16 10 18 7 18 -25 0 -35 -1 -36 -22 -22 -13 8 -170 99 -350
203 -280 161 -350 205 -323 205 2 0 152 -84 332 -186z m453 141 c0 -22 -4 -25
-34 -25 -37 0 -51 12 -42 35 3 9 19 15 41 15 31 0 35 -3 35 -25z m980 0 c0
-22 -4 -25 -35 -25 -31 0 -35 3 -35 25 0 22 4 25 35 25 31 0 35 -3 35 -25z
m-1196 3 c20 -8 23 -14 15 -24 -8 -10 -16 -11 -31 -3 -22 12 -43 -1 -53 -31
-5 -16 -10 -17 -31 -8 -28 13 -30 25 -8 49 13 15 21 16 37 8 16 -9 22 -8 29 5
11 19 10 19 42 4z m126 -71 l0 -38 -27 15 c-76 40 -81 62 -14 62 41 -1 41 -1
41 -39z m-79 -7 c38 -23 69 -47 69 -55 0 -10 -6 -12 -17 -8 -16 6 -16 5 -4
-10 10 -13 10 -17 1 -17 -14 0 -160 79 -160 86 0 13 22 44 31 44 6 0 42 -18
80 -40z m96 -2 c-3 -7 -5 -2 -5 12 0 14 2 19 5 13 2 -7 2 -19 0 -25z m73 12
c0 -15 -7 -20 -25 -20 -18 0 -25 5 -25 20 0 15 7 20 25 20 18 0 25 -5 25 -20z
m370 0 c0 -17 -7 -20 -47 -20 l-48 0 30 19 c40 26 65 26 65 1z m610 0 c0 -16
-7 -20 -35 -20 -28 0 -35 4 -35 20 0 16 7 20 35 20 28 0 35 -4 35 -20z m-1053
-72 c-3 -7 -5 -2 -5 12 0 14 2 19 5 13 2 -7 2 -19 0 -25z m73 7 c0 -21 -5 -25
-29 -25 -25 0 -28 3 -23 25 3 18 11 25 28 25 19 0 24 -5 24 -25z m370 0 l0
-25 -107 0 -108 0 40 25 c32 19 54 24 108 25 65 0 67 -1 67 -25z m610 0 c0
-22 -4 -25 -35 -25 -31 0 -35 3 -35 25 0 22 4 25 35 25 31 0 35 -3 35 -25z
m-1176 -24 c9 -14 -24 -22 -45 -11 -22 12 -25 26 -6 33 13 5 43 -8 51 -22z
m-81 -3 c15 -12 14 -15 -3 -36 -16 -19 -23 -21 -40 -12 -23 12 -24 15 -10 41
12 22 29 24 53 7z m187 -51 c0 -21 -3 -37 -7 -35 -57 27 -83 44 -83 53 0 18 7
21 50 20 40 0 40 0 40 -38z m-85 -7 c72 -40 109 -79 65 -67 -17 4 -19 3 -9 -9
9 -11 8 -14 -6 -14 -17 0 -155 77 -155 86 0 10 21 44 27 44 3 0 38 -18 78 -40z
m175 20 c0 -14 -7 -20 -24 -20 -15 0 -26 7 -29 20 -4 17 0 20 24 20 22 0 29
-5 29 -20z m233 -1 c-26 -16 -45 -19 -105 -17 l-73 3 30 17 c21 12 53 17 105
17 l75 1 -32 -21z m137 1 c0 -17 -7 -20 -40 -20 -33 0 -40 3 -40 20 0 17 7 20
40 20 33 0 40 -3 40 -20z m610 0 c0 -16 -7 -20 -35 -20 -28 0 -35 4 -35 20 0
16 7 20 35 20 28 0 35 -4 35 -20z m-2919 -7 l29 -17 0 -433 0 -432 95 -56 c91
-54 95 -58 95 -91 0 -19 -3 -34 -6 -34 -4 0 -62 32 -130 71 l-124 70 0 470 c0
258 3 469 6 469 3 0 19 -8 35 -17z m1866 -5 c-3 -8 -6 -5 -6 6 -1 11 2 17 5
13 3 -3 4 -12 1 -19z m351 -1182 l-3 -406 -345 198 -345 199 -3 597 c-1 328 1
596 4 596 4 0 22 -9 40 -21 l34 -21 0 -86 0 -87 264 -147 c144 -82 266 -148
269 -148 4 0 7 80 7 178 l0 178 -55 29 c-30 17 -50 34 -46 38 5 5 46 30 92 57
l84 47 3 -398 c1 -218 1 -580 0 -803z m-1058 239 l0 -924 -23 -23 c-54 -55
-149 -359 -146 -468 4 -119 1 -163 -13 -171 -7 -4 -94 -55 -193 -112 l-180
-105 -3 489 c-1 280 -6 489 -11 489 -8 0 -201 -109 -286 -161 -16 -10 -46 -27
-65 -37 -31 -17 -92 -52 -195 -112 -16 -10 -83 -48 -147 -84 l-118 -67 0 -493
c0 -410 -2 -496 -14 -505 -8 -7 -108 -65 -222 -131 l-209 -119 -3 30 c-4 37
-20 38 -28 2 -10 -46 -11 -49 -19 -28 -28 80 -28 80 -37 56 -4 -13 -5 -34 -2
-47 5 -19 3 -23 -10 -18 -15 6 -16 110 -16 1180 l0 1173 66 38 c37 21 162 93
278 160 l211 122 3 -470 c1 -317 6 -469 13 -469 5 0 54 25 107 56 145 84 201
117 280 161 24 13 94 54 157 91 63 37 148 86 189 110 l76 42 0 478 0 478 272
157 c150 86 276 157 280 157 5 0 8 -416 8 -925z m-827 755 l166 -95 1 -422 c0
-475 8 -434 -77 -383 -38 22 -43 29 -43 63 0 40 -15 50 -25 17 -11 -35 -25
-22 -25 24 0 45 -16 71 -25 42 -16 -51 -17 -51 -32 -8 -18 51 -31 54 -35 7
l-3 -35 -94 54 -94 53 1 384 c0 211 1 401 1 422 l1 39 58 -34 c32 -18 133 -76
225 -128z m1534 123 c-3 -10 -5 -4 -5 12 0 17 2 24 5 18 2 -7 2 -21 0 -30z
m223 33 c0 -2 -16 -13 -36 -25 -26 -15 -52 -21 -100 -21 -62 0 -64 1 -64 25
l0 25 100 0 c55 0 100 -2 100 -4z m220 -21 c0 -22 -4 -25 -40 -25 -32 0 -40 4
-40 18 0 26 9 32 47 32 29 0 33 -3 33 -25z m610 0 c0 -22 -4 -25 -35 -25 -31
0 -35 3 -35 25 0 22 4 25 35 25 31 0 35 -3 35 -25z m-1281 -9 c7 -8 11 -37 9
-68 -2 -41 -7 -54 -20 -56 -16 -3 -18 5 -18 67 0 71 7 84 29 57z m125 -70 l93
-53 62 35 c62 34 80 58 22 28 -44 -23 -81 -21 -81 5 0 19 5 20 78 18 64 -2 86
-7 135 -33 l57 -31 0 -137 c0 -76 -2 -138 -4 -138 -2 0 -106 58 -232 129
l-229 129 -3 51 c-2 28 0 51 3 51 3 0 48 -24 99 -54z m546 14 c0 -17 -7 -20
-40 -20 -33 0 -40 3 -40 20 0 17 7 20 40 20 33 0 40 -3 40 -20z m610 0 c0 -16
-7 -20 -35 -20 -28 0 -35 4 -35 20 0 16 7 20 35 20 28 0 35 -4 35 -20z m-610
-65 c0 -22 -4 -25 -40 -25 -32 0 -40 4 -40 18 0 26 9 32 47 32 29 0 33 -3 33
-25z m610 0 c0 -22 -4 -25 -35 -25 -31 0 -35 3 -35 25 0 22 4 25 35 25 31 0
35 -3 35 -25z m-952 -180 c112 -62 162 -95 162 -107 0 -10 -3 -18 -6 -18 -6 0
-485 268 -494 277 -2 2 2 8 10 13 10 6 38 -4 90 -33 42 -23 149 -82 238 -132z
m342 115 c0 -17 -7 -20 -40 -20 -33 0 -40 3 -40 20 0 17 7 20 40 20 33 0 40
-3 40 -20z m610 0 c0 -16 -7 -20 -35 -20 -28 0 -35 4 -35 20 0 16 7 20 35 20
28 0 35 -4 35 -20z m-610 -63 c0 -20 -4 -22 -40 -19 -31 3 -40 8 -40 23 0 15
7 19 40 19 35 0 40 -3 40 -23z m610 0 c0 -20 -4 -23 -35 -19 -26 3 -35 9 -35
23 0 15 7 19 35 19 30 0 35 -3 35 -23z m-2340 -487 c0 -259 -2 -470 -5 -470
-16 0 -168 96 -176 112 -5 10 -15 18 -21 18 -6 0 -3 -9 7 -20 19 -21 17 -24
-9 -14 -13 5 -15 15 -10 48 4 22 8 42 9 44 1 2 29 -13 61 -33 33 -19 65 -35
72 -35 9 0 12 92 12 425 l0 426 30 -16 30 -16 0 -469z m1730 420 c0 -17 -7
-20 -40 -20 -33 0 -40 3 -40 20 0 17 7 20 40 20 33 0 40 -3 40 -20z m610 0 c0
-16 -7 -20 -35 -20 -28 0 -35 4 -35 20 0 16 7 20 35 20 28 0 35 -4 35 -20z
m-610 -63 c0 -20 -4 -22 -40 -19 -31 3 -40 8 -40 23 0 15 7 19 40 19 35 0 40
-3 40 -23z m610 0 c0 -20 -4 -23 -35 -19 -26 3 -35 9 -35 23 0 15 7 19 35 19
30 0 35 -3 35 -23z m-3684 -38 c62 -34 74 -45 75 -67 1 -26 1 -26 7 -4 l7 23
47 -30 c31 -20 46 -35 42 -45 -3 -8 -1 -17 5 -21 7 -3 11 2 11 14 0 16 26 5
161 -74 89 -52 166 -98 171 -103 6 -6 -96 -70 -270 -171 l-279 -161 -307 176
c-168 97 -306 179 -306 182 0 8 540 321 554 322 5 0 42 -18 82 -41z m144 -34
c0 -37 -2 -38 -48 -7 -19 13 -3 42 24 42 21 0 24 -5 24 -35z m2930 5 c0 -17
-7 -20 -40 -20 -33 0 -40 3 -40 20 0 17 7 20 40 20 33 0 40 -3 40 -20z m610 0
c0 -16 -7 -20 -35 -20 -28 0 -35 4 -35 20 0 16 7 20 35 20 28 0 35 -4 35 -20z
m-3500 -45 c0 -9 -6 -12 -15 -9 -8 4 -15 10 -15 15 0 5 7 9 15 9 8 0 15 -7 15
-15z m70 0 c0 -8 -4 -15 -9 -15 -5 0 -14 7 -21 15 -10 13 -9 15 9 15 12 0 21
-6 21 -15z m2820 -18 c0 -20 -4 -22 -40 -19 -31 3 -40 8 -40 23 0 15 7 19 40
19 35 0 40 -3 40 -23z m610 0 c0 -20 -4 -23 -35 -19 -26 3 -35 9 -35 23 0 15
7 19 35 19 30 0 35 -3 35 -23z m-3455 1 c14 -6 25 -17 25 -25 0 -11 -6 -11
-30 2 -16 9 -30 20 -30 25 0 13 4 13 35 -2z m2845 -68 c0 -17 -7 -20 -40 -20
-33 0 -40 3 -40 20 0 17 7 20 40 20 33 0 40 -3 40 -20z m610 0 c0 -16 -7 -20
-35 -20 -28 0 -35 4 -35 20 0 16 7 20 35 20 28 0 35 -4 35 -20z m-1710 -34 c0
-8 -4 -18 -10 -21 -5 -3 -10 3 -10 14 0 12 5 21 10 21 6 0 10 -6 10 -14z
m1100 -29 c0 -20 -4 -22 -40 -19 -31 3 -40 8 -40 23 0 15 7 19 40 19 35 0 40
-3 40 -23z m610 0 c0 -20 -4 -23 -35 -19 -26 3 -35 9 -35 23 0 15 7 19 35 19
30 0 35 -3 35 -23z m-1613 -12 c-4 -8 -11 -15 -17 -15 -14 0 -13 27 3 33 16 6
21 1 14 -18z m-37 -34 c14 -10 25 -27 26 -37 1 -11 5 -27 9 -37 4 -9 4 -28 1
-42 -5 -18 2 -37 21 -67 59 -95 93 -172 93 -215 0 -41 -11 -55 -25 -33 -13 20
-35 10 -35 -16 0 -17 6 -28 20 -31 11 -3 20 -11 20 -17 0 -10 -205 -136 -221
-136 -3 0 -6 88 -6 195 0 107 3 195 8 195 7 0 79 -39 167 -92 17 -11 32 -16
32 -11 0 4 -45 33 -100 63 -55 30 -101 59 -104 66 -7 19 -1 214 7 215 15 1 78
-41 83 -56 4 -9 -1 -24 -10 -34 -17 -19 -22 -61 -7 -61 5 0 19 8 31 18 20 16
21 21 11 41 -7 12 -10 29 -7 36 3 9 -15 25 -50 44 -30 17 -54 35 -54 40 0 14
60 -5 90 -28z m1040 -16 c0 -22 -4 -25 -40 -25 -32 0 -40 4 -40 18 0 26 9 32
47 32 29 0 33 -3 33 -25z m610 0 c0 -22 -4 -25 -35 -25 -31 0 -35 3 -35 25 0
22 4 25 35 25 31 0 35 -3 35 -25z m-4295 -31 l25 -16 0 -1169 c0 -1158 0
-1168 20 -1179 15 -8 20 -21 20 -51 l0 -40 -50 28 -50 28 0 83 c0 103 0 968 0
1742 0 325 2 590 5 590 3 0 17 -7 30 -16z m3685 -34 c0 -17 -7 -20 -40 -20
-33 0 -40 3 -40 20 0 17 7 20 40 20 33 0 40 -3 40 -20z m610 0 c0 -16 -7 -20
-35 -20 -28 0 -35 4 -35 20 0 16 7 20 35 20 28 0 35 -4 35 -20z m339 -170 c0
-6 -303 -180 -313 -180 -3 0 -6 83 -6 184 l0 185 160 -92 c88 -51 160 -94 159
-97z m-4470 108 c58 -33 157 -90 219 -126 86 -49 112 -69 113 -86 3 -113 0
-2268 -4 -2272 -3 -3 -11 14 -19 38 -17 51 -32 55 -36 11 -4 -36 -3 -36 -26
-27 -12 5 -14 16 -9 50 7 51 -8 59 -31 17 l-15 -28 -1 26 c0 40 -12 89 -20 89
-5 0 -12 -17 -17 -37 l-9 -38 -13 48 c-17 57 -31 61 -31 7 0 -43 0 -43 -24
-34 -12 4 -16 20 -16 53 0 61 -10 70 -32 29 l-17 -33 -2 40 c0 22 -4 51 -9 65
-7 23 -8 24 -14 5 -22 -60 -22 -59 -34 -16 -16 51 -32 53 -32 3 0 -31 -4 -38
-20 -38 -20 0 -20 7 -20 1158 0 637 3 1158 6 1158 3 0 54 -28 113 -62z m2567
47 c17 -13 17 -14 2 -15 -9 0 -20 -5 -24 -12 -5 -8 -2 -9 9 -5 19 7 24 -17 6
-28 -15 -10 -19 -3 -26 39 -6 39 2 44 33 21z m-76 -14 c0 -5 -7 -14 -15 -21
-13 -10 -15 -9 -15 9 0 12 6 21 15 21 8 0 15 -4 15 -9z m1030 -36 c0 -22 -4
-25 -40 -25 -32 0 -40 4 -40 18 0 26 9 32 47 32 29 0 33 -3 33 -25z m610 0 c0
-22 -4 -25 -35 -25 -31 0 -35 3 -35 25 0 22 4 25 35 25 31 0 35 -3 35 -25z
m-1511 -130 l0 -20 -10 20 c-6 11 -23 37 -37 58 -21 32 -23 40 -11 47 11 7 19
-2 36 -38 12 -26 22 -56 22 -67z m-1347 33 c62 -37 67 -42 62 -67 -11 -43 -20
-44 -33 -1 -15 51 -31 51 -31 0 0 -23 -5 -40 -11 -40 -8 0 -10 -23 -7 -69 3
-58 1 -71 -14 -80 -14 -9 -18 -8 -18 4 0 24 -16 17 -30 -12 -14 -28 -14 -28
-20 24 -6 55 -16 76 -25 49 -16 -51 -17 -51 -32 -8 -19 55 -33 54 -33 -4 0
-31 -3 -43 -11 -38 -9 5 -11 -12 -7 -64 5 -67 4 -72 -18 -87 -18 -11 -24 -25
-24 -50 0 -18 5 -37 10 -40 6 -3 10 -18 10 -33 0 -64 71 -98 143 -69 27 12 36
23 42 49 14 71 23 85 58 81 l32 -3 -31 10 c-29 9 -43 31 -44 65 0 6 35 10 85
10 l84 0 -6 -25 c-7 -31 -30 -50 -60 -50 -13 0 -23 -4 -23 -9 0 -9 58 1 78 13
6 3 13 25 17 49 10 56 10 57 50 46 39 -11 114 4 120 24 2 7 11 37 20 68 l17
56 79 -45 c43 -26 75 -49 71 -53 -7 -6 -691 -402 -739 -428 l-23 -12 0 355 0
356 77 44 c85 50 70 52 185 -16z m2248 32 c0 -17 -7 -20 -40 -20 -33 0 -40 3
-40 20 0 17 7 20 40 20 33 0 40 -3 40 -20z m610 0 c0 -16 -7 -20 -35 -20 -28
0 -35 4 -35 20 0 16 7 20 35 20 28 0 35 -4 35 -20z m-2639 -97 c6 -45 9 -90 7
-100 -5 -21 -24 66 -32 146 -9 86 12 47 25 -46z m29 -107 c-7 -7 -10 17 -10
76 0 121 14 144 18 29 2 -56 -1 -98 -8 -105z m1137 149 c-4 -8 -11 -15 -17
-15 -14 0 -13 27 3 33 16 6 21 1 14 -18z m863 -10 c0 -22 -4 -25 -40 -25 -32
0 -40 4 -40 18 0 26 9 32 47 32 29 0 33 -3 33 -25z m610 0 c0 -22 -4 -25 -35
-25 -31 0 -35 3 -35 25 0 22 4 25 35 25 31 0 35 -3 35 -25z m-2665 -93 c4 -44
3 -52 -5 -34 -5 13 -12 49 -15 80 -4 44 -3 52 5 34 5 -13 12 -49 15 -80z m105
25 c-16 -87 -33 -110 -26 -35 6 56 25 113 34 103 2 -2 -1 -33 -8 -68z m2910
58 c0 -10 -10 -15 -27 -15 -27 1 -27 1 -9 15 25 19 36 19 36 0z m-3047 -67 c4
-13 1 -26 -6 -30 -8 -5 -13 0 -15 12 -5 28 -21 25 -33 -7 -13 -32 -16 -27 -22
39 l-4 47 37 -19 c21 -11 40 -29 43 -42z m-122 -65 c6 -45 9 -90 7 -100 -5
-20 -23 62 -33 147 -10 89 13 46 26 -47z m2209 77 c0 -17 -7 -20 -40 -20 -33
0 -40 3 -40 20 0 17 7 20 40 20 33 0 40 -3 40 -20z m610 0 c0 -16 -7 -20 -35
-20 -28 0 -35 4 -35 20 0 16 7 20 35 20 28 0 35 -4 35 -20z m350 0 c0 -18 -7
-20 -82 -20 l-83 0 30 20 c20 13 47 20 83 20 45 0 52 -3 52 -20z m-3139 -178
c-8 -12 -10 7 -11 70 0 118 14 147 18 35 1 -48 -2 -95 -7 -105z m-929 133 c4
-5 8 -507 8 -1113 0 -1089 0 -1104 -20 -1129 -11 -14 -20 -33 -20 -42 0 -14 2
-14 10 -1 15 23 11 -47 -5 -95 l-14 -40 3 55 c1 30 -3 89 -11 130 -9 58 -12
329 -13 1178 l0 1102 28 -17 c15 -10 30 -22 34 -28z m4136 5 c31 -19 43 -40
21 -40 -5 0 -8 -4 -4 -9 10 -16 -12 -22 -39 -10 -20 10 -26 19 -26 46 0 39 4
40 48 13z m-3263 -98 l5 -57 -14 40 c-17 47 -21 137 -5 97 5 -13 11 -49 14
-80z m109 51 c-4 -27 -13 -64 -21 -83 -13 -35 -13 -35 -8 22 5 57 19 108 30
108 4 0 3 -21 -1 -47z m2126 22 c0 -22 -4 -25 -40 -25 -32 0 -40 4 -40 18 0
26 9 32 47 32 29 0 33 -3 33 -25z m610 0 c0 -22 -4 -25 -35 -25 -31 0 -35 3
-35 25 0 22 4 25 35 25 31 0 35 -3 35 -25z m350 0 c0 -22 -4 -25 -35 -25 -24
0 -35 5 -35 15 0 18 -8 18 -40 0 -16 -9 -53 -14 -100 -14 l-75 0 40 24 c36 22
51 25 143 25 l102 0 0 -25z m-3047 -12 c-15 -13 -16 -14 -1 -9 9 2 21 -1 27
-8 12 -15 78 -16 99 -2 8 5 18 4 24 -2 20 -20 -78 -33 -134 -19 -30 8 -48 45
-27 58 21 13 32 -2 12 -18z m4242 3 c35 -23 31 -45 -12 -62 -65 -28 -176 7
-160 49 14 36 124 45 172 13z m-2997 -3 c6 -19 -25 -16 -32 3 -4 11 -1 14 11
12 9 -2 18 -9 21 -15z m-68 -39 c0 -9 -5 -14 -12 -12 -18 6 -21 28 -4 28 9 0
16 -7 16 -16z m1936 -1 c12 -3 25 0 29 7 5 8 10 8 21 -1 16 -13 20 -119 4
-119 -5 0 -10 8 -10 18 0 11 -19 29 -50 47 -32 19 -50 36 -50 48 0 14 4 17 18
12 9 -4 27 -10 38 -12z m-3426 -78 c5 -39 9 -83 9 -100 0 -26 -1 -27 -9 -9 -4
11 -11 47 -15 80 -3 32 -9 73 -12 89 -4 21 -2 27 6 20 6 -6 15 -42 21 -80z
m480 66 c-6 -11 -29 -24 -53 -30 l-42 -11 43 5 c42 5 42 5 36 -22 -10 -42 -25
-52 -77 -54 -54 -2 -57 -1 -72 45 l-12 34 41 -4 41 -3 -38 8 c-21 4 -46 16
-55 26 -16 17 -16 17 8 11 58 -17 116 -18 150 -3 19 9 36 16 38 16 1 1 -2 -8
-8 -18z m1920 -1 c0 -17 -7 -20 -40 -20 -33 0 -40 3 -40 20 0 17 7 20 40 20
33 0 40 -3 40 -20z m752 0 c-26 -16 -50 -20 -122 -20 -82 0 -90 2 -90 19 0 17
9 19 123 20 l122 1 -33 -20z m208 0 c0 -16 -7 -20 -35 -20 -28 0 -35 4 -35 20
0 16 7 20 35 20 28 0 35 -4 35 -20z m-3330 -184 c-7 -7 -10 17 -10 76 0 121
14 144 18 29 2 -56 -1 -98 -8 -105z m1925 0 c185 -107 335 -198 334 -202 -1
-5 -78 -53 -172 -107 l-170 -98 -106 62 c-58 34 -118 74 -133 90 -15 16 -33
26 -41 23 -23 -8 -112 49 -115 75 -3 18 -9 22 -35 19 -30 -3 -31 -2 -42 61 -9
49 -9 75 -1 110 8 28 15 41 20 33 4 -7 16 -12 27 -12 26 0 25 36 -1 52 -11 7
-20 18 -20 24 0 11 87 63 106 64 7 0 163 -87 349 -194z m2415 166 c0 -36 37
-56 110 -60 63 -4 71 -2 95 22 14 14 23 31 19 37 -4 7 -1 10 7 7 8 -3 13 -17
12 -32 -1 -14 3 -26 8 -26 6 0 6 -7 0 -19 -13 -24 -64 -45 -96 -39 -13 3 -26
2 -27 -3 -5 -12 -101 10 -127 29 -40 30 -36 44 6 20 30 -19 53 -23 113 -23 43
0 85 6 98 13 35 20 22 23 -23 7 -49 -17 -88 -18 -139 -4 -46 13 -88 51 -80 73
8 22 24 20 24 -2z m135 -9 c22 3 48 8 58 12 27 11 21 -22 -8 -41 -50 -33 -175
-3 -175 41 0 10 10 9 43 -2 23 -8 60 -13 82 -10z m-4374 -24 c-13 -11 -27 -17
-30 -13 -7 7 28 34 43 34 6 -1 0 -10 -13 -21z m164 -21 c-8 -20 -36 -28 -100
-28 -59 0 -86 13 -67 32 9 9 15 9 24 0 14 -14 108 -16 108 -2 0 5 8 7 18 3 14
-5 15 -3 5 8 -19 19 -16 36 2 18 9 -9 13 -23 10 -31z m3129 21 c37 -22 51 -54
19 -42 -16 6 -16 5 -4 -10 12 -15 11 -17 -5 -17 -32 1 -54 25 -54 59 0 17 2
31 4 31 3 0 21 -9 40 -21z m-3449 -87 c4 -44 3 -52 -5 -34 -5 13 -12 49 -15
80 -4 44 -3 52 5 34 5 -13 12 -49 15 -80z m105 25 c-16 -87 -33 -110 -25 -33
7 58 24 111 33 101 2 -2 -1 -33 -8 -68z m2320 48 c0 -22 -4 -25 -40 -25 -36 0
-40 3 -40 25 0 23 4 25 40 25 36 0 40 -2 40 -25z m670 20 c0 -10 -81 -45 -105
-45 -20 0 -25 5 -25 25 0 24 2 25 65 25 36 0 65 -2 65 -5z m290 -20 c0 -22 -4
-25 -35 -25 -31 0 -35 3 -35 25 0 22 4 25 35 25 31 0 35 -3 35 -25z m-1914
-31 c-3 -9 -6 -42 -6 -75 0 -57 -1 -59 -21 -49 -30 16 -52 5 -43 -22 6 -20 4
-20 -47 9 -30 17 -55 37 -56 44 -2 8 31 33 80 61 90 52 102 56 93 32z m84 -11
c0 -20 -24 -11 -28 10 -2 12 1 15 12 11 9 -3 16 -13 16 -21z m-1328 -13 c18 1
49 7 70 14 28 10 35 10 32 1 -18 -47 -186 -45 -201 2 -3 9 5 9 31 -2 19 -8 50
-15 68 -15z m1255 -27 c-3 -10 -5 -4 -5 12 0 17 2 24 5 18 2 -7 2 -21 0 -30z
m943 17 c0 -17 -7 -20 -40 -20 -33 0 -40 3 -40 20 0 17 7 20 40 20 33 0 40 -3
40 -20z m960 0 c0 -16 -7 -20 -35 -20 -28 0 -35 4 -35 20 0 16 7 20 35 20 28
0 35 -4 35 -20z m75 5 c17 0 36 -4 43 -8 14 -10 17 -107 2 -107 -5 0 -10 7
-10 15 0 9 -22 30 -50 47 -32 20 -50 38 -50 51 0 15 4 17 18 11 9 -4 31 -8 47
-9z m-3325 -21 c0 -8 -4 -14 -10 -14 -5 0 -10 9 -10 21 0 11 5 17 10 14 6 -3
10 -13 10 -21z m-170 -41 c-12 -8 -24 -12 -28 -8 -9 9 28 36 40 29 5 -4 0 -13
-12 -21z m170 2 c14 -16 10 -18 -14 -9 -9 3 -16 10 -16 15 0 14 16 11 30 -6z
m2290 -8 c0 -20 -4 -22 -40 -19 -31 3 -40 8 -40 23 0 15 7 19 40 19 35 0 40
-3 40 -23z m960 0 c0 -20 -4 -23 -35 -19 -26 3 -35 9 -35 23 0 15 7 19 35 19
30 0 35 -3 35 -23z m83 -15 c21 -19 22 -36 2 -28 -8 3 -15 1 -15 -3 0 -5 6
-12 13 -14 7 -3 4 -6 -6 -6 -36 -2 -57 18 -57 55 0 33 1 34 23 23 12 -6 30
-18 40 -27z m-3423 -8 c19 1 41 5 48 10 8 5 18 4 24 -2 24 -24 -117 -35 -152
-12 -13 9 -13 11 0 19 10 7 20 6 30 -3 8 -7 31 -13 50 -12z m2704 -10 c3 -9 6
-128 6 -266 0 -224 -2 -250 -16 -244 -9 3 -18 6 -20 6 -2 0 -4 117 -4 260 0
216 2 260 14 260 8 0 17 -7 20 -16z m-2709 -24 c20 0 51 7 70 14 39 17 47 5
13 -18 -12 -9 -16 -16 -9 -16 9 0 11 -8 6 -27 -9 -40 -25 -52 -70 -54 -54 -3
-82 7 -89 34 -11 42 -8 46 32 42 37 -5 37 -5 5 4 -35 9 -63 28 -63 42 0 4 16
1 35 -7 19 -7 50 -14 70 -14z m1310 4 c25 -14 49 -23 55 -19 5 3 18 1 27 -5
15 -9 14 -10 -7 -5 -23 6 -23 5 -7 -8 23 -19 22 -31 -3 -24 -11 3 -22 1 -26
-4 -3 -5 -18 -2 -34 6 -16 8 -38 15 -50 15 -16 0 -20 6 -20 35 0 42 8 43 65 9z
m95 -1 c0 -20 -24 -11 -28 10 -2 12 1 15 12 11 9 -3 16 -13 16 -21z m40 -30
c0 -33 -2 -36 -15 -23 -8 9 -12 24 -9 38 10 35 24 26 24 -15z m940 17 c0 -17
-7 -20 -40 -20 -33 0 -40 3 -40 20 0 17 7 20 40 20 33 0 40 -3 40 -20z m960 0
c0 -16 -7 -20 -35 -20 -28 0 -35 4 -35 20 0 16 7 20 35 20 28 0 35 -4 35 -20z
m775 -188 c171 -96 314 -177 319 -179 4 -3 -36 -32 -90 -63 -65 -39 -100 -54
-102 -46 -2 8 -18 22 -37 32 -28 15 -35 25 -35 49 -1 28 -10 36 -188 137 -174
99 -189 106 -209 92 -12 -7 -29 -11 -37 -8 -10 4 -88 -36 -196 -97 l-180 -104
0 -57 0 -56 213 -122 c116 -67 215 -125 219 -128 6 -6 -769 -461 -814 -477
-12 -5 -119 52 -335 176 -175 100 -324 187 -330 193 -10 9 25 33 142 100 86
49 158 87 160 84 3 -3 8 -49 12 -103 7 -117 24 -142 111 -175 78 -30 235 -25
299 8 73 38 78 52 92 227 8 107 17 164 27 180 11 17 15 46 13 106 l-2 83 299
172 c256 148 301 171 319 162 11 -6 160 -90 330 -186z m-1322 161 c8 -14 59
-431 55 -457 -2 -19 -7 -23 -17 -17 -10 7 -23 75 -43 233 -15 122 -26 229 -23
236 5 13 21 16 28 5z m310 -6 c5 -13 -53 -161 -60 -154 -4 5 25 145 33 158 8
13 21 11 27 -4z m-1803 -20 c8 -7 16 -21 17 -32 1 -11 0 -14 -3 -7 -3 6 -13
12 -22 12 -25 0 -46 16 -38 29 9 14 27 14 46 -2z m1080 -10 c0 -20 -4 -22 -40
-19 -31 3 -40 8 -40 23 0 15 7 19 40 19 35 0 40 -3 40 -23z m960 10 c0 -22
-41 -32 -110 -27 l-65 5 30 17 c38 22 145 25 145 5z m-1903 -12 c20 -14 52
-110 40 -121 -2 -3 -20 5 -38 16 -27 17 -29 21 -11 17 19 -5 23 -2 20 16 -2
12 -13 26 -25 32 -14 6 -23 18 -23 32 0 27 8 28 37 8z m-53 -10 c3 -9 0 -15
-8 -15 -8 0 -16 7 -20 15 -3 9 0 15 8 15 8 0 16 -7 20 -15z m136 -5 c0 -12
-28 -25 -36 -17 -9 9 6 27 22 27 8 0 14 -5 14 -10z m-157 -14 c16 -12 24 -36
11 -36 -16 0 -44 23 -44 35 0 18 10 19 33 1z m-33 -29 c46 -28 56 -38 58 -65
2 -18 0 -32 -5 -32 -4 0 -30 14 -58 30 -53 31 -65 35 -65 21 0 -5 14 -14 31
-21 26 -11 28 -15 16 -27 -12 -12 -18 -12 -34 -3 -15 10 -19 25 -21 71 -1 41
2 59 11 59 6 0 37 -15 67 -33z m1802 12 c-1 -8 -37 -98 -79 -201 -60 -145 -81
-188 -95 -188 -10 0 -18 3 -18 8 0 4 36 96 81 205 63 152 86 197 98 194 9 -2
15 -10 13 -18z m-1704 -18 c3 -8 -1 -12 -9 -9 -7 2 -15 10 -17 17 -3 8 1 12 9
9 7 -2 15 -10 17 -17z m140 -8 c26 -15 48 -28 50 -29 2 -1 -6 -21 -18 -43 -18
-37 -23 -40 -41 -30 -12 6 -18 17 -15 25 5 14 -4 18 -36 15 -10 -1 -18 4 -18
12 0 8 -3 29 -6 46 -6 27 -4 31 15 31 13 0 43 -12 69 -27z m812 7 c0 -17 -7
-20 -50 -20 -48 0 -50 1 -38 20 9 14 24 20 50 20 31 0 38 -4 38 -20z m842 0
c-28 -17 -82 -28 -82 -16 0 27 16 36 64 36 l51 0 -33 -20z m-1798 -46 c16 -6
24 -74 8 -74 -17 0 -32 25 -32 52 0 30 1 31 24 22z m283 -63 c45 -91 96 -280
100 -376 4 -68 1 -85 -16 -113 -33 -51 -77 -73 -141 -70 l-54 3 -12 41 c-12
41 -12 41 15 38 14 -2 18 -1 9 2 -21 6 -23 20 -5 27 7 3 4 6 -6 6 -28 1 -41
20 -67 91 l-23 65 26 90 c51 178 94 269 125 263 9 -2 31 -32 49 -67z m643 49
c-25 -14 -55 -19 -110 -20 l-75 0 30 19 c23 15 49 20 110 20 l80 0 -35 -19z
m676 4 c-3 -9 -6 -19 -6 -23 0 -3 -18 -5 -41 -3 l-41 4 29 18 c36 24 67 26 59
4z m799 2 c18 -13 17 -15 -12 -52 -17 -22 -56 -63 -86 -92 l-54 -53 -56 33
c-31 18 -57 35 -57 38 0 7 222 138 236 139 5 1 19 -5 29 -13z m-99 -5 c-3 -5
-49 -33 -101 -63 l-95 -53 0 -41 0 -41 194 -112 194 -112 119 71 c65 40 123
78 129 86 10 12 15 12 35 -4 l23 -19 -162 -97 c-89 -53 -166 -96 -172 -96 -14
0 -500 282 -500 290 0 5 328 199 338 200 2 0 1 -4 -2 -9z m-2248 -50 c3 -24 0
-32 -10 -29 -7 3 -14 19 -16 37 -3 24 0 32 10 29 7 -3 14 -19 16 -37z m50 17
c-6 -18 -28 -21 -28 -4 0 9 7 16 16 16 9 0 14 -5 12 -12z m2373 -5 c16 -10 29
-20 29 -23 0 -8 -161 -180 -168 -180 -4 0 -22 9 -40 20 l-33 20 83 90 c45 50
87 90 91 90 5 0 22 -8 38 -17z m-2528 -4 l21 -12 -24 -9 c-26 -9 -47 3 -36 21
9 14 12 14 39 0z m-69 -20 c20 -12 36 -27 36 -35 0 -9 11 -14 30 -14 37 0 70
-31 70 -65 0 -14 -3 -25 -7 -25 -5 0 -46 22 -93 49 -75 43 -85 52 -88 80 -4
37 5 38 52 10z m518 -33 l93 -54 3 -51 c2 -28 0 -51 -3 -51 -3 0 -24 10 -46
23 -33 19 -38 26 -34 47 5 22 0 29 -30 43 -20 10 -40 15 -44 13 -4 -3 -15 15
-24 40 -9 24 -14 44 -12 44 2 0 45 -24 97 -54z m-3274 17 c42 -62 92 -219 92
-293 0 -57 -10 -84 -32 -86 -7 0 -24 -2 -37 -2 -20 -2 -21 -4 -11 -17 10 -12
10 -15 -2 -15 -10 0 -27 37 -52 113 -21 61 -40 118 -43 126 -4 11 2 12 30 7
19 -4 38 -3 40 1 3 4 -10 9 -29 10 -18 1 -43 10 -55 21 l-21 20 22 49 c44 100
64 114 98 66z m3018 -10 c-3 -8 -6 -19 -6 -24 0 -14 -23 -11 -47 6 -24 17 -21
42 5 48 26 5 54 -12 48 -30z m1444 28 c0 -8 -130 -3 -139 5 -2 2 28 4 67 4 40
0 72 -4 72 -9z m-1622 -23 c-3 -7 -13 -15 -24 -17 -16 -3 -17 -1 -5 13 16 19
34 21 29 4z m60 -4 c19 -9 32 -23 32 -35 0 -10 -3 -19 -7 -19 -14 1 -50 34
-56 53 -8 21 -8 21 31 1z m1560 1 c14 -14 -20 -20 -90 -17 -63 3 -78 7 -78 19
0 14 11 15 81 10 45 -4 84 -9 87 -12z m1045 -41 c81 -46 97 -59 86 -69 -8 -7
-60 -40 -117 -74 l-103 -61 -65 36 c-35 19 -66 39 -68 42 -4 8 151 182 162
182 3 0 50 -25 105 -56z m-1275 34 c-5 -15 -58 -24 -58 -9 0 11 17 19 43 20
11 1 17 -4 15 -11z m-1235 -67 c-4 -17 -8 -18 -29 -9 -15 7 -24 20 -24 35 0
23 1 23 29 8 21 -11 28 -20 24 -34z m579 27 c-27 -17 -47 -21 -100 -19 -37 1
-68 4 -70 6 -2 2 9 10 25 19 18 10 55 15 103 15 l75 1 -33 -22z m854 16 l22
-6 -25 -61 c-45 -110 -40 -109 -89 -18 -24 44 -44 83 -44 86 0 7 110 6 136 -1z
m134 -9 c26 -13 50 -42 50 -59 0 -3 -20 9 -45 26 -60 43 -63 63 -5 33z m-2462
-715 l-3 -239 -255 147 c-171 99 -258 155 -265 170 -7 16 -16 21 -29 18 -10
-2 -29 0 -42 6 -23 11 -24 14 -24 137 l0 127 29 17 c16 9 32 17 35 17 3 0 6
-54 6 -120 0 -119 0 -120 27 -137 79 -52 449 -260 456 -256 4 2 7 184 7 403
l0 399 28 15 27 14 3 -239 c1 -131 1 -347 0 -479z m2001 708 c0 -15 -59 -64
-59 -50 0 9 48 62 56 62 2 0 4 -6 3 -12z m-1343 -40 c-17 -9 -56 6 -56 22 0
16 25 17 48 2 20 -13 21 -17 8 -24z m499 -1 c-12 -6 -22 -5 -32 6 -24 24 -6
40 23 20 23 -14 24 -17 9 -26z m1323 -10 c12 -11 22 -26 22 -33 0 -25 -92 -86
-107 -71 -3 3 1 37 7 76 12 66 14 70 34 59 12 -6 31 -20 44 -31z m488 11 c45
-27 54 -37 54 -61 l0 -28 -62 35 c-48 27 -64 41 -66 61 -4 33 9 32 74 -7z
m-2146 -3 c0 -14 -4 -25 -10 -25 -11 0 -14 33 -3 43 11 11 13 8 13 -18z m-900
-381 l0 -386 -32 20 c-18 11 -116 68 -218 127 -102 58 -189 110 -193 114 -5 5
-8 64 -8 132 l0 123 48 28 c26 15 51 28 56 28 4 0 7 -60 7 -132 l1 -133 109
-61 c60 -34 111 -59 114 -56 3 3 6 87 6 186 l0 181 -60 33 c-33 18 -62 37 -64
41 -5 7 208 138 227 140 4 1 7 -173 7 -385z m824 360 c30 -17 46 -32 46 -45 0
-25 -3 -24 -61 9 -46 26 -57 40 -42 55 8 9 4 11 57 -19z m118 14 c11 -9 15
-22 11 -40 -5 -24 -7 -26 -29 -16 -15 7 -23 17 -19 26 3 7 5 20 5 28 0 17 11
18 32 2z m516 -2 c-10 -7 -18 -18 -18 -25 0 -6 -17 -11 -40 -11 -32 0 -40 4
-40 18 0 28 9 32 64 32 45 -1 49 -2 34 -14z m-3610 -21 c47 -60 119 -295 129
-420 4 -62 2 -74 -19 -105 -13 -19 -39 -45 -57 -57 -34 -23 -91 -31 -91 -14 0
5 -14 23 -30 41 -29 31 -31 32 -55 16 -24 -16 -25 -16 -45 16 -11 19 -20 51
-20 75 0 127 113 473 154 473 8 0 23 -11 34 -25z m2984 -55 c26 -15 26 -16 9
-39 l-18 -24 -50 28 c-56 30 -98 78 -89 101 6 15 31 4 148 -66z m500 -5 c17
-14 17 -17 3 -31 -31 -32 -108 16 -120 74 l-7 34 53 -31 c29 -16 61 -37 71
-46z m1128 17 c-8 -45 -16 -60 -26 -49 -3 3 2 26 11 52 22 55 26 54 15 -3z
m602 -104 l248 -143 0 -43 c0 -24 -3 -41 -7 -39 -5 2 -119 68 -255 147 l-248
142 0 39 c0 21 3 39 7 39 4 0 119 -64 255 -142z m528 118 c0 -21 -18 -36 -112
-92 -62 -37 -116 -69 -120 -71 -5 -2 -8 9 -8 24 0 25 12 35 113 96 61 37 115
67 120 67 4 0 7 -11 7 -24z m-2876 -55 c50 -99 106 -312 106 -402 0 -128 -119
-204 -230 -147 -63 32 -93 92 -86 168 12 123 95 384 137 429 26 27 40 18 73
-48z m2447 52 c21 -13 29 -25 29 -45 0 -34 0 -33 -44 -7 -25 15 -36 28 -36 45
0 28 12 30 51 7z m-2240 -13 c20 -11 26 -35 11 -44 -15 -9 -52 23 -46 39 7 18
10 18 35 5z m519 -10 c0 -17 -7 -20 -40 -20 -33 0 -40 3 -40 20 0 17 7 20 40
20 33 0 40 -3 40 -20z m570 0 c0 -17 -7 -20 -47 -20 l-48 0 30 20 c39 26 65
26 65 0z m133 -47 c39 -13 81 -17 167 -17 125 1 189 16 248 61 l32 24 0 -37
c0 -82 -111 -135 -285 -135 -178 0 -285 52 -285 138 l0 32 35 -24 c20 -13 59
-32 88 -42z m1134 2 c56 -32 63 -39 63 -66 l0 -31 -37 23 c-21 12 -53 31 -70
41 -23 14 -33 27 -33 44 0 13 3 24 7 24 3 0 35 -16 70 -35z m-2503 -6 c48 -28
49 -61 1 -43 -14 6 -52 64 -41 64 3 0 21 -9 40 -21z m169 -86 c61 -160 100
-340 87 -400 -16 -71 -73 -122 -142 -130 l-45 -5 -7 73 c-8 85 -8 79 0 144 4
35 0 77 -15 138 -12 49 -21 90 -21 92 0 1 19 -1 42 -6 29 -7 44 -6 52 2 8 8 5
10 -11 5 -12 -4 -24 -2 -28 4 -3 6 -10 8 -15 5 -10 -6 -50 16 -50 27 0 22 43
118 62 138 l22 23 25 -31 c15 -17 34 -52 44 -79z m497 72 c0 -20 -5 -25 -23
-25 -16 0 -28 9 -35 25 -11 24 -10 25 23 25 31 0 35 -3 35 -25z m570 21 c0 -2
-15 -14 -34 -26 -29 -17 -47 -20 -108 -18 l-73 3 40 22 c30 16 57 22 108 23
37 0 67 -2 67 -4z m-675 -16 c13 11 15 7 15 -34 l0 -46 -42 26 c-24 15 -44 28
-46 29 -1 1 0 9 4 18 5 13 10 14 30 5 17 -8 27 -8 39 2z m2325 -28 c0 -40 -3
-42 -292 -212 l-38 -22 0 44 0 44 153 91 c83 50 158 92 165 92 7 1 12 -13 12
-37z m-3851 -7 c52 -31 61 -40 61 -65 0 -21 -8 -33 -30 -47 -25 -14 -30 -24
-30 -54 0 -30 -6 -42 -29 -58 -58 -42 -61 -36 -61 119 0 115 3 140 14 140 8 0
42 -16 75 -35z m-99 -108 c0 -117 -7 -147 -32 -147 -4 0 -8 55 -8 123 0 117 7
147 32 147 4 0 8 -55 8 -123z m1078 75 c2 -12 -1 -22 -7 -22 -6 0 -11 4 -11 9
0 5 -3 17 -7 27 -4 12 -2 15 8 12 8 -2 15 -14 17 -26z m523 -4 c43 -31 44 -32
19 -39 -14 -4 -19 -7 -12 -8 7 -1 10 -5 7 -11 -8 -13 -65 16 -65 33 0 6 -3 22
-6 35 -8 30 5 28 57 -10z m56 -10 c-3 -7 -5 -2 -5 12 0 14 2 19 5 13 2 -7 2
-19 0 -25z m73 12 c0 -15 -7 -20 -25 -20 -18 0 -25 5 -25 20 0 15 7 20 25 20
18 0 25 -5 25 -20z m432 0 c-25 -16 -50 -20 -110 -20 l-77 1 35 19 c25 14 55
19 110 20 l75 0 -33 -20z m231 0 c104 -46 299 -46 406 1 24 11 45 18 46 17 6
-9 -24 -298 -33 -315 -39 -73 -259 -96 -376 -39 -66 32 -72 46 -81 196 -3 58
-8 117 -11 133 -7 32 -8 32 49 7z m-663 -65 c0 -21 -5 -25 -29 -25 -31 0 -46
21 -28 39 6 6 21 11 34 11 18 0 23 -6 23 -25z m350 20 c0 -2 -18 -14 -40 -25
-32 -16 -56 -20 -108 -18 l-67 3 35 22 c28 18 50 23 108 23 39 0 72 -2 72 -5z
m-460 -30 c18 6 20 2 20 -35 l0 -42 -37 23 c-52 31 -55 33 -47 52 5 13 10 14
25 6 11 -5 29 -7 39 -4z m-3260 -80 l0 -85 -32 -20 -33 -20 -11 58 c-6 31 -14
69 -17 85 -6 20 -4 27 7 27 8 0 19 6 23 14 7 12 26 20 56 25 4 0 7 -37 7 -84z
m1800 55 c0 -22 -8 -25 -30 -10 -13 9 -13 11 0 20 22 15 30 12 30 -10z m-397
-253 c13 -11 17 -20 11 -23 -44 -19 -47 -28 -24 -81 16 -38 19 -56 12 -70 -9
-17 -7 -18 21 -16 44 5 137 -49 138 -80 1 -12 3 -16 5 -7 5 15 66 60 83 60 5
0 11 -3 14 -7 2 -5 2 -3 1 4 -2 7 2 15 8 19 5 4 -27 28 -73 54 -47 28 -86 58
-91 70 -4 11 -4 19 0 16 4 -2 121 -70 261 -150 l253 -146 190 110 c105 60 194
110 198 110 4 0 10 -18 13 -40 9 -68 63 -125 132 -140 l30 -6 3 -90 3 -90 -70
-40 c-65 -36 -71 -42 -71 -71 0 -18 -4 -33 -8 -33 -5 0 -150 81 -323 181 -173
99 -327 187 -342 196 -30 15 -38 11 -514 -270 l-33 -19 0 130 0 131 30 -9 c59
-17 110 -53 119 -84 8 -25 9 -27 10 -8 1 24 57 66 78 58 6 -3 13 4 16 15 4 16
-9 28 -73 64 -69 41 -80 50 -98 95 -20 47 -43 63 -57 40 -19 -31 -25 4 -25
148 l0 157 73 41 72 42 3 -122 c2 -111 4 -122 25 -139z m1865 180 c3 -13 -1
-15 -15 -10 -16 6 -16 5 -4 -10 17 -22 1 -22 -39 -2 -25 13 -30 22 -30 51 l0
35 42 -23 c24 -13 44 -31 46 -41z m29 31 c-3 -7 -5 -2 -5 12 0 14 2 19 5 13 2
-7 2 -19 0 -25z m73 12 c0 -15 -7 -20 -25 -20 -18 0 -25 5 -25 20 0 15 7 20
25 20 18 0 25 -5 25 -20z m203 -1 c-26 -16 -45 -19 -105 -17 l-73 3 30 17 c21
12 53 17 105 17 l75 1 -32 -21z m-1792 1 c16 -9 19 -22 19 -85 l0 -75 -25 12
c-23 10 -25 16 -25 85 0 40 3 73 6 73 3 0 14 -5 25 -10z m1378 -192 c-16 -38
-61 -75 -108 -88 -56 -15 -71 -6 -71 44 0 22 -4 58 -9 78 l-9 36 33 -5 c47 -8
100 13 137 53 l33 35 3 -62 c2 -34 -2 -75 -9 -91z m331 148 c0 -2 -15 -14 -34
-25 -25 -16 -50 -21 -100 -21 l-67 0 18 25 c17 22 24 24 101 25 45 0 82 -2 82
-4z m-1750 -46 c0 -34 0 -34 -35 -18 l-26 12 23 18 c32 24 38 23 38 -12z
m1516 3 c22 4 24 1 24 -35 l0 -39 -42 23 c-28 15 -44 31 -46 46 -3 21 -2 22
18 12 12 -7 33 -10 46 -7z m-1530 -45 c46 -27 73 -49 74 -60 0 -10 -3 -18 -7
-18 -5 0 -155 84 -172 96 -6 5 10 24 21 24 6 0 44 -19 84 -42z m-1717 -335 l0
-338 -38 115 c-41 125 -62 173 -93 207 l-21 22 27 31 c14 17 29 44 32 58 3 15
8 33 10 41 2 8 -1 40 -7 71 -12 61 -2 100 25 100 8 0 19 7 26 15 7 8 19 15 26
15 12 0 14 -57 13 -337z m-287 182 c15 -28 39 -88 54 -134 l27 -84 -30 -71
c-21 -50 -35 -71 -47 -70 -13 2 -14 -1 -5 -12 9 -11 8 -14 -7 -15 -18 -1 -18
-2 -1 -6 14 -4 17 -11 13 -26 -4 -12 -14 -52 -23 -89 -16 -65 -18 -68 -47 -68
-78 0 -136 71 -136 165 0 95 72 351 122 433 27 44 47 38 80 -23z m1748 43 c0
-17 -77 -61 -85 -48 -3 5 11 20 32 34 44 29 53 31 53 14z m-1865 -60 l-14 -33
-1 32 c0 17 3 39 6 48 6 15 8 15 15 2 6 -9 3 -28 -6 -49z m305 -12 c0 -58 -29
-115 -71 -140 -23 -14 -30 -14 -34 -4 -41 111 -44 129 -27 134 48 15 83 36 98
59 22 34 34 17 34 -49z m1574 35 c6 -10 -53 -51 -73 -51 -22 0 -11 20 22 40
36 22 43 24 51 11z m1037 -76 c59 -31 156 -12 196 39 12 14 24 26 27 26 3 0 6
-28 6 -61 0 -81 -28 -131 -88 -160 -32 -16 -55 -20 -89 -16 -58 6 -92 31 -122
90 -20 40 -22 56 -16 102 l6 55 26 -30 c14 -17 38 -37 54 -45z m630 33 c33
-18 59 -36 59 -41 0 -4 -11 -12 -24 -18 -20 -10 -34 -5 -97 32 -68 40 -72 44
-49 50 42 12 51 10 111 -23z m-1651 10 c0 -17 -77 -61 -85 -49 -3 5 14 21 37
35 50 30 48 30 48 14z m1494 6 c13 -5 16 -23 16 -93 l0 -86 -93 -52 c-52 -29
-99 -53 -104 -53 -6 0 -13 -4 -15 -9 -4 -11 -175 -111 -189 -111 -6 0 -9 34
-7 81 l3 81 39 13 c41 14 102 67 111 96 4 13 17 17 49 17 24 0 57 7 73 16 32
16 93 80 93 96 0 12 3 12 24 4z m-1470 -32 c5 -8 -62 -52 -78 -52 -16 0 -2 20
27 38 37 23 44 25 51 14z m1567 -24 c33 -18 59 -35 59 -38 0 -5 -115 -70 -124
-70 -3 0 -6 32 -6 70 0 39 3 70 6 70 4 0 33 -15 65 -32z m-1822 -19 c-29 -22
-39 -24 -39 -6 0 16 40 37 54 29 5 -3 -2 -13 -15 -23z m301 16 c0 -8 -69 -45
-84 -45 -26 0 -18 15 21 37 30 17 63 21 63 8z m-273 -37 c-2 -7 -19 -21 -36
-31 -27 -16 -31 -16 -31 -2 0 8 14 24 32 35 34 20 44 20 35 -2z m317 13 c3 -5
-14 -19 -39 -32 -34 -18 -47 -21 -56 -12 -9 9 -4 17 22 32 36 22 64 27 73 12z
m36 -29 c0 -10 -59 -42 -76 -42 -25 0 -15 15 23 37 35 20 53 22 53 5z m1530
-17 c0 -14 -8 -29 -20 -35 -18 -10 -20 -8 -20 18 0 32 7 42 27 42 7 0 13 -11
13 -25z m-1866 6 c6 -9 -56 -51 -75 -51 -20 0 -7 17 29 38 44 25 39 24 46 13z
m1891 0 c3 -5 1 -12 -5 -16 -5 -3 -10 1 -10 9 0 18 6 21 15 7z m-92 -69 c-16
-12 -18 -10 -21 14 -3 19 3 33 15 42 16 12 18 10 21 -14 3 -19 -3 -33 -15 -42z
m-1773 39 c0 -10 -65 -51 -81 -51 -20 0 -7 17 29 38 41 24 52 27 52 13z m1740
-31 c0 -19 -7 -33 -20 -40 -18 -10 -20 -8 -20 18 0 27 15 52 32 52 4 0 8 -13
8 -30z m-1705 10 c6 -10 -51 -50 -72 -50 -23 0 -14 18 20 39 36 23 43 25 52
11z m-1488 -39 c57 -84 113 -292 113 -419 0 -93 0 -94 -33 -127 -90 -90 -232
-55 -268 64 -15 50 -5 123 35 261 48 165 94 266 119 257 7 -2 22 -18 34 -36z
m1506 -18 c-43 -26 -43 -26 -62 -14 -10 6 -2 15 30 34 33 20 46 23 57 15 11
-9 6 -16 -25 -35z m605 -95 c136 -78 319 -183 406 -233 88 -51 161 -96 163
-101 2 -9 -594 -361 -607 -357 -3 1 -38 20 -78 43 -64 37 -72 45 -72 72 0 25
-3 29 -17 23 -10 -4 -25 -9 -34 -12 -9 -2 -130 60 -270 140 l-254 144 -3 59
-3 59 258 152 c142 84 259 152 261 153 2 0 114 -64 250 -142z m1032 112 c0
-16 -2 -30 -4 -30 -2 0 -11 -3 -20 -6 -12 -5 -16 0 -16 18 0 24 16 48 32 48 4
0 8 -13 8 -30z m-1566 -9 c9 -14 -62 -54 -82 -46 -14 5 -9 11 23 31 44 26 51
28 59 15z m1516 -21 c0 -23 -5 -31 -25 -36 -14 -3 -25 -10 -25 -14 0 -4 -7
-10 -15 -14 -11 -4 -15 2 -15 23 0 22 8 34 33 49 43 27 47 27 47 -8z m-90 -43
c0 -13 -9 -32 -20 -42 -20 -18 -20 -17 -20 18 0 31 9 44 33 46 4 1 7 -10 7
-22z m-50 -30 c0 -13 -9 -32 -20 -42 -20 -18 -20 -17 -20 18 0 31 9 44 33 46
4 1 7 -10 7 -22z m-50 -30 c0 -23 -17 -47 -32 -47 -13 0 -9 58 5 63 23 10 27
7 27 -16z m-50 -30 c0 -23 -17 -47 -32 -47 -13 0 -9 58 5 63 23 10 27 7 27
-16z m-50 -30 c0 -23 -17 -47 -32 -47 -10 0 -11 54 -1 63 14 15 33 6 33 -16z
m-67 -65 c-16 -12 -18 -10 -21 14 -3 19 3 33 15 42 16 12 18 10 21 -14 3 -19
-3 -33 -15 -42z m-37 -18 c-3 -8 -10 -14 -16 -14 -14 0 -12 57 3 63 13 4 22
-26 13 -49z m-36 10 c0 -21 -18 -54 -30 -54 -15 0 -12 58 3 63 21 9 27 7 27
-9z m-50 -30 c0 -21 -18 -54 -30 -54 -11 0 -14 53 -3 63 12 13 33 7 33 -9z
m-2320 -229 c6 -53 9 -99 7 -102 -7 -6 -25 88 -32 167 -10 105 13 48 25 -65z
m1311 -27 c137 -77 248 -142 247 -143 -2 -2 -82 -47 -178 -102 -96 -55 -251
-143 -343 -197 -201 -116 -197 -114 -197 -87 0 12 -9 29 -20 38 -18 16 -20 25
-14 92 5 57 4 72 -5 67 -7 -5 -17 -20 -24 -34 -11 -27 -11 -27 -14 13 -5 67
-13 91 -24 74 -5 -7 -9 -24 -9 -36 0 -38 -15 -26 -28 23 -16 58 -34 48 -25
-14 6 -43 5 -46 -10 -33 -15 12 -17 11 -17 -12 0 -19 -4 -25 -15 -21 -12 5
-14 21 -9 82 5 71 4 76 -10 58 -9 -11 -16 -25 -16 -30 0 -6 5 -4 10 4 8 12 10
9 10 -13 0 -35 -20 -119 -31 -131 -11 -13 -11 -6 1 68 6 38 6 65 -1 77 -11 22
-17 18 264 179 l197 113 0 53 c0 30 3 54 6 54 3 0 118 -64 255 -142z m-1272
50 c-2 -117 -17 -138 -18 -25 -1 58 3 97 9 97 6 0 10 -30 9 -72z m-61 -93 c0
-28 -1 -28 -13 10 -8 22 -13 58 -13 80 l0 40 13 -50 c7 -27 13 -63 13 -80z
m101 63 c-14 -89 -30 -116 -25 -42 3 53 21 112 31 102 2 -1 -1 -28 -6 -60z
m97 -101 c5 -101 -12 -63 -21 47 -5 56 -4 67 5 53 7 -11 14 -56 16 -100z m43
30 c0 -29 -4 -72 -8 -97 l-7 -45 -7 56 c-8 63 1 151 14 143 5 -3 9 -29 8 -57z
m-109 27 c0 -8 -5 -14 -11 -14 -8 0 -7 -6 2 -16 23 -28 -21 -54 -90 -54 -65 0
-93 12 -73 32 9 9 15 9 24 0 14 -14 108 -16 108 -2 0 5 8 6 18 3 14 -5 15 -4
6 8 -9 11 -12 50 -5 67 3 9 21 -11 21 -24z m40 -73 c5 -30 10 -63 9 -75 -1
-27 -23 43 -33 104 -10 65 11 39 24 -29z m-200 51 c0 -4 -9 -13 -20 -20 -22
-13 -27 -3 -8 16 14 14 28 16 28 4z m296 -92 l-14 -45 -1 35 c0 19 5 53 11 75
12 40 12 40 15 10 2 -16 -3 -50 -11 -75z m112 -85 c0 -51 -1 -56 -9 -30 -5 17
-11 66 -14 110 l-4 80 13 -50 c8 -27 14 -77 14 -110z m34 -7 l-8 -73 -8 44
c-5 23 -5 73 -1 110 8 64 8 65 16 29 5 -21 5 -70 1 -110z m-358 108 c23 3 49
11 60 16 14 8 17 7 14 -4 -16 -48 -179 -50 -195 -1 -3 7 9 6 38 -4 28 -9 57
-12 83 -7z m256 -7 c0 -20 -15 -26 -24 -10 -8 13 4 42 15 35 5 -3 9 -14 9 -25z
m-160 1 c0 -5 -5 -10 -11 -10 -5 0 -7 5 -4 10 3 6 8 10 11 10 2 0 4 -4 4 -10z
m1480 -10 c0 -5 -5 -10 -11 -10 -5 0 -7 5 -4 10 3 6 8 10 11 10 2 0 4 -4 4
-10z m-1528 -40 c-7 -40 -21 -50 -73 -50 -53 0 -79 18 -79 53 0 21 5 22 78 22
78 0 78 0 74 -25z m48 22 c0 -4 -9 -13 -20 -20 -22 -13 -27 -3 -8 16 14 14 28
16 28 4z m160 -24 c0 -5 -9 -4 -20 2 -11 6 -18 15 -14 21 6 11 34 -7 34 -23z
m40 -39 c13 -76 7 -105 -8 -43 -18 71 -23 114 -13 114 5 0 15 -32 21 -71z
m1240 38 c0 -23 -17 -47 -32 -47 -10 0 -11 54 -1 63 14 15 33 6 33 -16z m35 3
c0 -7 -6 -15 -12 -17 -8 -3 -13 4 -13 17 0 13 5 20 13 18 6 -3 12 -11 12 -18z
m-1465 -10 c0 -14 97 -13 106 1 4 8 9 8 18 -1 18 -18 -12 -30 -74 -30 -59 0
-87 11 -76 29 9 14 26 14 26 1z m396 -130 c3 -66 2 -78 -6 -55 -15 44 -24 198
-10 165 6 -14 13 -63 16 -110z m984 107 c0 -23 -17 -47 -32 -47 -10 0 -11 54
-1 63 14 15 33 6 33 -16z m-1069 -40 c-13 -13 -15 11 -4 40 7 16 8 15 11 -6 2
-13 -1 -28 -7 -34z m118 -54 c0 -70 -3 -101 -9 -88 -15 34 -10 195 6 195 2 0
4 -48 3 -107z m-379 67 c17 0 47 7 66 15 26 11 34 11 31 2 -11 -36 -133 -51
-175 -21 -34 23 -26 35 13 18 19 -7 48 -14 65 -14z m1263 -38 c-16 -12 -18
-10 -21 14 -3 19 3 33 15 42 16 12 18 10 21 -14 3 -19 -3 -33 -15 -42z m-1158
-9 c-24 -17 -27 -12 -12 20 10 22 13 23 21 10 6 -12 3 -20 -9 -30z m1123 15
c-4 -40 -38 -54 -38 -16 0 24 16 48 33 48 4 0 7 -15 5 -32z m-909 -68 c6 -35
9 -65 7 -67 -7 -7 -26 59 -31 110 -9 74 11 39 24 -43z m-255 40 c-11 -32 -15
-35 -58 -38 -58 -4 -86 11 -86 46 l0 27 78 0 78 0 -12 -35z m211 19 c12 -19
-5 -23 -22 -6 -16 16 -16 17 -1 17 9 0 20 -5 23 -11z m903 -21 c-4 -40 -38
-54 -38 -16 0 24 16 48 33 48 4 0 7 -15 5 -32z m-1045 -1 c6 -16 79 -16 100 1
11 10 17 10 22 1 17 -27 -70 -42 -143 -24 -20 5 -22 8 -12 20 15 18 26 19 33
2z m995 -29 c-4 -41 -28 -50 -28 -10 0 16 3 32 7 35 15 16 24 5 21 -25z m-603
-101 c4 -63 3 -76 -5 -57 -6 13 -13 60 -16 105 -3 60 -2 74 6 57 5 -13 12 -60
15 -105z m35 22 c0 -64 -4 -98 -10 -94 -17 10 -11 195 6 195 2 0 4 -45 4 -101z
m-385 66 c28 0 64 4 80 8 l30 8 -24 -20 c-37 -33 -181 -25 -181 9 0 8 8 8 23
3 12 -4 45 -8 72 -8z m915 -4 c0 -11 -8 -27 -17 -37 -17 -17 -18 -17 -21 5 -2
12 -1 29 2 37 8 21 36 17 36 -5z m-805 -48 c-10 -7 -21 -10 -24 -7 -3 3 1 11
10 17 9 7 14 19 12 27 -2 8 1 7 8 -4 10 -16 9 -22 -6 -33z m755 23 c0 -14 -8
-32 -17 -42 -17 -17 -18 -16 -21 16 -2 19 2 36 10 41 21 14 28 10 28 -15z
m-537 -104 c3 -23 1 -40 -3 -37 -11 7 -30 97 -29 133 1 23 3 22 13 -13 7 -22
15 -59 19 -83z m97 32 c-14 -71 -36 -91 -25 -21 9 59 27 115 33 99 2 -7 -1
-42 -8 -78z m-356 36 c-11 -33 -15 -35 -64 -38 -58 -3 -76 6 -82 46 l-4 27 81
0 81 0 -12 -35z m203 19 c30 -30 -63 -64 -130 -49 -48 10 -51 14 -31 31 13 11
17 11 25 -3 9 -16 62 -18 107 -3 18 6 20 10 11 21 -14 17 2 19 18 3z m543 -19
c0 -19 -7 -33 -20 -40 -18 -10 -20 -8 -20 24 0 31 9 43 33 45 4 1 7 -12 7 -29z
m-50 -30 c0 -16 -2 -30 -4 -30 -2 0 -11 -3 -20 -6 -12 -5 -16 1 -16 24 0 27 9
39 33 41 4 1 7 -12 7 -29z m-585 -14 c33 0 71 4 85 8 l25 8 -24 -21 c-38 -34
-181 -26 -181 10 0 7 7 8 18 3 9 -5 44 -8 77 -8z m535 -16 c0 -16 -2 -30 -4
-30 -2 0 -11 -3 -20 -6 -12 -5 -16 1 -16 24 0 27 9 39 33 41 4 1 7 -12 7 -29z
m-420 0 c0 -5 -5 -10 -11 -10 -5 0 -7 5 -4 10 3 6 8 10 11 10 2 0 4 -4 4 -10z
m358 -61 c-22 -14 -28 -10 -28 21 0 17 7 33 18 39 14 8 17 5 20 -21 2 -18 -2
-34 -10 -39z m-362 26 c-26 -19 -42 -19 -26 0 7 8 20 15 29 15 13 -1 13 -3 -3
-15z m164 0 c14 -16 10 -18 -14 -9 -9 3 -16 10 -16 15 0 14 16 11 30 -6z m160
-19 c0 -27 -5 -36 -22 -42 -13 -3 -31 -13 -40 -22 -17 -14 -18 -13 -18 19 0
29 6 37 38 56 20 12 38 22 40 23 1 0 2 -15 2 -34z m-253 -16 c21 0 44 5 51 12
9 9 15 9 24 0 9 -9 7 -13 -8 -19 -24 -10 -113 -10 -138 0 -15 6 -16 10 -5 23
12 14 14 14 25 0 7 -10 26 -16 51 -16z m163 -33 c0 -13 -9 -32 -20 -42 -20
-18 -20 -17 -20 17 0 19 3 38 7 41 14 15 33 6 33 -16z"/>
<path d="M5960 7475 c-338 -194 -614 -357 -614 -361 1 -4 120 -76 265 -160
l264 -152 66 36 c325 181 1178 679 1175 687 -4 13 -507 304 -526 304 -8 1
-292 -159 -630 -354z m711 299 c44 -26 65 -44 62 -54 -4 -12 -2 -12 5 -2 7 11
16 9 45 -8 43 -25 46 -37 15 -50 -16 -6 -18 -9 -7 -9 9 -1 22 6 29 14 11 13
16 13 44 -2 42 -21 42 -20 20 -45 -19 -23 -19 -23 2 -5 11 9 24 17 28 17 18 0
165 -93 161 -101 -4 -5 2 -6 12 -3 12 4 10 0 -7 -14 -18 -15 -27 -17 -32 -9
-5 8 -8 7 -8 -5 0 -9 -9 -20 -20 -23 -11 -4 -44 -22 -72 -41 -38 -25 -54 -30
-60 -21 -5 8 -8 7 -8 -5 0 -21 -59 -56 -61 -36 -1 7 -1 17 0 21 1 5 -3 6 -8 3
-5 -3 -7 -15 -4 -26 4 -15 -3 -23 -33 -37 -22 -10 -45 -24 -53 -31 -7 -7 -23
-10 -35 -7 -13 4 -17 3 -8 -2 9 -7 1 -16 -28 -32 -22 -12 -44 -19 -50 -16 -5
3 -10 0 -10 -8 0 -8 -7 -17 -14 -20 -11 -4 -13 -1 -10 11 3 9 -2 5 -10 -9 -16
-27 -46 -46 -46 -29 0 6 6 19 12 30 10 15 10 22 1 31 -9 9 -11 7 -7 -8 3 -12
1 -24 -5 -27 -6 -4 -11 -15 -11 -25 0 -20 -144 -106 -160 -96 -6 4 -10 3 -9
-2 4 -22 -3 -24 -23 -7 -19 16 -20 16 -9 1 8 -9 12 -19 10 -20 -10 -8 -107
-64 -129 -75 -14 -7 -45 -25 -70 -41 -52 -34 -65 -37 -56 -16 3 8 3 15 0 15
-2 0 -9 -12 -14 -26 -6 -14 -15 -22 -20 -19 -6 3 -13 -1 -16 -9 -8 -21 -23
-20 -48 2 -21 17 -21 17 -3 -4 17 -21 17 -22 -7 -38 -31 -20 -37 -20 -30 -2 3
9 -3 20 -15 28 -12 7 -22 22 -22 33 -1 19 -2 19 -6 1 -3 -12 3 -25 17 -36 20
-15 21 -19 9 -38 -17 -27 -31 -28 -54 -2 -10 11 -24 20 -31 20 -16 0 -84 40
-84 49 0 4 -6 8 -13 8 -20 0 -108 54 -102 63 3 5 -3 8 -12 7 -22 -1 -153 71
-153 84 0 6 -4 8 -9 4 -5 -3 -17 3 -27 12 -10 10 -18 17 -18 15 -1 -2 -9 0
-20 4 -17 7 -17 8 5 20 34 19 67 17 72 -3 4 -17 5 -17 6 0 0 10 -6 20 -15 24
-10 4 1 15 41 39 31 19 62 31 68 28 7 -4 9 -3 4 1 -7 9 68 57 91 58 6 0 12 4
12 8 0 14 81 49 114 50 26 1 27 2 7 6 -22 4 -21 6 15 29 42 25 59 30 49 14 -3
-6 1 -7 10 -3 12 4 13 8 4 13 -8 6 -5 11 10 19 16 9 21 9 22 -1 0 -9 3 -8 6 2
9 22 35 39 61 40 13 0 21 4 18 9 -5 7 13 21 34 25 3 1 18 10 34 21 17 11 38
19 47 17 10 -2 22 6 28 16 10 19 75 63 97 66 7 1 19 8 28 15 9 7 25 11 37 8
15 -4 18 -2 10 7 -7 8 4 19 40 40 28 15 56 25 64 22 10 -3 12 0 8 11 -5 13 -2
15 15 11 12 -4 20 -2 16 3 -3 5 10 16 28 24 29 12 34 12 46 -2 6 -9 12 -12 12
-6 0 7 -5 15 -11 19 -13 8 -3 19 42 44 40 22 36 23 120 -26z"/>
<path d="M6600 7766 c0 -2 11 -6 25 -8 14 -3 25 -1 25 3 0 5 -11 9 -25 9 -14
0 -25 -2 -25 -4z"/>
<path d="M6482 7708 c-7 -7 -12 -19 -12 -28 0 -9 -6 -22 -12 -30 -11 -12 -10
-12 5 -1 9 7 17 22 17 32 0 10 8 23 18 28 9 6 12 11 7 11 -6 0 -16 -5 -23 -12z"/>
<path d="M6657 7699 c7 -7 15 -10 18 -7 3 3 -2 9 -12 12 -14 6 -15 5 -6 -5z"/>
<path d="M6745 7682 c16 -19 17 -25 5 -47 -11 -21 -11 -27 0 -38 10 -10 11 -9
5 1 -4 8 -1 25 6 38 11 22 10 27 -11 47 l-24 22 19 -23z"/>
<path d="M6496 7661 c-4 -5 3 -7 14 -4 23 6 26 13 6 13 -8 0 -17 -4 -20 -9z"/>
<path d="M6665 7659 c-4 -6 -5 -12 -2 -15 2 -3 7 2 10 11 7 17 1 20 -8 4z"/>
<path d="M6406 7651 c-4 -5 3 -7 14 -4 23 6 26 13 6 13 -8 0 -17 -4 -20 -9z"/>
<path d="M6586 7641 c-4 -5 3 -7 14 -4 23 6 26 13 6 13 -8 0 -17 -4 -20 -9z"/>
<path d="M6717 7636 c-3 -8 -16 -16 -29 -18 -15 -2 -23 -10 -24 -23 -1 -15 0
-16 3 -2 3 9 13 17 22 17 19 0 48 27 39 36 -3 3 -8 -2 -11 -10z"/>
<path d="M6820 7633 c8 -3 22 -11 30 -17 13 -10 13 -9 1 7 -7 9 -21 17 -30 16
-13 0 -14 -1 -1 -6z"/>
<path d="M6562 7604 c-7 -8 -8 -14 -3 -14 10 0 25 19 20 25 -2 1 -10 -3 -17
-11z"/>
<path d="M6497 7603 c-4 -3 -7 -11 -7 -17 0 -7 3 -7 8 0 4 7 16 14 27 17 19 5
19 5 -1 6 -11 0 -24 -2 -27 -6z"/>
<path d="M6816 7595 c-11 -8 -15 -15 -9 -15 6 0 16 7 23 15 16 19 11 19 -14 0z"/>
<path d="M6270 7580 c-23 -7 -23 -8 -3 -9 12 -1 25 4 28 9 3 6 5 10 3 9 -2 -1
-14 -5 -28 -9z"/>
<path d="M6602 7578 c-16 -16 -15 -33 4 -49 8 -7 13 -21 11 -31 -3 -10 -1 -16
4 -12 14 8 11 25 -8 46 -14 16 -15 23 -5 39 14 22 12 25 -6 7z"/>
<path d="M6767 7583 c-4 -3 -7 -14 -7 -24 0 -10 -8 -23 -17 -28 -10 -6 -13
-11 -7 -11 15 0 30 19 37 48 5 23 4 26 -6 15z"/>
<path d="M6366 7563 c-6 -14 -5 -15 5 -6 7 7 10 15 7 18 -3 3 -9 -2 -12 -12z"/>
<path d="M6863 7565 c-3 -9 -3 -18 -1 -21 3 -3 8 4 11 16 6 23 -1 27 -10 5z"/>
<path d="M6908 7573 c7 -3 16 -2 19 1 4 3 -2 6 -13 5 -11 0 -14 -3 -6 -6z"/>
<path d="M6690 7561 c0 -6 4 -13 10 -16 6 -3 7 1 4 9 -7 18 -14 21 -14 7z"/>
<path d="M6650 7550 c-9 -6 -10 -10 -3 -10 6 0 15 5 18 10 8 12 4 12 -15 0z"/>
<path d="M6210 7542 c0 -6 -8 -13 -17 -15 -16 -4 -16 -5 -1 -6 18 -1 34 16 24
26 -3 4 -6 1 -6 -5z"/>
<path d="M6328 7543 c7 -3 16 -2 19 1 4 3 -2 6 -13 5 -11 0 -14 -3 -6 -6z"/>
<path d="M6455 7540 c-16 -7 -17 -9 -3 -9 9 -1 20 4 23 9 7 11 7 11 -20 0z"/>
<path d="M6535 7530 c10 -11 20 -20 23 -20 3 0 -3 9 -13 20 -10 11 -20 20 -23
20 -3 0 3 -9 13 -20z"/>
<path d="M6963 7535 c-3 -9 -3 -19 1 -22 3 -4 6 1 6 10 0 8 8 18 18 20 16 4
16 5 -1 6 -10 0 -20 -6 -24 -14z"/>
<path d="M6142 7520 c0 -14 2 -19 5 -12 2 6 2 18 0 25 -3 6 -5 1 -5 -13z"/>
<path d="M6253 7515 c-3 -9 -3 -18 -1 -21 3 -3 8 4 11 16 6 23 -1 27 -10 5z"/>
<path d="M6900 7505 c0 -14 2 -25 4 -25 2 0 6 11 8 25 3 14 1 25 -3 25 -5 0
-9 -11 -9 -25z"/>
<path d="M6685 7510 c-3 -6 1 -7 9 -4 18 7 21 14 7 14 -6 0 -13 -4 -16 -10z"/>
<path d="M6100 7487 c0 -10 -8 -17 -19 -17 -11 0 -22 -4 -25 -9 -3 -4 6 -6 20
-3 25 5 42 27 30 39 -3 4 -6 -1 -6 -10z"/>
<path d="M6583 7486 c1 -11 18 -28 36 -39 27 -14 32 -15 22 -3 -8 9 -20 16
-28 16 -7 0 -18 10 -23 23 -8 17 -9 18 -7 3z"/>
<path d="M6750 7491 c0 -6 -10 -16 -22 -21 -16 -6 -18 -9 -7 -9 19 -1 45 26
35 36 -3 3 -6 1 -6 -6z"/>
<path d="M6860 7488 c0 -9 -6 -19 -12 -21 -10 -4 -10 -6 0 -6 14 -1 28 26 18
36 -3 4 -6 -1 -6 -9z"/>
<path d="M6150 7477 c0 -9 -6 -17 -14 -17 -8 0 -17 -4 -20 -9 -4 -5 3 -7 15
-4 21 6 36 29 25 40 -3 4 -6 -1 -6 -10z"/>
<path d="M6385 7480 c-3 -5 -1 -10 4 -10 6 0 11 5 11 10 0 6 -2 10 -4 10 -3 0
-8 -4 -11 -10z"/>
<path d="M6200 7470 c-9 -6 -10 -10 -3 -10 6 0 15 5 18 10 8 12 4 12 -15 0z"/>
<path d="M6256 7463 c-6 -14 -5 -15 5 -6 7 7 10 15 7 18 -3 3 -9 -2 -12 -12z"/>
<path d="M6333 7455 c-3 -9 -3 -19 1 -22 3 -4 6 1 6 10 0 8 8 18 18 20 16 4
16 5 -1 6 -10 0 -20 -6 -24 -14z"/>
<path d="M6772 7454 c-12 -8 -22 -23 -21 -32 0 -14 2 -14 6 -2 3 8 15 23 27
32 26 22 18 23 -12 2z"/>
<path d="M6163 7445 c-3 -9 -3 -18 -1 -21 3 -3 8 4 11 16 6 23 -1 27 -10 5z"/>
<path d="M6691 7444 c0 -11 3 -14 6 -6 3 7 2 16 -1 19 -3 4 -6 -2 -5 -13z"/>
<path d="M5991 7434 c0 -11 3 -14 6 -6 3 7 2 16 -1 19 -3 4 -6 -2 -5 -13z"/>
<path d="M6210 7439 c0 -5 5 -7 10 -4 6 3 10 8 10 11 0 2 -4 4 -10 4 -5 0 -10
-5 -10 -11z"/>
<path d="M6485 7440 c3 -4 16 -10 30 -12 13 -3 22 -2 20 2 -3 4 -16 10 -30 12
-13 3 -22 2 -20 -2z"/>
<path d="M6853 7435 c-3 -9 -3 -19 1 -22 3 -4 6 1 6 10 0 8 6 18 13 20 9 4 9
6 -1 6 -7 1 -15 -6 -19 -14z"/>
<path d="M5925 7409 c-4 -6 -5 -12 -2 -15 2 -3 7 2 10 11 7 17 1 20 -8 4z"/>
<path d="M6041 7397 c-13 -21 -12 -21 5 -5 10 10 16 20 13 22 -3 3 -11 -5 -18
-17z"/>
<path d="M6570 7409 c0 -5 5 -7 10 -4 6 3 10 8 10 11 0 2 -4 4 -10 4 -5 0 -10
-5 -10 -11z"/>
<path d="M6090 7397 c0 -8 -8 -18 -17 -20 -17 -4 -17 -5 0 -6 18 -1 35 25 23
36 -3 4 -6 -1 -6 -10z"/>
<path d="M6219 7383 c-13 -16 -12 -17 4 -4 9 7 17 15 17 17 0 8 -8 3 -21 -13z"/>
<path d="M6279 7367 c5 -24 12 -32 29 -33 19 -1 19 -1 2 3 -13 3 -20 12 -20
28 0 13 -4 26 -9 29 -4 3 -5 -9 -2 -27z"/>
<path d="M6347 7393 c-4 -3 -7 -11 -7 -17 0 -7 3 -7 8 0 4 7 18 14 32 17 l25
4 -26 2 c-14 0 -29 -2 -32 -6z"/>
<path d="M6680 7390 c-9 -6 -10 -10 -3 -10 6 0 15 5 18 10 8 12 4 12 -15 0z"/>
<path d="M6726 7385 c-11 -8 -15 -15 -9 -15 6 0 16 7 23 15 16 19 11 19 -14 0z"/>
<path d="M6157 7383 c7 -2 9 -12 6 -21 -6 -18 -5 -17 14 8 10 13 8 16 -10 17
-12 0 -17 -1 -10 -4z"/>
<path d="M6489 7373 c-13 -17 -13 -17 6 -3 11 8 22 16 24 17 2 2 0 3 -6 3 -6
0 -17 -8 -24 -17z"/>
<path d="M5953 7366 c1 -11 9 -21 17 -23 10 -3 11 -2 4 4 -6 4 -14 15 -17 23
-5 11 -6 9 -4 -4z"/>
<path d="M6420 7376 c0 -2 9 -6 20 -9 11 -3 18 -1 14 4 -5 9 -34 13 -34 5z"/>
<path d="M6685 7359 c-4 -6 -5 -12 -2 -15 2 -3 7 2 10 11 7 17 1 20 -8 4z"/>
<path d="M5810 7351 c0 -6 4 -13 10 -16 6 -3 7 1 4 9 -7 18 -14 21 -14 7z"/>
<path d="M6618 7343 c18 -15 21 -25 17 -53 -5 -35 -5 -35 5 -5 12 37 8 50 -22
65 l-23 11 23 -18z"/>
<path d="M6735 7350 c-3 -6 1 -7 9 -4 18 7 21 14 7 14 -6 0 -13 -4 -16 -10z"/>
<path d="M6082 7330 c0 -14 2 -19 5 -12 2 6 2 18 0 25 -3 6 -5 1 -5 -13z"/>
<path d="M6038 7317 c-3 -19 -2 -25 4 -19 6 6 8 18 6 28 -3 14 -5 12 -10 -9z"/>
<path d="M6171 7324 c0 -11 3 -14 6 -6 3 7 2 16 -1 19 -3 4 -6 -2 -5 -13z"/>
<path d="M6346 7327 c3 -10 9 -15 12 -12 3 3 0 11 -7 18 -10 9 -11 8 -5 -6z"/>
<path d="M6400 7336 c0 -2 11 -6 25 -8 13 -3 22 -1 19 3 -5 9 -44 13 -44 5z"/>
<path d="M6581 7328 c-1 -10 -10 -22 -21 -28 -21 -11 -27 -35 -10 -45 6 -3 7
1 4 10 -4 9 3 22 16 33 13 10 20 25 17 33 -4 11 -6 10 -6 -3z"/>
<path d="M6126 7301 c-4 -5 3 -7 14 -4 23 6 26 13 6 13 -8 0 -17 -4 -20 -9z"/>
<path d="M6440 7296 c0 -8 4 -17 9 -20 5 -4 7 3 4 14 -6 23 -13 26 -13 6z"/>
<path d="M5841 7289 c-1 -9 9 -24 22 -35 22 -19 22 -19 6 1 -9 11 -19 27 -22
35 -5 13 -6 13 -6 -1z"/>
<path d="M5899 7283 c-13 -16 -12 -17 4 -4 9 7 17 15 17 17 0 8 -8 3 -21 -13z"/>
<path d="M6086 7283 c-6 -14 -5 -15 5 -6 7 7 10 15 7 18 -3 3 -9 -2 -12 -12z"/>
<path d="M6286 7283 c6 -4 14 -15 17 -23 5 -11 6 -9 4 4 -1 11 -9 21 -17 23
-10 3 -11 2 -4 -4z"/>
<path d="M6388 7283 c-3 -4 1 -28 8 -53 l12 -45 -3 48 c-3 48 -9 66 -17 50z"/>
<path d="M5693 7255 c-3 -9 -3 -18 -1 -21 3 -3 8 4 11 16 6 23 -1 27 -10 5z"/>
<path d="M6043 7255 c-3 -9 -3 -19 1 -22 3 -4 6 1 6 10 0 8 6 18 13 20 9 4 9
6 -1 6 -7 1 -15 -6 -19 -14z"/>
<path d="M6150 7255 c-8 -9 -21 -13 -34 -10 -20 6 -20 5 -2 -6 15 -9 22 -7 39
10 12 11 19 21 15 21 -3 0 -11 -7 -18 -15z"/>
<path d="M6202 7254 c9 -9 21 -15 27 -13 6 2 -2 10 -17 17 -25 11 -25 11 -10
-4z"/>
<path d="M6340 7259 c0 -5 5 -7 10 -4 6 3 10 8 10 11 0 2 -4 4 -10 4 -5 0 -10
-5 -10 -11z"/>
<path d="M5905 7235 c0 -13 3 -21 8 -18 4 2 7 10 7 18 0 8 -3 16 -7 18 -5 3
-8 -5 -8 -18z"/>
<path d="M5800 7235 c-7 -9 -11 -17 -9 -20 3 -2 10 5 17 15 14 24 10 26 -8 5z"/>
<path d="M6450 7235 c-6 -8 -10 -19 -8 -24 1 -6 8 1 15 14 13 28 11 31 -7 10z"/>
<path d="M5570 7226 c0 -2 8 -10 18 -17 15 -13 16 -12 3 4 -13 16 -21 21 -21
13z"/>
<path d="M5657 7219 c7 -7 15 -10 18 -7 3 3 -2 9 -12 12 -14 6 -15 5 -6 -5z"/>
<path d="M5992 7200 c0 -14 2 -19 5 -12 2 6 2 18 0 25 -3 6 -5 1 -5 -13z"/>
<path d="M6195 7209 c-4 -6 -17 -14 -29 -19 -14 -6 -16 -9 -5 -9 9 -1 24 8 34
19 10 11 15 20 12 20 -3 0 -9 -5 -12 -11z"/>
<path d="M5615 7200 c-3 -6 1 -7 9 -4 18 7 21 14 7 14 -6 0 -13 -4 -16 -10z"/>
<path d="M6098 7185 c2 -14 8 -27 12 -30 4 -2 5 7 2 20 -2 14 -8 27 -12 30 -4
2 -5 -7 -2 -20z"/>
<path d="M5520 7190 c-23 -7 -23 -8 -3 -9 12 -1 25 4 28 9 3 6 5 10 3 9 -2 -1
-14 -5 -28 -9z"/>
<path d="M5850 7191 c0 -6 4 -13 10 -16 6 -3 7 1 4 9 -7 18 -14 21 -14 7z"/>
<path d="M5917 7193 c-4 -3 -7 -11 -7 -17 0 -7 3 -7 8 0 4 7 16 14 27 17 19 5
19 5 -1 6 -11 0 -24 -2 -27 -6z"/>
<path d="M6363 7175 c-3 -9 -3 -19 1 -22 3 -4 6 1 6 10 0 8 6 18 13 20 9 4 9
6 -1 6 -7 1 -15 -6 -19 -14z"/>
<path d="M6451 7174 c0 -11 3 -14 6 -6 3 7 2 16 -1 19 -3 4 -6 -2 -5 -13z"/>
<path d="M5570 7176 c0 -2 9 -6 20 -9 11 -3 18 -1 14 4 -5 9 -34 13 -34 5z"/>
<path d="M6218 7173 c6 -2 18 -2 25 0 6 3 1 5 -13 5 -14 0 -19 -2 -12 -5z"/>
<path d="M5518 7142 c9 -10 19 -17 21 -16 6 5 -20 34 -30 34 -5 0 -1 -8 9 -18z"/>
<path d="M5657 7153 c-3 -5 5 -8 18 -8 13 0 21 3 18 8 -2 4 -10 7 -18 7 -8 0
-16 -3 -18 -7z"/>
<path d="M5763 7145 c-3 -9 -3 -19 1 -22 3 -4 6 1 6 10 0 8 6 18 13 20 9 4 9
6 -1 6 -7 1 -15 -6 -19 -14z"/>
<path d="M5836 7152 c-5 -8 60 -10 67 -2 3 3 -10 6 -29 7 -18 1 -36 -1 -38 -5z"/>
<path d="M6140 7156 c0 -2 9 -6 20 -9 11 -3 18 -1 14 4 -5 9 -34 13 -34 5z"/>
<path d="M6261 7146 c14 -15 20 -16 39 -6 12 6 29 9 38 5 13 -5 14 -4 5 6 -10
10 -18 10 -39 0 -20 -9 -30 -9 -43 1 -15 11 -15 11 0 -6z"/>
<path d="M6415 7150 c-3 -6 1 -7 9 -4 18 7 21 14 7 14 -6 0 -13 -4 -16 -10z"/>
<path d="M5617 7139 c7 -7 15 -10 18 -7 3 3 -2 9 -12 12 -14 6 -15 5 -6 -5z"/>
<path d="M6213 7118 c-17 -23 -25 -44 -9 -24 9 11 22 23 28 28 9 5 9 8 2 8 -6
0 -16 -6 -21 -12z"/>
<path d="M5798 7108 c5 -5 16 -8 23 -6 8 3 3 7 -10 11 -17 4 -21 3 -13 -5z"/>
<path d="M5852 7106 c7 -8 15 -12 17 -11 5 6 -10 25 -20 25 -5 0 -4 -6 3 -14z"/>
<path d="M5998 7089 c2 -16 7 -31 11 -34 4 -2 5 9 3 26 -2 16 -7 31 -11 34 -4
2 -5 -9 -3 -26z"/>
<path d="M6055 7109 c-4 -6 -5 -12 -2 -15 2 -3 7 2 10 11 7 17 1 20 -8 4z"/>
<path d="M5765 7084 c14 -16 31 -24 42 -21 16 4 16 5 -2 6 -11 0 -26 10 -33
21 -7 11 -16 20 -22 20 -5 0 2 -12 15 -26z"/>
<path d="M5700 7086 c7 -7 13 -7 20 0 6 6 3 10 -10 10 -13 0 -16 -4 -10 -10z"/>
<path d="M6157 7089 c7 -7 15 -10 18 -7 3 3 -2 9 -12 12 -14 6 -15 5 -6 -5z"/>
<path d="M5849 7066 c-12 -6 -26 -23 -30 -39 -4 -16 -3 -25 2 -21 5 3 9 14 9
24 0 24 15 33 51 32 33 -1 37 3 10 11 -11 2 -30 0 -42 -7z"/>
<path d="M5672 7054 c2 -19 5 -20 30 -12 32 11 38 23 7 13 -14 -5 -25 -2 -30
6 -6 10 -8 8 -7 -7z"/>
<path d="M6080 7063 c0 -5 10 -18 23 -29 l22 -19 -20 25 c-11 14 -21 27 -22
29 -2 2 -3 0 -3 -6z"/>
<path d="M5578 7053 c6 -2 18 -2 25 0 6 3 1 5 -13 5 -14 0 -19 -2 -12 -5z"/>
<path d="M5938 7048 c5 -5 16 -8 23 -6 8 3 3 7 -10 11 -17 4 -21 3 -13 -5z"/>
<path d="M6061 7044 c0 -11 3 -14 6 -6 3 7 2 16 -1 19 -3 4 -6 -2 -5 -13z"/>
<path d="M5906 7023 c-6 -14 -5 -15 5 -6 7 7 10 15 7 18 -3 3 -9 -2 -12 -12z"/>
<path d="M6025 7020 c-3 -6 1 -7 9 -4 18 7 21 14 7 14 -6 0 -13 -4 -16 -10z"/>
<path d="M5847 7013 c-4 -3 -7 -15 -7 -25 0 -10 -10 -23 -22 -28 -14 -5 -17
-9 -7 -9 20 -1 39 19 39 40 0 10 10 19 23 22 20 4 20 4 1 6 -11 0 -24 -2 -27
-6z"/>
<path d="M5757 7003 c-4 -3 -7 -11 -7 -17 0 -7 3 -7 8 0 4 7 16 14 27 17 19 5
19 5 -1 6 -11 0 -24 -2 -27 -6z"/>
<path d="M5935 6989 c-4 -6 -5 -12 -2 -15 2 -3 7 2 10 11 7 17 1 20 -8 4z"/>
<path d="M6100 6985 c-7 -9 -11 -17 -9 -20 3 -2 10 5 17 15 14 24 10 26 -8 5z"/>
<path d="M5678 6958 c5 -5 16 -8 23 -6 8 3 3 7 -10 11 -17 4 -21 3 -13 -5z"/>
<path d="M5738 6952 c9 -10 19 -17 21 -16 6 5 -20 34 -30 34 -5 0 -1 -8 9 -18z"/>
<path d="M6015 6959 c-4 -6 -4 -13 -1 -16 3 -4 6 -1 6 5 0 6 8 13 18 15 15 4
15 5 0 6 -9 0 -20 -4 -23 -10z"/>
<path d="M5961 6937 c-13 -21 -12 -21 5 -5 10 10 16 20 13 22 -3 3 -11 -5 -18
-17z"/>
<path d="M5830 6911 c0 -6 -10 -16 -22 -21 -16 -6 -18 -9 -7 -9 19 -1 45 26
35 36 -3 3 -6 1 -6 -6z"/>
<path d="M7107 6671 c-8 -19 -30 -42 -52 -54 -21 -12 -40 -28 -43 -35 -2 -7
12 -28 32 -46 20 -18 35 -39 32 -47 -11 -35 -15 -109 -6 -109 6 0 10 13 10 29
0 16 3 42 6 59 6 27 9 30 26 21 19 -10 19 -11 -1 -45 -11 -19 -16 -34 -11 -34
5 0 16 13 25 29 10 20 24 31 42 33 27 3 28 5 25 49 -2 33 5 64 23 104 14 32
25 59 25 61 0 8 -42 3 -61 -7 -16 -8 -25 -7 -40 7 -18 16 -19 16 -32 -15z m28
-1 c3 -5 1 -10 -4 -10 -6 0 -11 5 -11 10 0 6 2 10 4 10 3 0 8 -4 11 -10z m79
-12 c-3 -13 -12 -34 -19 -48 l-13 -25 -11 28 c-15 39 -14 42 12 55 33 16 39
14 31 -10z m-53 -57 c9 -31 8 -43 -5 -69 -17 -34 -37 -40 -54 -19 -7 8 -7 30
0 67 15 81 38 89 59 21z m-75 -37 c-8 -39 -12 -41 -38 -17 -25 23 -23 40 10
57 31 17 37 9 28 -40z m94 -54 c0 -20 -5 -30 -15 -30 -18 0 -18 2 -3 35 15 32
18 32 18 -5z"/>
<path d="M5622 5840 l3 -182 265 -149 265 -149 3 177 c1 97 -1 180 -5 184 -9
9 -501 289 -521 296 -10 4 -12 -31 -10 -177z m32 154 c14 -5 16 -28 16 -155 0
-82 -2 -149 -4 -149 -2 0 -11 -3 -20 -6 -14 -5 -16 12 -16 155 0 89 2 161 4
161 2 0 11 -3 20 -6z m266 -153 l225 -128 3 -141 3 -141 -223 126 c-123 69
-229 130 -235 135 -14 12 -19 278 -5 278 4 0 108 -58 232 -129z m-3 -292 c181
-102 233 -136 233 -151 0 -18 -4 -17 -52 10 -29 16 -123 69 -208 117 -237 133
-241 135 -235 146 4 5 11 9 17 9 6 0 116 -59 245 -131z"/>
<path d="M5620 5391 l0 -178 238 -134 c130 -73 252 -141 270 -152 l32 -19 -2
183 -3 183 -259 148 c-142 81 -262 148 -267 148 -5 0 -9 -80 -9 -179z m34 153
c14 -5 16 -28 16 -155 0 -82 -2 -149 -4 -149 -2 0 -11 -3 -20 -6 -14 -5 -16
12 -16 155 0 89 2 161 4 161 2 0 11 -3 20 -6z m267 -152 l224 -128 3 -137 c1
-75 -1 -137 -5 -137 -4 0 -109 58 -233 128 l-225 128 -3 137 c-1 78 1 137 7
137 5 0 109 -58 232 -128z m-5 -291 c182 -103 230 -134 232 -152 4 -21 3 -22
-20 -7 -12 8 -125 72 -251 142 -202 114 -247 146 -203 146 7 0 116 -58 242
-129z"/>
<path d="M4920 5959 c-149 -88 -132 -55 -128 -254 1 -95 6 -176 10 -180 3 -4
53 20 110 53 l103 59 3 187 c1 102 -1 186 -5 185 -5 0 -46 -23 -93 -50z m85
-297 c-3 -3 -14 3 -25 13 -11 10 -20 13 -20 7 0 -17 -27 -15 -55 4 -19 13 -25
25 -25 54 0 33 -5 41 -35 60 -27 17 -35 28 -35 50 0 30 7 35 170 125 l25 14 3
-161 c1 -88 0 -163 -3 -166z m-155 117 c0 -6 -25 -19 -36 -19 -2 0 -4 11 -4
25 0 23 2 24 20 13 11 -7 20 -16 20 -19z m15 -86 c-3 -85 0 -78 -30 -91 l-25
-12 0 75 c0 60 3 76 18 84 34 20 39 13 37 -56z m63 -38 c-2 -1 -13 -8 -25 -14
-21 -11 -23 -10 -23 19 0 30 0 30 25 14 14 -9 24 -18 23 -19z m58 -10 c3 -9
-153 -105 -170 -105 -3 0 -6 8 -6 18 1 10 27 33 73 59 70 41 97 48 103 28z"/>
<path d="M4897 5389 l-107 -61 1 -166 c0 -92 3 -175 7 -184 6 -15 21 -10 115
44 l107 62 0 183 c0 101 -3 183 -8 183 -4 0 -55 -27 -115 -61z m113 -119 c0
-136 -2 -160 -15 -160 -13 0 -15 21 -15 129 0 76 4 132 10 136 6 3 10 17 10
31 0 13 2 24 5 24 3 0 5 -72 5 -160z m-20 133 c0 -12 -31 -36 -90 -70 -84 -49
-90 -51 -90 -30 0 17 19 33 83 69 45 26 85 48 90 48 4 0 7 -8 7 -17z m-30
-173 c0 -66 1 -123 2 -127 2 -8 -130 -92 -144 -93 -5 0 -8 58 -8 130 l0 129
68 40 c37 22 70 40 75 41 4 0 7 -54 7 -120z m-27 -182 c-95 -56 -126 -71 -119
-59 4 5 40 28 81 51 41 23 77 45 80 51 4 5 11 7 16 3 6 -3 -20 -24 -58 -46z"/>
<path d="M3528 5108 l-108 -62 0 -177 c0 -98 4 -180 9 -183 4 -3 56 22 115 56
l106 61 0 183 c0 101 -3 184 -7 184 -5 0 -56 -28 -115 -62z m100 -286 c-9 -18
-166 -122 -183 -122 -2 0 -4 65 -4 144 l-2 144 71 41 c40 23 75 41 78 41 8 0
6 -246 -2 -259 -4 -5 -36 -26 -72 -46 -36 -20 -63 -39 -61 -42 6 -6 144 75
153 89 3 5 5 70 5 144 -1 88 2 134 9 134 5 0 11 15 12 33 1 17 4 -38 6 -123 2
-109 -1 -162 -10 -178z m-8 300 c0 -12 -24 -32 -67 -57 -38 -21 -78 -45 -90
-53 -22 -13 -23 -13 -23 9 1 19 17 33 83 71 45 26 85 48 90 48 4 0 7 -8 7 -18z"/>
<path d="M4893 4839 l-101 -60 -1 -152 c0 -84 3 -166 7 -184 l7 -32 107 62
108 62 0 183 c0 139 -3 182 -12 181 -7 0 -59 -28 -115 -60z m117 -119 c0 -131
-3 -160 -14 -160 -8 0 -16 6 -19 13 -3 9 -7 9 -19 -1 -13 -10 -21 -9 -47 5
-27 16 -31 24 -31 59 0 36 -4 43 -35 60 -28 15 -35 24 -35 49 0 28 7 35 78 74
42 23 84 46 92 51 8 5 18 9 23 9 4 1 7 -71 7 -159z m-160 -45 c0 -2 -9 -9 -20
-15 -18 -9 -20 -8 -20 15 0 23 2 24 20 15 11 -6 20 -13 20 -15z m17 -80 c2
-54 -1 -69 -17 -85 -33 -33 -40 -24 -40 53 0 67 2 75 23 85 12 6 24 11 27 11
3 1 6 -28 7 -64z m46 -30 c18 -13 18 -14 -2 -24 -28 -15 -31 -14 -31 14 0 28
7 30 33 10z m75 -17 c9 -9 2 -17 -31 -36 -23 -13 -66 -37 -94 -54 -49 -27 -53
-28 -53 -10 0 14 23 33 78 66 86 51 84 50 100 34z"/>
<path d="M3550 4569 c-47 -28 -95 -57 -107 -65 -22 -14 -23 -19 -23 -194 0
-138 3 -180 13 -180 6 1 57 27 112 59 l100 59 3 186 c1 102 -1 186 -5 185 -5
0 -46 -23 -93 -50z m90 -134 c0 -91 -4 -165 -8 -165 -26 0 -32 30 -32 165 0
135 6 165 32 165 4 0 8 -74 8 -165z m-50 -10 c0 -132 -2 -145 -17 -145 -10 0
-29 9 -43 20 -28 22 -40 25 -40 10 0 -5 6 -10 13 -10 6 0 23 -9 36 -19 l24
-19 -36 -13 c-21 -7 -37 -16 -37 -19 0 -4 -11 -12 -25 -18 l-25 -12 0 76 c0
75 0 76 30 87 17 6 30 16 30 22 0 6 -13 19 -30 28 -22 14 -30 26 -30 47 0 25
9 34 68 69 37 23 70 41 75 41 4 0 7 -65 7 -145z m-120 -25 c13 -9 13 -11 0
-20 -22 -15 -30 -12 -30 10 0 22 8 25 30 10z m146 -145 c2 -5 -33 -30 -77 -55
-101 -56 -99 -55 -99 -33 1 12 26 33 73 60 70 42 97 49 103 28z"/>
<path d="M3610 4050 c-8 -5 -54 -32 -102 -60 l-88 -51 0 -178 c0 -98 3 -180 6
-183 3 -3 54 22 114 56 l109 61 1 183 c0 188 -1 195 -40 172z m30 -170 c0 -88
-4 -160 -8 -160 -26 0 -32 30 -32 165 0 78 3 145 7 148 3 4 12 7 20 7 10 0 13
-33 13 -160z m-50 -4 c0 -80 -4 -147 -9 -150 -5 -3 -25 5 -45 19 -40 27 -46
29 -46 17 0 -5 16 -16 36 -26 35 -16 36 -18 18 -31 -11 -8 -23 -15 -29 -15 -5
0 -21 -9 -35 -20 -14 -11 -28 -20 -32 -20 -5 0 -8 33 -8 74 0 73 1 75 30 88
17 7 30 18 30 24 0 6 -13 17 -30 24 -25 10 -30 18 -30 45 0 30 6 37 68 73 37
22 70 41 75 41 4 1 7 -64 7 -143z m-122 -29 c8 -10 6 -16 -9 -25 -17 -11 -19
-9 -19 13 0 27 12 32 28 12z m149 -142 c2 -6 -38 -34 -88 -63 -79 -45 -90 -49
-87 -31 2 14 28 37 73 65 68 42 95 50 102 29z"/>
<path d="M2963 5702 c-112 -64 -202 -120 -200 -125 1 -4 107 -68 236 -142
l233 -135 204 117 c111 65 204 123 205 128 2 10 -447 275 -466 274 -5 0 -101
-53 -212 -117z m435 -18 c119 -69 221 -129 225 -133 10 -10 -378 -234 -396
-229 -20 4 -447 251 -447 258 1 5 380 227 393 229 4 1 105 -56 225 -125z"/>
<path d="M3143 5698 c-18 -11 -33 -23 -33 -26 0 -4 23 -20 50 -35 28 -16 50
-30 50 -32 0 -1 -17 -13 -37 -25 l-38 -23 -62 33 -61 33 -33 -19 c-18 -11 -34
-24 -36 -30 -2 -6 60 -47 137 -91 l141 -81 39 22 c22 11 40 24 40 28 0 4 -18
17 -40 29 -22 13 -40 26 -40 30 0 4 16 17 36 28 l36 21 52 -29 51 -30 38 22
c20 11 36 26 34 31 -4 13 -267 166 -282 165 -5 0 -25 -10 -42 -21z m176 -64
c72 -41 131 -79 131 -84 0 -4 -13 -13 -29 -20 -26 -11 -35 -9 -79 15 l-50 27
-50 -28 c-28 -16 -48 -32 -46 -36 3 -5 24 -18 47 -29 l41 -21 -23 -19 c-13
-11 -29 -19 -36 -19 -17 0 -265 142 -265 152 0 4 13 14 28 22 26 13 31 12 86
-19 l59 -33 50 31 49 30 -23 18 c-13 10 -36 24 -51 30 -16 6 -28 15 -28 20 0
6 43 36 57 39 1 0 61 -34 132 -76z"/>
<path d="M3963 4843 c9 -2 23 -2 30 0 6 3 -1 5 -18 5 -16 0 -22 -2 -12 -5z"/>
<path d="M5532 4520 c5 -15 62 -34 81 -27 7 3 -6 8 -28 12 -22 4 -44 13 -48
19 -6 7 -7 6 -5 -4z"/>
<path d="M5718 4290 c-2 -6 -22 -12 -45 -13 -31 -1 -39 -4 -32 -13 7 -8 6 -14
-3 -17 -9 -4 -8 -6 3 -6 9 -1 22 6 29 14 7 8 21 15 31 15 18 0 35 17 26 26 -3
3 -7 0 -9 -6z"/>
<path d="M2270 4318 c0 -10 6 -18 14 -18 7 0 28 -3 45 -6 17 -4 31 -3 31 2 0
5 -17 10 -37 12 -20 1 -41 8 -45 15 -5 8 -8 7 -8 -5z"/>
<path d="M2450 4097 c0 -16 -29 -23 -69 -17 -12 1 -13 -1 -2 -13 10 -13 9 -16
-6 -20 -15 -4 -14 -5 3 -6 12 0 24 6 28 14 3 8 15 15 26 15 20 0 38 25 26 37
-3 4 -6 -1 -6 -10z"/>
<path d="M2255 3970 c15 -28 45 -42 45 -20 0 6 -3 9 -7 9 -20 -3 -26 2 -13 11
13 8 12 10 -2 10 -10 0 -18 5 -18 10 0 6 -5 10 -10 10 -6 0 -4 -13 5 -30z"/>
<path d="M5112 4270 c6 -18 68 -32 88 -19 11 8 10 9 -7 4 -12 -3 -24 -1 -28 5
-3 6 -11 8 -16 4 -5 -3 -17 0 -26 8 -14 11 -15 11 -11 -2z"/>
<path d="M5300 4053 c0 -6 -18 -13 -40 -17 -26 -4 -38 -10 -34 -17 4 -6 0 -15
-7 -20 -10 -6 -11 -9 -1 -9 7 0 20 9 29 20 10 11 25 20 35 20 18 0 34 18 24
27 -3 4 -6 2 -6 -4z"/>
<path d="M5090 3949 c0 -28 33 -60 50 -49 12 8 10 10 -10 11 -14 0 -19 3 -12
6 6 2 12 9 12 14 0 6 -4 8 -9 4 -6 -3 -14 3 -20 12 -9 16 -10 16 -11 2z"/>
<path d="M5510 3983 c0 -6 -18 -13 -40 -17 -26 -4 -38 -10 -34 -17 4 -6 0 -15
-7 -20 -10 -6 -11 -9 -1 -9 7 0 20 9 29 20 10 11 25 20 35 20 18 0 34 18 24
27 -3 4 -6 2 -6 -4z"/>
<path d="M2196 3751 c-4 -6 1 -14 11 -17 10 -3 27 -9 39 -14 11 -4 26 -5 33 0
8 5 -1 10 -25 15 -22 4 -42 11 -45 17 -4 7 -9 6 -13 -1z"/>
<path d="M2171 3428 c-3 -22 24 -58 43 -57 17 1 18 2 4 6 -21 5 -23 19 -5 26
6 3 2 6 -10 6 -12 1 -24 7 -26 14 -3 6 -6 9 -6 5z"/>
<path d="M5091 3759 c0 -9 8 -27 18 -40 16 -19 22 -22 32 -11 11 10 10 12 -5
12 -9 0 -14 5 -11 10 3 6 -1 10 -9 10 -8 0 -17 8 -19 18 -4 14 -5 15 -6 1z"/>
<path d="M2372 3495 c4 -23 67 -40 83 -23 7 8 6 9 -3 4 -7 -4 -19 -2 -27 4 -8
6 -19 9 -24 6 -5 -4 -15 2 -21 11 -10 17 -11 17 -8 -2z"/>
<path d="M2555 3270 c6 -9 -18 -14 -67 -14 -14 1 -15 -2 -6 -13 9 -11 8 -17
-3 -24 -8 -5 -9 -9 -3 -9 6 0 19 9 28 19 10 11 27 21 39 23 21 3 37 28 17 28
-6 0 -8 -4 -5 -10z"/>
<path d="M2350 3169 c0 -26 25 -52 46 -46 16 4 15 5 -5 6 -21 1 -22 3 -10 18
8 10 9 14 2 10 -7 -4 -16 0 -22 10 -9 15 -10 15 -11 2z"/>
<path d="M3897 3058 c-60 -16 -87 -94 -51 -146 63 -90 254 -56 254 45 0 74
-107 127 -203 101z m32 -21 c12 -15 5 -27 -17 -27 -7 0 -27 -10 -44 -21 l-30
-22 7 24 c8 27 40 59 60 59 7 0 18 -6 24 -13z m95 4 c3 -5 -4 -11 -17 -15 -36
-10 -55 -7 -61 9 -4 12 3 15 34 15 21 0 41 -4 44 -9z m50 -43 c23 -33 20 -65
-10 -95 -29 -29 -29 -29 -38 16 -6 33 -6 33 27 27 28 -5 30 -4 15 8 -10 7 -18
18 -18 25 0 6 -7 14 -15 17 -21 9 -19 24 4 24 11 0 27 -10 35 -22z m-51 -7
c17 -17 -4 -31 -47 -31 -51 0 -78 22 -49 39 20 12 81 7 96 -8z m-114 -25 c11
-13 5 -72 -9 -81 -11 -7 -50 34 -50 53 0 36 38 54 59 28z m101 -41 c15 -40 3
-55 -46 -55 -38 0 -44 3 -44 21 0 37 19 59 51 59 22 0 32 -6 39 -25z"/>
<path d="M7678 6047 l-177 -102 -1 -45 c0 -42 -3 -47 -40 -68 l-40 -23 0 -74
0 -74 55 -31 55 -31 0 -63 0 -63 233 -133 c127 -74 239 -138 248 -143 24 -15
389 196 389 224 0 10 -4 19 -10 19 -5 0 -10 15 -10 34 0 19 5 38 10 41 25 15
7 42 -50 73 -49 27 -60 38 -60 58 0 17 9 30 31 42 61 34 65 39 52 61 -15 25
-17 77 -3 86 6 3 10 12 10 20 0 14 -479 295 -502 294 -7 0 -93 -46 -190 -102z
m416 -33 c122 -70 227 -132 234 -139 11 -10 -19 -31 -155 -110 -92 -54 -172
-98 -178 -98 -19 -1 -475 267 -467 275 8 8 335 198 341 198 3 0 104 -57 225
-126z m-340 -230 l236 -136 0 -59 c0 -32 -3 -59 -7 -59 -5 0 -111 60 -238 133
l-230 133 -3 62 c-2 34 -1 62 2 62 2 0 111 -61 240 -136z m571 46 c-3 -5 -1
-10 4 -10 6 0 11 -18 11 -39 l0 -40 -160 -91 c-141 -81 -192 -114 -145 -96 22
8 18 -2 -6 -15 -15 -8 -19 -8 -15 0 4 6 2 11 -3 11 -6 0 -11 18 -11 39 l0 40
160 91 c147 84 188 112 143 96 -15 -5 -15 -4 1 9 23 17 30 19 21 5z m-823 -22
c2 -17 48 -48 203 -138 204 -117 256 -150 241 -150 -5 0 -120 64 -256 142
-212 122 -245 144 -231 155 24 19 39 16 43 -9z m758 -13 c0 -2 -10 -9 -22 -15
-22 -11 -22 -10 -4 4 21 17 26 19 26 11z m-585 -139 l230 -134 3 -61 c2 -33
-1 -61 -5 -61 -4 1 -111 61 -238 134 l-230 134 -3 61 c-2 33 1 61 5 61 4 -1
112 -61 238 -134z m515 99 c0 -2 -10 -9 -22 -15 -22 -11 -22 -10 -4 4 21 17
26 19 26 11z m-70 -40 c0 -2 -10 -9 -22 -15 -22 -11 -22 -10 -4 4 21 17 26 19
26 11z m190 -10 c0 -2 -10 -9 -22 -15 -22 -11 -22 -10 -4 4 21 17 26 19 26 11z
m-240 -20 c0 -2 -10 -9 -22 -15 -22 -11 -22 -10 -4 4 21 17 26 19 26 11z m170
-20 c0 -2 -10 -9 -22 -15 -22 -11 -22 -10 -4 4 21 17 26 19 26 11z m32 -66 c5
-4 3 -9 -7 -12 -9 -4 -13 -3 -10 3 12 19 -9 9 -165 -80 -87 -49 -160 -90 -164
-90 -3 0 -6 17 -6 38 0 32 5 41 25 50 14 6 31 9 39 6 14 -5 201 95 192 103 -2
3 -14 0 -25 -7 -12 -6 -21 -8 -21 -6 0 3 14 13 31 22 17 8 28 11 25 5 -10 -16
5 -13 39 7 l30 19 3 -26 c2 -14 8 -29 14 -32z m-152 -4 c0 -2 -10 -9 -22 -15
-22 -11 -22 -10 -4 4 21 17 26 19 26 11z m242 -37 c15 -11 -2 -24 -152 -110
-93 -54 -174 -98 -180 -98 -17 0 -70 30 -70 39 0 5 73 51 163 102 89 51 163
97 165 101 4 8 44 -10 74 -34z m-629 -78 c96 -55 181 -100 188 -100 8 0 33
-10 57 -22 l42 -23 0 -63 c0 -35 -3 -61 -7 -59 -5 2 -113 64 -240 137 l-233
133 0 48 c0 27 4 49 9 49 5 0 87 -45 184 -100z m487 85 c0 -2 -10 -9 -22 -15
-22 -11 -22 -10 -4 4 21 17 26 19 26 11z m-70 -40 c0 -2 -10 -9 -22 -15 -22
-11 -22 -10 -4 4 21 17 26 19 26 11z m230 0 c0 -2 -10 -9 -22 -15 -22 -11 -22
-10 -4 4 21 17 26 19 26 11z m-17 -106 c-9 -8 -323 -189 -329 -189 -2 0 -4 17
-4 39 l0 39 168 95 167 96 3 -36 c2 -20 0 -39 -5 -44z m-283 66 c0 -2 -10 -9
-22 -15 -22 -11 -22 -10 -4 4 21 17 26 19 26 11z m230 0 c0 -2 -10 -9 -22 -15
-22 -11 -22 -10 -4 4 21 17 26 19 26 11z m-280 -30 c0 -2 -13 -11 -30 -20 -38
-19 -40 -11 -2 9 31 17 32 18 32 11z m210 -10 c0 -2 -10 -9 -22 -15 -22 -11
-22 -10 -4 4 21 17 26 19 26 11z m-285 -35 c-3 -5 -12 -10 -18 -10 -7 0 -6 4
3 10 19 12 23 12 15 0z m215 -5 c0 -2 -10 -9 -22 -15 -22 -11 -22 -10 -4 4 21
17 26 19 26 11z m190 -10 c0 -2 -10 -9 -22 -15 -22 -11 -22 -10 -4 4 21 17 26
19 26 11z m-260 -30 c0 -2 -10 -9 -22 -15 -22 -11 -22 -10 -4 4 21 17 26 19
26 11z m190 -10 c0 -2 -10 -9 -22 -15 -22 -11 -22 -10 -4 4 21 17 26 19 26 11z
m-70 -40 c0 -2 -10 -9 -22 -15 -22 -11 -22 -10 -4 4 21 17 26 19 26 11z m-50
-30 c0 -2 -13 -11 -30 -20 -38 -19 -40 -11 -2 9 31 17 32 18 32 11z m-70 -40
c0 -2 -10 -9 -22 -15 -22 -11 -22 -10 -4 4 21 17 26 19 26 11z"/>
<path d="M3396 2494 c8 -35 14 -43 14 -20 0 13 6 15 28 11 27 -5 27 -5 3 5
-14 6 -31 16 -39 22 -11 9 -12 6 -6 -18z"/>
<path d="M3411 2439 c-1 -21 24 -43 41 -36 8 3 6 6 -5 6 -10 1 -22 11 -27 24
-6 15 -9 17 -9 6z"/>
<path d="M3571 2438 c-1 -9 -13 -21 -28 -26 -24 -9 -25 -11 -7 -11 25 -1 48
23 41 41 -4 9 -6 7 -6 -4z"/>
</g>
</svg>
