<?xml version="1.0" standalone="no"?>
<!DOCTYPE svg PUBLIC "-//W3C//DTD SVG 20010904//EN"
 "http://www.w3.org/TR/2001/REC-SVG-20010904/DTD/svg10.dtd">
<svg version="1.0" xmlns="http://www.w3.org/2000/svg"
 width="1080.000000pt" height="1080.000000pt" viewBox="0 0 1080.000000 1080.000000"
 preserveAspectRatio="xMidYMid meet">

<g transform="translate(0.000000,1080.000000) scale(0.100000,-0.100000)"
fill="#00aeef" stroke="none">
<path d="M5005 7884 c-152 -16 -333 -52 -480 -96 -836 -251 -1488 -929 -1700
-1768 -51 -201 -66 -313 -72 -540 -5 -197 6 -420 23 -465 5 -12 17 -15 43 -13
41 3 39 -15 22 176 -46 511 61 990 321 1443 30 53 144 218 196 283 131 168
387 398 577 521 220 143 487 257 745 319 448 108 957 77 1394 -86 424 -158
815 -453 1092 -823 163 -217 303 -496 376 -750 61 -213 98 -442 98 -616 0
-109 3 -113 65 -89 l26 10 -7 107 c-21 370 -101 687 -249 988 -127 259 -252
438 -445 638 -321 334 -692 556 -1133 681 -194 55 -361 77 -617 81 -129 1
-253 1 -275 -1z"/>
<path d="M4855 6723 c-50 -20 -94 -52 -151 -111 -231 -239 -434 -692 -575
-1282 -22 -96 -43 -180 -45 -187 -6 -23 -180 -102 -339 -154 -396 -130 -905
-159 -1460 -83 -142 19 -467 70 -570 89 -92 17 -113 21 -370 70 -104 20 -228
43 -275 51 -47 8 -107 19 -135 24 -61 11 -211 34 -365 55 -90 12 -492 44 -557
45 -8 0 -13 -15 -13 -40 l0 -40 73 0 c219 -1 671 -69 1097 -165 188 -42 604
-122 770 -149 437 -69 465 -71 855 -71 372 0 395 2 665 51 167 30 404 104 547
169 57 27 57 27 33 -95 -25 -122 -42 -282 -66 -596 -8 -93 6 -149 38 -160 28
-9 42 10 68 91 73 232 237 540 352 659 57 59 73 54 50 -17 -10 -34 -16 -89
-17 -157 0 -87 4 -113 21 -151 98 -212 340 -226 642 -37 87 55 247 185 316
258 26 28 50 49 52 47 3 -2 -4 -67 -15 -143 -32 -229 -46 -457 -32 -503 13
-44 44 -62 66 -40 7 8 27 55 43 104 71 211 173 414 288 571 48 65 109 122 120
112 2 -3 -4 -29 -13 -59 -26 -82 -24 -249 4 -311 101 -221 364 -225 683 -10
99 67 164 124 296 258 116 118 126 126 227 173 175 82 328 131 537 170 139 27
397 51 544 51 215 0 629 -46 911 -100 105 -21 704 -141 800 -160 260 -53 704
-120 801 -120 43 0 44 0 44 34 l0 34 -97 11 c-189 22 -472 72 -778 136 -202
43 -517 106 -570 115 -27 5 -99 18 -160 29 -677 120 -1255 120 -1715 -1 -41
-11 -93 -24 -115 -29 -72 -17 -189 -60 -250 -91 -79 -40 -114 -68 -280 -222
-174 -161 -283 -243 -404 -304 -84 -42 -101 -47 -162 -47 -60 0 -71 3 -97 28
-16 15 -34 45 -41 66 -23 79 -8 249 34 385 31 99 10 146 -65 146 -55 0 -107
-28 -186 -103 -101 -94 -196 -219 -314 -414 -24 -40 -46 -71 -48 -69 -4 4 20
109 55 246 78 300 80 305 170 422 319 417 567 816 678 1095 70 173 86 320 42
384 -30 44 -63 61 -112 56 -63 -7 -129 -44 -194 -109 -226 -225 -404 -594
-557 -1153 -13 -48 -69 -289 -93 -405 -11 -49 -21 -64 -94 -140 -311 -322
-576 -482 -712 -430 -99 38 -113 212 -40 480 20 72 19 96 -5 120 -26 26 -89
26 -141 0 -55 -29 -176 -146 -248 -241 -55 -73 -82 -114 -187 -279 l-35 -55 7
40 c10 57 89 366 117 456 20 63 40 98 114 195 391 517 636 935 714 1216 27 98
26 205 -4 249 -40 59 -95 73 -172 42z m39 -292 c15 -23 -86 -258 -185 -431
-130 -229 -362 -587 -368 -569 -7 23 140 389 230 569 78 156 211 362 263 408
38 33 51 38 60 23z m1471 -1 c10 -16 -43 -158 -106 -281 -113 -223 -439 -745
-447 -719 -4 12 3 33 85 245 115 296 311 649 407 733 39 34 51 38 61 22z"/>
<path d="M7622 5002 c-6 -5 -21 -48 -32 -98 -138 -632 -504 -1168 -1035 -1517
-618 -405 -1372 -505 -2077 -273 -520 171 -982 535 -1283 1012 -67 106 -151
273 -203 404 l-38 95 -40 0 c-46 0 -46 -3 -7 -110 60 -162 173 -377 286 -540
187 -272 513 -574 780 -724 301 -169 529 -252 852 -310 217 -40 621 -40 825 0
232 45 371 85 546 159 695 293 1219 881 1429 1601 20 68 44 166 54 217 l18 92
-31 0 c-17 0 -37 -4 -44 -8z"/>
</g>
</svg>
